<?xml version="1.0" encoding="UTF-8" standalone="no"?>
<!-- Created with Inkscape (http://www.inkscape.org/) -->

<svg
   version="1.1"
   id="svg9"
   width="237.26028"
   height="65.868797"
   viewBox="0 0 237.26028 65.868798"
   xmlns="http://www.w3.org/2000/svg"
   xmlns:svg="http://www.w3.org/2000/svg">
  <defs
     id="defs13" />
  <g
     id="g17"
     transform="matrix(1.3333333,0,0,-1.3333333,2.9485258e-4,65.868798)">
    <g
       id="g19"
       transform="scale(0.1)">
      <path
         d="m 848.91,289.918 h -0.32 c -3.711,-10.816 -13.883,-17.922 -30.188,-17.922 -15.984,0 -25.668,7.266 -25.668,22.281 v 37.774 c 0,10.816 -0.808,12.269 -7.265,12.269 h -5.973 v 8.395 c 8.234,0 22.598,0.973 32.93,1.937 v -55.859 c 0,-9.52 5.168,-14.203 14.371,-14.203 13.723,0 19.691,8.715 19.691,25.348 v 22.113 c 0,10.816 -0.804,12.269 -7.258,12.269 h -5.976 v 8.395 c 8.234,0 22.601,0.973 32.934,1.937 V 292.66 c 0,-7.426 0.804,-10.168 9.042,-10.168 h 4.196 v -7.914 H 848.91 v 15.34"
         style="fill:#cf1e25;fill-opacity:1;fill-rule:nonzero;stroke:none"
         id="path21" />
      <path
         d="m 888.023,352.715 c 8.231,0 22.598,0.973 30.508,1.937 v -17.918 h 0.321 c 5.496,13.075 14.695,18.563 27.769,18.563 15.82,0 28.09,-7.102 28.09,-24.535 V 292.66 c 0,-7.426 0.809,-10.168 9.043,-10.168 h 4.195 v -7.914 h -44.234 v 7.914 h 2.262 c 8.234,0 9.039,2.742 9.039,10.168 v 33.418 c 0,11.461 -5.489,16.625 -14.203,16.625 -11.79,0 -19.86,-8.39 -19.86,-23.566 V 292.66 c 0,-7.426 0.809,-10.168 9.043,-10.168 h 2.262 v -7.914 h -45.207 v 7.914 h 5.168 c 8.23,0 9.043,2.742 9.043,10.168 v 39.391 c 0,10.816 -0.813,12.269 -7.27,12.269 h -5.969 v 8.395"
         style="fill:#cf1e25;fill-opacity:1;fill-rule:nonzero;stroke:none"
         id="path23" />
      <path
         d="m 1019.21,392.434 c 7.59,0 11.79,-5.168 11.79,-12.11 0,-6.945 -4.2,-12.109 -11.79,-12.109 -7.59,0 -11.78,5.164 -11.78,12.109 0,6.942 4.19,12.11 11.78,12.11 z m -22.761,-39.719 c 8.231,0 22.601,0.973 32.931,1.937 V 292.66 c 0,-7.426 0.81,-10.168 9.04,-10.168 h 4.2 v -7.914 h -47.14 v 7.914 h 5.16 c 8.24,0 9.05,2.742 9.05,10.168 v 39.391 c 0,10.816 -0.81,12.269 -7.27,12.269 h -5.971 v 8.395"
         style="fill:#cf1e25;fill-opacity:1;fill-rule:nonzero;stroke:none"
         id="path25" />
      <path
         d="m 1097.21,352.715 h 34.22 v -7.91 h -2.1 c -3.39,0 -4.84,-1.289 -6.45,-5.489 l -25.03,-65.703 h -19.05 l -25.02,64.899 c -2.1,5.328 -3.07,6.293 -6.62,6.293 h -1.94 v 7.91 h 40.36 v -7.91 h -5.33 c -4.84,0 -6.45,-1.129 -6.45,-2.907 0,-2.097 0.97,-4.035 1.45,-5.648 l 15.5,-45.527 h 0.32 l 16.79,47.949 c 0.48,1.129 0.81,2.746 0.81,4.031 0,1.137 -0.97,2.102 -4.69,2.102 h -6.77 v 7.91"
         style="fill:#cf1e25;fill-opacity:1;fill-rule:nonzero;stroke:none"
         id="path27" />
      <path
         d="m 1192.16,321.719 c 0,13.238 -3.39,24.703 -17.27,24.703 -13.88,0 -17.92,-11.137 -17.92,-24.703 z m -35.19,-9.36 c 0,-10.98 0.16,-30.996 20.02,-30.996 11.78,0 16.63,6.293 16.79,18.403 h 16.46 c -0.16,-13.887 -8.23,-27.77 -35.19,-27.77 -27.12,0 -38.75,17.762 -38.75,41.652 0,23.891 11.63,41.649 38.75,41.649 25.99,0 36.81,-12.102 36.81,-39.227 v -3.711 h -54.89"
         style="fill:#cf1e25;fill-opacity:1;fill-rule:nonzero;stroke:none"
         id="path29" />
      <path
         d="m 1223.76,352.715 c 9.2,0 23.57,0.973 31.48,1.937 v -17.918 h 0.32 c 5.49,13.075 14.69,18.563 27.77,18.563 4.68,0 9.2,-0.645 12.92,-1.938 v -23.242 h -15.5 c -0.16,8.071 -1.94,12.586 -8.24,12.586 -7.42,0 -14.85,-10.008 -14.85,-23.566 V 292.66 c 0,-7.426 0.81,-10.168 9.04,-10.168 h 8.56 v -7.914 h -51.5 v 7.914 h 5.17 c 8.23,0 9.04,2.742 9.04,10.168 v 39.391 c 0,10.816 -0.81,12.269 -7.27,12.269 h -6.94 v 8.395"
         style="fill:#cf1e25;fill-opacity:1;fill-rule:nonzero;stroke:none"
         id="path31" />
      <path
         d="m 1307.52,299.766 h 13.56 c 0,-11.465 3.07,-18.891 14.21,-18.891 10.33,0 17.11,4.359 17.11,11.785 0,5.973 -2.26,9.528 -17.11,14.043 -18.73,5.656 -27.77,12.434 -27.77,25.027 0,14.692 13.24,23.567 32.29,23.567 12.27,0 23.09,-2.262 27.76,-4.356 v -22.117 h -13.56 c 0,12.43 -3.06,17.598 -14.69,17.598 -7.42,0 -12.1,-3.067 -12.1,-9.527 0,-6.133 4.19,-10.493 11.62,-12.915 l 13.24,-4.363 c 13.88,-4.515 20.01,-9.195 20.01,-21.469 0,-18.886 -17.92,-26.152 -34.86,-26.152 -13.24,0 -25.03,3.231 -29.71,5.168 v 22.602"
         style="fill:#cf1e25;fill-opacity:1;fill-rule:nonzero;stroke:none"
         id="path33" />
      <path
         d="m 1407.64,392.434 c 7.59,0 11.79,-5.168 11.79,-12.11 0,-6.945 -4.2,-12.109 -11.79,-12.109 -7.59,0 -11.78,5.164 -11.78,12.109 0,6.942 4.19,12.11 11.78,12.11 z m -22.76,-39.719 c 8.24,0 22.6,0.973 32.93,1.937 V 292.66 c 0,-7.426 0.81,-10.168 9.05,-10.168 h 4.19 v -7.914 h -47.14 v 7.914 h 5.17 c 8.23,0 9.04,2.742 9.04,10.168 v 39.391 c 0,10.816 -0.81,12.269 -7.27,12.269 h -5.97 v 8.395"
         style="fill:#cf1e25;fill-opacity:1;fill-rule:nonzero;stroke:none"
         id="path35" />
      <path
         d="m 1438.66,352.715 c 15.01,1.777 18.56,6.461 19.86,22.765 h 14.04 v -22.765 h 25.83 v -9.36 h -25.83 v -51.339 c 0,-6.942 2.58,-10.008 8.39,-10.008 5.82,0 8.4,3.066 8.4,10.008 v 8.234 h 13.56 v -3.551 c 0,-17.273 -9.04,-25.023 -24.7,-25.023 -16.31,0 -25.34,5.328 -25.34,25.347 v 46.332 h -14.21 v 9.36"
         style="fill:#cf1e25;fill-opacity:1;fill-rule:nonzero;stroke:none"
         id="path37" />
      <path
         d="m 1522.64,334.633 c -3.24,7.75 -5.17,10.172 -9.05,10.172 h -2.42 v 7.91 h 40.04 v -7.91 h -5.98 c -2.74,0 -4.35,-0.645 -4.35,-2.907 0,-2.421 1.13,-4.679 2.09,-7.265 l 13.25,-35.84 14.68,37.617 c 0.98,2.262 1.78,4.199 1.78,5.653 0,2.257 -1.13,2.742 -3.88,2.742 h -6.77 v 7.91 h 34.22 v -7.91 h -3.55 c -3.39,0 -4.84,-2.582 -7.1,-7.91 l -31.64,-75.711 c -0.98,-2.262 -2.59,-5.981 -2.59,-8.555 0,-3.395 1.77,-4.844 8.07,-4.844 h 5.33 v -7.914 h -43.27 v 7.914 h 7.27 c 6.13,0 8.23,3.387 10.33,9.035 l 7.75,19.7 -24.21,58.113"
         style="fill:#cf1e25;fill-opacity:1;fill-rule:nonzero;stroke:none"
         id="path39" />
      <path
         d="m 1664.79,281.363 c 13.24,0 18.09,10.332 18.09,32.285 0,21.957 -4.85,32.29 -18.09,32.29 -13.23,0 -18.08,-10.333 -18.08,-32.29 0,-21.953 4.85,-32.285 18.08,-32.285 z m 0,73.934 c 27.13,0 38.75,-17.758 38.75,-41.649 0,-23.89 -11.62,-41.652 -38.75,-41.652 -27.11,0 -38.74,17.762 -38.74,41.652 0,23.891 11.63,41.649 38.74,41.649"
         style="fill:#cf1e25;fill-opacity:1;fill-rule:nonzero;stroke:none"
         id="path41" />
      <path
         d="m 1713.42,352.715 h 14.21 c 0,21.957 0.97,39.719 30.35,39.719 7.91,0 15.01,-0.973 21.47,-2.262 v -21.313 h -13.56 c 0,10.657 -2.1,14.207 -8.07,14.207 -6.62,0 -10.5,-4.683 -10.5,-14.371 v -15.98 h 21.15 v -9.36 h -21.15 V 292.66 c 0,-7.426 0.81,-10.168 9.05,-10.168 h 8.55 v -7.914 h -51.5 v 7.914 h 5.17 c 8.23,0 9.04,2.742 9.04,10.168 v 50.695 h -14.21 v 9.36"
         style="fill:#cf1e25;fill-opacity:1;fill-rule:nonzero;stroke:none"
         id="path43" />
      <path
         d="m 818.563,185.012 c -9.043,0 -13.883,-5.324 -13.883,-19.367 0,-14.532 5.488,-20.665 14.047,-20.665 8.714,0 12.753,6.778 12.753,20.821 0,14.695 -5.167,19.211 -12.917,19.211 z m -0.161,-70.547 c -14.531,0 -19.375,-7.102 -19.375,-15.6564 0,-7.9102 5.328,-14.375 18.887,-14.375 15.34,0 20.344,7.7539 20.344,15.1758 0,8.2346 -5.813,14.8556 -19.856,14.8556 z m 43.262,67.801 h -15.656 v -0.321 c 4.035,-3.066 7.101,-9.355 7.101,-16.3 0,-12.918 -7.101,-25.028 -29.707,-28.739 l -3.871,-0.644 c -5.328,-0.813 -12.593,-1.614 -12.593,-6.946 0,-4.519 2.906,-6.132 20.664,-7.421 15.175,-1.133 30.351,-3.387 30.351,-22.4419 0,-15.0195 -14.851,-23.8945 -41.973,-23.8945 -25.507,0 -36.648,10.332 -36.648,23.4062 0,13.0782 13.402,19.0552 24.699,20.1872 v 0.321 c -10.812,2.101 -14.527,4.843 -14.527,10.332 0,5.168 4.68,9.199 15.824,10.168 v 0.32 c -12.109,3.879 -21.312,11.145 -21.312,25.828 0,15.664 13.882,27.777 35.031,27.777 6.777,0 14.207,-2.101 18.726,-3.402 l 23.891,2.102 v -10.332"
         style="fill:#cf1e25;fill-opacity:1;fill-rule:nonzero;stroke:none"
         id="path45" />
      <path
         d="m 869.125,191.309 c 9.203,0 23.57,0.968 31.48,1.945 v -17.922 h 0.325 c 5.492,13.078 14.691,18.566 27.765,18.566 4.684,0 9.203,-0.644 12.914,-1.945 v -23.242 h -15.496 c -0.16,8.066 -1.937,12.59 -8.23,12.59 -7.43,0 -14.856,-10.012 -14.856,-23.567 v -26.472 c 0,-7.434 0.813,-10.176 9.043,-10.176 h 8.555 v -7.91 h -51.5 v 7.91 h 5.168 c 8.23,0 9.043,2.742 9.043,10.176 v 39.383 c 0,10.82 -0.813,12.277 -7.266,12.277 h -6.945 v 8.387"
         style="fill:#cf1e25;fill-opacity:1;fill-rule:nonzero;stroke:none"
         id="path47" />
      <path
         d="m 987.766,119.949 c 13.234,0 18.074,10.336 18.074,32.297 0,21.953 -4.84,32.285 -18.074,32.285 -13.239,0 -18.082,-10.332 -18.082,-32.285 0,-21.961 4.843,-32.297 18.082,-32.297 z m 0,73.949 c 27.124,0 38.744,-17.765 38.744,-41.652 0,-23.894 -11.62,-41.648 -38.744,-41.648 -27.121,0 -38.746,17.754 -38.746,41.648 0,23.887 11.625,41.652 38.746,41.652"
         style="fill:#cf1e25;fill-opacity:1;fill-rule:nonzero;stroke:none"
         id="path49" />
      <path
         d="m 1037.36,191.309 c 8.24,0 22.6,0.968 30.51,1.945 v -17.922 h 0.32 c 5.5,13.078 14.7,18.566 27.77,18.566 15.82,0 28.09,-7.113 28.09,-24.543 v -38.093 c 0,-7.434 0.81,-10.176 9.05,-10.176 h 4.19 v -7.91 h -44.23 v 7.91 h 2.26 c 8.23,0 9.04,2.742 9.04,10.176 v 33.406 c 0,11.465 -5.49,16.633 -14.21,16.633 -11.79,0 -19.86,-8.391 -19.86,-23.567 v -26.472 c 0,-7.434 0.81,-10.176 9.05,-10.176 h 2.26 v -7.91 h -45.21 v 7.91 h 5.17 c 8.23,0 9.04,2.742 9.04,10.176 v 39.383 c 0,10.82 -0.81,12.277 -7.27,12.277 h -5.97 v 8.387"
         style="fill:#cf1e25;fill-opacity:1;fill-rule:nonzero;stroke:none"
         id="path51" />
      <path
         d="m 1168.65,231.027 c 7.59,0 11.78,-5.168 11.78,-12.109 0,-6.945 -4.19,-12.109 -11.78,-12.109 -7.59,0 -11.78,5.164 -11.78,12.109 0,6.941 4.19,12.109 11.78,12.109 z m -22.77,-39.718 c 8.24,0 22.61,0.968 32.94,1.945 v -61.992 c 0,-7.434 0.81,-10.176 9.04,-10.176 h 4.2 v -7.91 h -47.14 v 7.91 h 5.16 c 8.24,0 9.05,2.742 9.05,10.176 v 39.383 c 0,10.82 -0.81,12.277 -7.27,12.277 h -5.98 v 8.387"
         style="fill:#cf1e25;fill-opacity:1;fill-rule:nonzero;stroke:none"
         id="path53" />
      <path
         d="m 1200.64,191.309 c 8.23,0 22.6,0.968 30.51,1.945 v -17.922 h 0.32 c 5.49,13.078 14.69,18.566 27.77,18.566 15.82,0 28.09,-7.113 28.09,-24.543 v -38.093 c 0,-7.434 0.8,-10.176 9.04,-10.176 h 4.2 v -7.91 h -44.24 v 7.91 h 2.26 c 8.24,0 9.04,2.742 9.04,10.176 v 33.406 c 0,11.465 -5.49,16.633 -14.2,16.633 -11.79,0 -19.86,-8.391 -19.86,-23.567 v -26.472 c 0,-7.434 0.81,-10.176 9.04,-10.176 h 2.26 v -7.91 h -45.2 v 7.91 h 5.16 c 8.24,0 9.05,2.742 9.05,10.176 v 39.383 c 0,10.82 -0.81,12.277 -7.27,12.277 h -5.97 v 8.387"
         style="fill:#cf1e25;fill-opacity:1;fill-rule:nonzero;stroke:none"
         id="path55" />
      <path
         d="m 1348.23,185.012 c -9.04,0 -13.88,-5.324 -13.88,-19.367 0,-14.532 5.48,-20.665 14.04,-20.665 8.72,0 12.76,6.778 12.76,20.821 0,14.695 -5.17,19.211 -12.92,19.211 z m -0.16,-70.547 c -14.53,0 -19.37,-7.102 -19.37,-15.6564 0,-7.9102 5.32,-14.375 18.88,-14.375 15.34,0 20.34,7.7539 20.34,15.1758 0,8.2346 -5.81,14.8556 -19.85,14.8556 z m 43.26,67.801 h -15.66 v -0.321 c 4.04,-3.066 7.11,-9.355 7.11,-16.3 0,-12.918 -7.11,-25.028 -29.71,-28.739 l -3.87,-0.644 c -5.33,-0.813 -12.59,-1.614 -12.59,-6.946 0,-4.519 2.9,-6.132 20.66,-7.421 15.18,-1.133 30.35,-3.387 30.35,-22.4419 0,-15.0195 -14.85,-23.8945 -41.97,-23.8945 -25.51,0 -36.65,10.332 -36.65,23.4062 0,13.0782 13.4,19.0552 24.7,20.1872 v 0.321 c -10.81,2.101 -14.53,4.843 -14.53,10.332 0,5.168 4.68,9.199 15.83,10.168 v 0.32 c -12.11,3.879 -21.32,11.145 -21.32,25.828 0,15.664 13.89,27.777 35.04,27.777 6.77,0 14.2,-2.101 18.72,-3.402 l 23.89,2.102 v -10.332"
         style="fill:#cf1e25;fill-opacity:1;fill-rule:nonzero;stroke:none"
         id="path57" />
      <path
         d="m 1457.88,160.313 c 0,13.242 -3.39,24.699 -17.27,24.699 -13.89,0 -17.92,-11.133 -17.92,-24.699 z m -35.19,-9.364 c 0,-10.976 0.16,-31 20.02,-31 11.78,0 16.63,6.301 16.79,18.41 h 16.46 c -0.16,-13.886 -8.23,-27.761 -35.19,-27.761 -27.12,0 -38.75,17.754 -38.75,41.648 0,23.887 11.63,41.652 38.75,41.652 25.99,0 36.81,-12.113 36.81,-39.23 v -3.719 h -54.89"
         style="fill:#cf1e25;fill-opacity:1;fill-rule:nonzero;stroke:none"
         id="path59" />
      <path
         d="m 1490.37,191.309 c 8.23,0 22.59,0.968 30.5,1.945 v -17.922 h 0.33 c 5.49,13.078 14.69,18.566 27.76,18.566 15.83,0 28.1,-7.113 28.1,-24.543 v -38.093 c 0,-7.434 0.8,-10.176 9.04,-10.176 h 4.19 v -7.91 h -44.23 v 7.91 h 2.26 c 8.23,0 9.04,2.742 9.04,10.176 v 33.406 c 0,11.465 -5.49,16.633 -14.21,16.633 -11.78,0 -19.85,-8.391 -19.85,-23.567 v -26.472 c 0,-7.434 0.81,-10.176 9.04,-10.176 h 2.26 v -7.91 h -45.21 v 7.91 h 5.17 c 8.23,0 9.04,2.742 9.04,10.176 v 39.383 c 0,10.82 -0.81,12.277 -7.26,12.277 h -5.97 v 8.387"
         style="fill:#cf1e25;fill-opacity:1;fill-rule:nonzero;stroke:none"
         id="path61" />
      <path
         d="M 691.973,353.969 405.18,0 382.383,0.0195313 669.148,353.949 l 22.825,0.02 v 0"
         style="fill:#cf1e25;fill-opacity:1;fill-rule:nonzero;stroke:none"
         id="path65" />
      <path
         d="m 138.539,422.895 c -2.09,-0.321 -5.027,-1.153 -6.746,2.57 -1.555,3.375 4.277,8.828 6.211,10.594 2.508,2.285 -0.754,4.738 -2.66,2.07 -0.535,-0.746 -5.106,-7.207 -8.684,-7.207 -5.57,0 -5.25,6.531 -5.25,6.531 0,0 -6.199,3.953 -6.199,16.531 0,11.184 7.383,16.536 7.383,16.536 0,0 0.047,6.367 5.027,6.203 4.981,-0.16 8.192,-7.012 8.512,-7.481 2.519,-3.777 5.668,-0.551 3.469,2.137 -5.211,6.348 -6.313,11.355 -0.614,14.043 2.071,4.715 8.321,8.031 15.145,8.558 l 0.226,0.02 0.219,0.016 c 6.832,-0.563 13.074,-3.879 15.152,-8.594 5.692,-2.688 4.59,-7.695 -0.609,-14.043 -2.211,-2.688 0.953,-5.914 3.473,-2.137 0.304,0.469 3.527,7.321 8.504,7.481 4.972,0.164 5.035,-6.203 5.035,-6.203 0,0 7.379,-5.352 7.379,-16.536 0,-12.578 -6.211,-16.531 -6.211,-16.531 0,0 0.32,-6.531 -5.238,-6.531 -3.583,0 -8.153,6.461 -8.696,7.207 -1.898,2.668 -5.152,0.215 -2.644,-2.07 1.918,-1.766 7.757,-7.219 6.195,-10.594 -1.707,-3.723 -4.648,-2.891 -6.738,-2.57 0,0 -1.91,-3.321 -4.797,-3.329 14.437,-10.785 37.105,-4.683 40.148,3.223 0,0 -3.843,-0.762 -3.797,3.262 0.028,2.429 2.508,3.758 5.86,4.242 -0.703,1.543 -1.051,3.395 -0.934,5.402 0.332,5.657 4.235,10.41 8.731,10.606 4.492,0.199 7.863,-4.231 7.531,-9.891 -0.164,-2.844 -1.242,-5.469 -2.84,-7.39 3.285,-1.125 5.606,-2.809 5.301,-4.786 -0.805,-5.195 -5.613,-3.91 -5.613,-3.91 -0.582,-11.867 17.519,-14.136 22.148,-11.074 -1.816,6.844 0.914,8.91 2.992,10.75 1.492,1.32 5.918,4.047 6.531,4.445 1.391,0.903 2.098,2.817 1.231,3.528 -0.813,0.675 -2.617,-0.477 -3.484,-1.438 -1.215,-1.379 -3.368,-4.637 -6.739,-3.746 -4.054,1.07 -2.308,5.727 -2.984,8.238 -4.352,15.828 -0.641,26.875 15.187,33.496 0,0 6.028,6.34 11.418,3.485 5.168,-2.738 1.961,-11.192 1.961,-11.192 l 1.598,-0.75 c 5.781,10.489 14.141,18.098 26.133,18.403 8.511,0.211 12.597,-4.801 12.929,-11.66 0.739,-15.286 -14.878,-9.59 -13.664,-3.887 0,0 -3.777,-0.387 -5.855,-3.711 0,0.961 0.121,10.035 -7.981,5.242 -2.308,-1.367 -6.39,-8.223 -6.687,-9.094 -1.012,-3.004 0.445,-3.488 -1.125,-6.421 -1.227,-2.301 -2.941,-2.836 -3.688,-4.438 -0.75,-1.609 0.321,-4.762 -0.703,-6.797 -1.238,-2.48 -2.937,-2.676 -4.054,-4.922 -0.907,-1.785 -12.215,-30.613 -12.215,-30.613 0,0 4.504,-2.883 3.652,-7.168 -1.152,-5.73 -4.801,-4.492 -6.742,-8.262 -61.414,15.797 -124.984,15.887 -190.6876,0.27 -1.9687,3.441 -5.4687,2.402 -6.5937,7.992 -0.8477,4.285 3.6445,7.168 3.6445,7.168 0,0 -11.3086,28.828 -12.2031,30.613 -1.1172,2.246 -2.8282,2.442 -4.0664,4.922 -1.0196,2.035 0.0468,5.188 -0.6954,6.797 -0.746,1.602 -2.4648,2.137 -3.6835,4.438 -1.5743,2.933 -0.125,3.417 -1.1329,6.421 -0.289,0.871 -4.3828,7.727 -6.6914,9.094 -8.0898,4.793 -7.9687,-4.281 -7.9687,-5.242 -2.082,3.324 -5.8711,3.711 -5.8711,3.711 1.2226,-5.703 -14.39845,-11.399 -13.6562625,3.887 0.3320315,6.859 4.4296925,11.871 12.9257625,11.66 12.0039,-0.305 20.3516,-7.914 26.1328,-18.403 l 1.6055,0.75 c 0,0 -3.207,8.454 1.9648,11.192 5.3907,2.855 11.4102,-3.485 11.4102,-3.485 15.832,-6.621 19.5352,-17.668 15.1992,-33.496 -0.6914,-2.511 1.0703,-7.168 -3,-8.238 -3.3711,-0.891 -5.5078,2.367 -6.7383,3.746 -0.8515,0.961 -2.664,2.113 -3.4843,1.438 -0.8594,-0.711 -0.1446,-2.625 1.2304,-3.528 0.6211,-0.398 5.0391,-3.125 6.5274,-4.445 2.0976,-1.84 4.8242,-3.906 3.0039,-10.75 4.6289,-3.062 22.7226,-0.793 22.1484,11.074 0,0 -4.8164,-1.285 -5.6172,3.91 -0.3007,1.977 2.0118,3.661 5.3008,4.786 -1.6015,1.921 -2.6719,4.546 -2.8437,7.39 -0.3282,5.66 3.0547,10.09 7.5429,9.891 4.4922,-0.196 8.402,-4.949 8.731,-10.606 0.109,-2.007 -0.243,-3.859 -0.93,-5.402 3.34,-0.484 5.832,-1.813 5.847,-4.242 0.051,-4.024 -3.8,-3.262 -3.8,-3.262 3.043,-7.906 25.722,-14.008 40.16,-3.223 -2.902,0.008 -4.801,3.329 -4.801,3.329 z m 5.199,29.562 c 0,-5.863 4.754,-10.617 10.621,-10.617 5.86,0 10.614,4.754 10.614,10.617 0,5.859 -4.754,10.609 -10.614,10.609 -5.867,0 -10.621,-4.75 -10.621,-10.609 z M 202.32,406.41 c 4.578,0.137 13.508,-1.738 13.508,-1.738 0,0 -3.797,4.254 -5.535,7.144 0,0 -2.031,-1.898 -3.262,-2.789 -0.961,-0.703 -4.711,-2.617 -4.711,-2.617 z m -47.961,9.313 c -1.785,-1.989 -5.25,-5.395 -9.007,-6.688 0,0 6.191,0.16 8.871,0.203 h 0.269 c 2.68,-0.043 8.875,-0.203 8.875,-0.203 -3.765,1.293 -7.222,4.699 -9.008,6.688 z m -47.968,-9.313 c 0,0 -3.75,1.914 -4.711,2.617 -1.231,0.891 -3.2581,2.789 -3.2581,2.789 -1.7422,-2.89 -5.5391,-7.144 -5.5391,-7.144 0,0 8.9372,1.875 13.5082,1.738 z m 140.527,-28.676 c 2.941,-0.789 7.082,-3.687 5.941,-7.945 -1.136,-4.258 -6.171,-4.691 -9.121,-3.898 -2.949,0.785 -7.078,3.679 -5.933,7.937 1.136,4.258 6.164,4.692 9.113,3.906 z m -38.59,1.149 -8.949,-7.512 -7.508,8.953 8.949,7.512 z M 66,365.891 c -2.9492,-0.793 -7.9766,-0.36 -9.1211,3.898 -1.1367,4.258 3.0039,7.156 5.9531,7.945 2.9414,0.786 7.9688,0.352 9.1055,-3.906 1.1523,-4.258 -2.9883,-7.152 -5.9375,-7.937 z m 79.543,15.82 c 0,3.379 4.18,6.117 9.328,6.117 5.156,0 9.328,-2.738 9.328,-6.117 0,-3.375 -4.172,-6.113 -9.328,-6.113 -5.148,0 -9.328,2.738 -9.328,6.113 z m -44.133,-2.828 7.512,8.953 8.949,-7.512 -7.512,-8.953 z M 24.8398,108.652 c 1.0196,4.063 5.3516,3.164 5.3516,3.164 0,0 -1.0312,3.75 2.8008,5.469 4.2305,1.895 6.3398,-2.773 6.3398,-2.773 l 1.7774,-12.051 -12.8477,0.41 c 0,0 -4.5508,1.289 -3.4219,5.781 z m 18.2032,19.961 c 1.0195,4.063 5.3515,3.145 5.3515,3.145 0,0 -1.0351,3.75 2.7852,5.469 4.2383,1.914 6.3398,-2.774 6.3398,-2.774 l 1.793,-12.051 -12.8516,0.43 c 0,0 -4.5507,1.27 -3.4179,5.781 z m 18.1875,19.942 c 1.0195,4.062 5.3515,3.144 5.3515,3.144 0,0 -1.0312,3.75 2.7891,5.469 4.2383,1.914 6.3516,-2.773 6.3516,-2.773 L 77.5,142.344 64.6523,142.773 c 0,0 -4.5507,1.27 -3.4218,5.782 z m 93.2425,184.726 c 1.019,4.063 5.347,3.157 5.347,3.157 0,0 -1.031,3.75 2.793,5.468 4.239,1.903 6.348,-2.781 6.348,-2.781 l 1.781,-12.051 -12.851,0.426 c 0,0 -4.551,1.27 -3.418,5.781 z M 172.25,265.25 c 1.02,4.063 5.352,3.152 5.352,3.152 0,0 -1.032,3.75 2.789,5.469 4.238,1.906 6.343,-2.777 6.343,-2.777 l 1.786,-12.055 -12.852,0.43 c 0,0 -4.547,1.269 -3.418,5.781 z m 21.359,22.605 c 1.008,4.071 5.34,3.157 5.34,3.157 0,0 -1.019,3.75 2.805,5.468 4.238,1.903 6.336,-2.781 6.336,-2.781 l 1.793,-12.047 -12.852,0.422 c 0,0 -4.551,1.27 -3.422,5.781 z m 21.352,22.61 c 1.019,4.066 5.352,3.152 5.352,3.152 0,0 -1.02,3.75 2.796,5.469 4.231,1.906 6.344,-2.773 6.344,-2.773 l 1.777,-12.055 -12.835,0.43 c 0,0 -4.563,1.269 -3.434,5.777 z m 21.363,22.605 c 1.016,4.071 5.348,3.157 5.348,3.157 0,0 -1.031,3.753 2.801,5.468 4.226,1.91 6.34,-2.773 6.34,-2.773 l 1.781,-12.055 -12.852,0.43 c 0,0 -4.551,1.269 -3.418,5.773 z M 12.75,180.879 c 1.0195,4.062 5.3516,3.144 5.3516,3.144 0,0 -1.0313,3.75 2.8007,5.469 4.2305,1.914 6.3399,-2.773 6.3399,-2.773 l 1.7773,-12.051 -12.8476,0.43 c 0,0 -4.5508,1.269 -3.4219,5.781 z M 62.3398,59.8633 c 1.0196,4.043 5.3516,3.1445 5.3516,3.1445 0,0 -1.0312,3.75 2.793,5.4688 4.2383,1.914 6.3476,-2.7735 6.3476,-2.7735 L 78.6094,53.6523 65.7617,54.082 c 0,0 -4.5508,1.2696 -3.4219,5.7813 z m 21.1211,22.9492 c 1.0118,4.0625 5.336,3.1445 5.336,3.1445 0,0 -1.0196,3.7696 2.8047,5.4883 4.2382,1.8945 6.3398,-2.7734 6.3398,-2.7734 l 1.7813,-12.0703 -12.8438,0.4297 c 0,0 -4.5508,1.2695 -3.418,5.7812 z M 104.57,105.781 c 1.02,4.063 5.352,3.145 5.352,3.145 0,0 -1.031,3.75 2.789,5.469 4.242,1.914 6.344,-2.774 6.344,-2.774 L 120.84,99.5703 107.992,100 c 0,0 -4.551,1.27 -3.422,5.781 z m 21.11,22.949 c 1.019,4.063 5.351,3.165 5.351,3.165 0,0 -1.031,3.75 2.801,5.468 4.231,1.895 6.34,-2.773 6.34,-2.773 l 1.781,-12.051 -12.851,0.41 c 0,0 -4.551,1.27 -3.422,5.781 z m 92.992,97.618 c 1.019,4.074 5.348,3.164 5.348,3.164 0,0 -1.016,3.75 2.8,5.468 4.231,1.907 6.34,-2.773 6.34,-2.773 l 1.781,-12.051 -12.839,0.43 c 0,0 -4.563,1.269 -3.43,5.762 z m 19.039,20.777 c 1.019,4.066 5.352,3.152 5.352,3.152 0,0 -1.024,3.75 2.796,5.469 4.235,1.91 6.344,-2.777 6.344,-2.777 l 1.777,-12.051 -12.835,0.43 c 0,0 -4.563,1.269 -3.434,5.777 z m 19.043,20.77 c 1.016,4.062 5.348,3.156 5.348,3.156 0,0 -1.032,3.75 2.8,5.469 4.231,1.902 6.336,-2.778 6.336,-2.778 l 1.785,-12.058 -12.851,0.429 c 0,0 -4.551,1.27 -3.418,5.782 z m 19.035,20.765 c 1.024,4.07 5.356,3.156 5.356,3.156 0,0 -1.032,3.75 2.785,5.469 4.238,1.91 6.347,-2.777 6.347,-2.777 l 1.786,-12.051 -12.852,0.43 c 0,0 -4.547,1.269 -3.422,5.773 z M 128.012,39.4727 c 1.015,4.0625 5.347,3.1445 5.347,3.1445 0,0 -1.031,3.75 2.793,5.4687 4.239,1.9141 6.348,-2.7734 6.348,-2.7734 l 1.781,-12.0508 -12.851,0.4297 c 0,0 -4.551,1.2695 -3.418,5.7813 z m 147.89,163.6723 c 1.016,4.062 5.348,3.164 5.348,3.164 0,0 -1.031,3.75 2.793,5.468 4.238,1.895 6.348,-2.773 6.348,-2.773 l 1.781,-12.07 -12.852,0.429 c 0,0 -4.55,1.27 -3.418,5.782 z m -143.05,-16.426 c 0,0.625 1.011,0.527 2.929,0.84 1.93,0.332 3.629,0.957 3.629,0.332 0,-0.977 -1.328,-0.215 -1.328,-1.778 v -14.98 c 0,-0.762 1.012,-0.215 1.012,-0.801 0,-0.762 -1.813,-0.43 -3.153,-0.43 -1.378,0 -3.148,-0.332 -3.148,0.254 0,1.016 1.227,0 1.227,0.977 v 14.238 c 0,1.504 -1.168,0.117 -1.168,1.348 z m -16.289,-6.504 c 0,0.43 0.527,0.488 1.488,0.976 0.969,0.469 1.551,0.997 2.41,0.254 0.852,-0.742 5.492,-6.074 5.492,-6.074 v 7.578 c 0,0.84 -1.488,-0.273 -1.488,0.586 0,0.645 0.637,0.645 1.707,1.055 1.058,0.43 2.605,1.601 2.605,0.859 0,-0.898 -1.117,-0.644 -1.117,-1.816 v -14.629 c 0,-1.211 -0.109,-1.211 -0.64,-1.211 -0.321,0 -7.707,9.316 -7.707,9.316 v -9.941 c 0,-0.898 1.785,0.352 1.785,-0.508 0,-0.469 -1.071,-0.742 -2.137,-1.172 -1.07,-0.429 -2.559,-1.113 -2.559,-0.586 0,0.899 1.328,0.586 1.328,1.504 v 12.852 c 0,0.957 -1.167,0.215 -1.167,0.957 z m -5.782,-9.141 c 0,6.192 -3.949,3.887 -3.949,3.887 v -12.715 c 0,0 3.949,0.078 3.949,8.828 z m -9.226,2.559 c 0,0.449 1.925,1.172 3.195,1.758 2.301,1.074 9.723,4.863 9.723,-4.258 0,-8.379 -5.875,-9.785 -7.739,-10.625 -1.875,-0.86 -4.406,-2.09 -4.589,-1.68 -0.325,0.664 1.003,0.762 1.003,2.266 v 10.41 c 0,2.617 -1.593,1.25 -1.593,2.129 z m 25.847,37.832 c -0.043,0.39 1.508,0.644 2.301,0.859 1.336,0.371 2.188,0.625 2.746,0.059 0.563,-0.567 3.305,-4.981 3.305,-4.981 0,0 3.527,4.981 3.809,5.313 0.277,0.332 0.398,0.82 1.8,0.84 1.621,0.039 2.348,0.195 2.348,-0.137 0,-0.625 -1.012,-0.313 -1.059,-1.602 -0.05,-0.996 0,-12.949 0,-13.613 0,-1.523 1.032,-1.015 1.032,-1.523 0,-0.489 -0.672,-0.293 -3.055,-0.274 -1.957,0.02 -3.281,-0.254 -3.281,0.117 0,0.665 1.047,0.118 1.047,1.485 v 9.101 c 0,0 -3.422,-4.98 -3.594,-4.98 -0.199,0 -4.371,6.348 -4.371,6.348 v -10.899 c 0,-1.738 1.734,-0.723 1.734,-1.387 0,-0.351 -1.324,-0.488 -2.293,-0.742 -1.121,-0.273 -2.101,-0.703 -2.211,-0.39 -0.25,0.683 1.203,0.312 1.203,2.265 0,1.739 0.02,11.758 0,12.481 -0.058,1.933 -1.402,1.093 -1.461,1.66 z m -4.929,-1.914 c 0.578,0.273 2.105,1.113 2.289,0.859 0.265,-0.371 -0.614,-0.449 -1.223,-3.105 -0.226,-0.938 -3.101,-16.055 -4.168,-16.602 -0.344,-0.156 -5.211,11.914 -5.66,12.871 -0.789,1.719 -1.648,0.567 -1.813,1.172 -0.097,0.391 1.243,0.879 2.344,1.387 0.586,0.273 2.738,1.562 2.969,1.308 0.449,-0.507 -1.18,-0.527 -0.398,-2.363 0.515,-1.25 3.25,-7.265 3.25,-7.265 0,0 1.609,6.777 2.089,9.062 0.481,2.305 -1.285,1.152 -1.339,1.66 -0.032,0.293 0.859,0.664 1.597,0.996 z m -18.696,-15.86 v -8.3 c 0,0 4.274,0.898 4.274,6.074 0,4.433 -4.274,2.226 -4.274,2.226 z m -0.054,7.286 v -5.508 c 0,0 3.109,1.172 3.109,3.828 0,3.203 -3.109,1.68 -3.109,1.68 z m 0.332,1.425 c 1.804,0.703 6.566,1.661 6.566,-2.461 0,-2.929 -1.93,-3.632 -1.93,-3.632 0,0 3.481,-0.625 3.481,-3.516 0,-3.301 -1.609,-5.605 -3.422,-6.563 -0.93,-0.488 -6.621,-3.261 -7.156,-3.574 -0.535,-0.332 -1.8049,-1.015 -1.9417,-0.703 -0.3203,0.723 0.9297,0.586 0.9297,2.735 v 13.3 c 0,2.832 -1.3281,1.582 -1.3281,2.325 0,0.468 2.9491,1.386 4.8011,2.089 z m 29.617,37.481 v -6.727 c 0,0 3.16,0.203 3.16,3.836 0,4.328 -3.16,2.891 -3.16,2.891 z m 8.359,-15 c 0.953,-0.137 1.383,0.254 1.383,0.254 0,0 -0.324,-2.403 -2.824,-2.403 -3.418,0 -3.367,5.879 -4.32,7.579 -0.965,1.71 -2.579,0.8 -2.579,0.8 v -5.976 c 0,-1.914 1.204,-1.094 1.204,-1.797 0,-0.274 -0.934,-0.449 -0.934,-0.449 0,0 -2.609,-0.743 -3.563,-0.957 -0.968,-0.215 -1.39,-0.43 -1.39,0 0,0.761 0.953,0.273 0.953,2.382 v 12.344 c 0,2.403 -1.383,1.602 -1.41,2.278 -0.02,0.398 0.969,0.585 1.922,0.828 1.605,0.402 2.218,0.898 4.507,1.433 2.211,0.52 6.09,-0.535 6.09,-3.621 0,-3.418 -1.922,-4.109 -2.988,-4.91 3.949,-1.926 2.176,-7.59 3.949,-7.785 z m -25.941,8.769 c 1.601,0.528 4.433,1.739 7.469,3.438 0.421,0.234 1.652,1.015 2.254,-0.098 0.597,-1.152 1.058,-2.676 0.687,-2.832 -0.547,-0.234 -0.91,0.215 -1.598,0.586 -0.609,0.324 -1.39,0.695 -2.144,0.488 -0.746,-0.214 -1.766,-0.664 -1.766,-0.664 L 121,229.297 c 0,0 1.871,0 2.082,1.016 0.172,0.82 0.508,1.875 1.09,2.031 0.34,0.097 0.246,-0.985 0.281,-2.5 0.02,-0.52 0.051,-0.809 0.059,-1.094 0.039,-1.855 -0.074,-2.461 -0.34,-2.52 -0.5,-0.097 -0.942,1.27 -1.063,1.583 -0.218,0.546 -2.109,0.039 -2.109,-0.274 v -7.559 c 0,0 1.441,0.782 2.082,1.153 0.867,0.508 2.34,2.207 2.91,3.203 0.563,0.996 0.781,1.797 1.309,1.719 0.32,-0.059 -0.383,-3.321 -0.383,-3.321 0,0 -0.047,-1.269 -1.105,-1.816 -1.071,-0.527 -7.043,-3.32 -7.559,-3.574 -1.024,-0.489 -2.254,-1.367 -2.274,-0.879 -0.027,0.742 0.993,0.351 0.993,2.558 l -0.02,12.629 c 0,0 -0.055,1.051 -0.863,1.2 -0.606,0.109 -1.195,0.402 0,0.8 z m -13.961,-5.8 c 0.863,0.312 3.293,1.347 3.422,1.054 0.344,-0.761 -1.258,-0.586 -0.731,-2.109 0.45,-1.27 3.27,-7.949 3.27,-7.949 l 2.453,9.601 c 0.527,2.078 -1.152,1.356 -1.289,1.864 -0.082,0.351 1.23,0.753 1.976,1.074 0.622,0.293 2.594,1.133 2.7,0.879 0.258,-0.664 -0.75,-0.664 -1.278,-2.539 -0.632,-2.207 -4.371,-17.247 -5.422,-17.832 -0.589,-0.313 -5.742,12.656 -6.14,13.671 -0.402,1.016 -1.7892,0.625 -1.922,1.231 -0.0469,0.234 2.109,0.762 2.961,1.055 z m 67.621,-41.641 c -0.02,0.391 0.582,0.234 1.488,-0.039 0.914,-0.274 2.004,-0.547 2.75,-1.758 0.742,-1.23 6.371,-10.84 6.371,-10.84 l -0.039,8.672 c 0,1.152 -1.007,1.172 -1.007,1.66 0,0.43 0.769,0 1.589,-0.273 0.809,-0.274 1.996,-0.41 1.996,-0.781 0,-0.372 -1.046,0.175 -1.046,-0.84 v -16.367 c 0,0 0,-0.723 -0.481,-0.079 -0.379,0.528 -8.808,14.102 -8.808,14.102 0,0 0.031,-8.516 0,-9.395 -0.036,-1.015 1.089,-0.898 1.089,-1.406 0,-0.527 -1.191,-0.254 -1.929,-0.117 -0.75,0.137 -1.875,0.039 -1.875,0.684 0,0.644 1.019,-0.332 1.019,1.191 v 13.926 c 0,1.035 -1.078,1.113 -1.117,1.66 z m 7.961,25.059 c 0,0.625 2.68,-0.469 4.777,-1.075 2.102,-0.605 6.071,-1.25 6.071,-2.539 0,-1.582 0.402,-3.086 -0.106,-3.086 -0.312,0 -0.953,1.993 -1.594,2.637 -0.98,0.996 -2.976,1.426 -3.519,1.523 -0.535,0.098 -0.41,0.079 -0.41,-0.292 v -5.098 c 0,0 1.363,-0.664 2.097,-0.332 0.754,0.332 0.852,1.523 1.297,1.426 0.438,-0.098 0.27,-1.016 0.196,-2.774 -0.071,-1.758 0.14,-3.359 -0.309,-3.183 -0.43,0.156 -0.469,1.66 -1.383,2.539 -0.918,0.879 -1.93,1.015 -1.93,1.015 v -8.301 c 0,0 1.012,-1.113 3.114,-0.449 2.097,0.684 3.597,2.11 3.929,1.758 0.336,-0.332 0.172,-0.801 -0.839,-2.402 -1.02,-1.582 -1.563,-2.598 -2.582,-2.168 -1.008,0.449 -3.317,1.328 -4.739,1.972 -1.422,0.645 -4.371,1.348 -4.371,1.954 0,0.625 1.461,-0.508 1.461,1.269 v 14.199 c 0,0.703 -1.16,0.938 -1.16,1.407 z m -3.43,2.441 c 0.746,0 0.602,-2.773 0.707,-3.672 0.211,-1.699 0.727,-3.223 0.192,-3.242 -0.821,-0.039 -1.785,2.695 -3.102,4.043 -1.226,1.269 -5.746,3.574 -5.746,-5.977 0,-8.183 3.551,-8.008 5.488,-7.402 1.903,0.586 2.692,2.09 2.91,1.934 0.231,-0.137 -1.57,-4.024 -5.531,-4.473 -3.949,-0.449 -7.836,3.437 -7.836,9.531 0,6.074 2.989,9.805 6.758,9.805 3.031,0 3.918,-2.09 5.231,-2.09 0.859,0 0.07,1.543 0.929,1.543 z m 10.211,21.691 c 0.153,0.77 1.52,-0.207 3.762,-1.125 2.238,-0.918 3.855,-1.386 3.726,-1.757 -0.14,-0.372 -1.73,0.234 -1.531,-0.821 0.211,-1.043 2.711,-9.277 2.711,-9.277 0,0 2.91,6.902 2.985,7.187 0.207,0.84 -0.774,0.977 -0.684,1.387 0.109,0.43 0.988,-0.137 1.703,-0.547 0.707,-0.41 1.856,-0.781 1.66,-1.25 -0.203,-0.469 -1.054,0.606 -1.39,-0.207 -0.344,-0.808 -6.164,-13.894 -6.164,-13.894 l -5.84,18.808 c -0.328,1.086 -1.039,0.989 -0.938,1.496 z m -13.32,5.047 c 0,0.442 0.82,0.071 0.82,0.071 l 5.18,-1.868 c 0,0 0.91,-0.3 0.879,-0.711 -0.028,-0.402 -1.762,0.508 -1.762,-1.046 v -14.61 c 0,0 0.371,-0.976 2.106,-0.273 1.726,0.722 4.296,2.402 4.296,2.402 0,0 1.219,0.625 0.918,-0.234 -0.308,-0.84 -1.531,-3.555 -1.531,-3.555 0,0 -0.265,-1.055 -1.656,-0.801 -1.395,0.235 -4.813,1.27 -5.758,1.543 -0.941,0.274 -3.594,1.094 -3.594,1.094 0,0 -0.539,0.098 -0.539,0.508 0,0.41 1.66,-0.039 1.66,1.289 v 14.258 c 0,1.289 -1.019,1.328 -1.019,1.933 z m 20.078,-51.601 c 0,1.015 1.391,-0.371 1.391,1.23 v 14.102 c 0,1.758 -0.801,1.699 -0.801,2.402 0,0.684 1.555,-0.332 1.922,-0.488 0.371,-0.156 4.426,-2.246 4.859,-2.461 0.434,-0.215 4.746,-1.973 4.746,-6.719 0,-3.262 -2.719,-2.715 -2.719,-2.715 0,0 2.719,-1.601 2.883,-4.004 0.16,-2.402 0.477,-4.433 0.477,-4.765 0,-0.313 0.484,-1.7 1.972,-0.43 0,0 0.172,-2.871 -3.089,-1.797 -2.129,0.684 -2.731,2.656 -2.879,4.004 -0.164,1.328 -0.91,7.773 -3.801,7.656 v -6.445 c 0,-1.719 1.019,-1.23 1.019,-2.246 0,-0.645 -1.5,0.391 -2.832,0.918 -1.976,0.879 -3.148,1.172 -3.148,1.758 z m 4.973,14.355 v -6.562 c 0.425,-0.157 3.679,-2.246 3.679,1.816 0,4.063 -3.679,4.746 -3.679,4.746 z m -7.153,-24.57 c 0.321,1.015 -0.648,1.308 -0.461,1.738 0.141,0.313 1.473,-0.41 2.27,-0.781 0.801,-0.371 2.031,-0.684 2.351,-1.777 0.321,-1.094 4.508,-15.391 4.911,-16.719 0.449,-1.485 1.332,-1.055 1.07,-1.758 -0.109,-0.273 -1.34,0.312 -3.762,1.289 -2.027,0.801 -3.027,1.055 -3.027,1.367 0,0.664 2.043,-0.429 1.558,0.957 -0.32,0.938 -1.019,3.379 -1.019,3.379 l -5.633,1.836 -0.801,-2.715 c -0.394,-1.367 0.883,-1.152 0.645,-1.66 -0.133,-0.273 -0.934,0.078 -1.973,0.508 -1,0.41 -1.429,0.488 -1.386,0.781 0.05,0.488 0.851,-0.215 1.226,0.762 0.371,0.996 3.75,11.914 4.031,12.793 z m 0.891,-1.875 -1.957,-6.309 4.379,-1.484 z M 302.758,353.512 V 166.191 C 304.84,54.2969 213.301,14.5898 152.91,14.5898 92.5117,14.5898 0.972656,54.2969 3.05078,166.191 V 353.512 H 58.9102 c -0.3008,3.461 0.6406,5.875 0.7343,5.98 76.3085,15.289 113.2145,16 189.4645,-0.035 1.645,-1.984 1.95,-4.105 1.672,-5.945 z M 30.9805,81.9922 l 58.5,62.3048 V 162.5 l -6.6289,0.215 c 0,0 -4.5508,1.269 -3.4219,5.781 1.0117,4.063 5.3398,3.164 5.3398,3.164 0,0 -1.0195,3.75 2.8047,5.469 0.6992,0.312 1.3281,0.449 1.9063,0.449 l 0.0117,12.07 -73.1016,-77.851 c 3.75,-11.055 8.711,-20.9572 14.5899,-29.8048 z M 103.789,241.191 c 0.789,0.364 1.594,0.743 2.395,1.133 2.816,1.422 7.91,4.082 13.367,6.391 5.383,2.277 11.738,4.488 16.84,4.488 5.129,0 9.25,-1.531 12.082,-3.055 1.422,-0.761 2.527,-1.535 3.3,-2.125 l 0.278,-0.23 c 0.101,0.152 0.219,0.312 0.359,0.48 0.594,0.719 1.453,1.555 2.703,2.336 2.489,1.575 6.309,2.809 12.09,2.809 6.059,0 12.86,-2.422 18.34,-4.898 l 1.258,-0.586 93.988,100.093 H 238.215 L 155.43,259.879 v 42.43 l 42.929,45.718 H 8.53125 V 166.152 c -0.11719,-6.797 0.11328,-13.32 0.66797,-19.57 l 40.95308,43.613 h 39.3399 v 34.766 c -0.7305,-1.016 -1.8516,-0.84 -1.8516,-0.84 0,0 0.9922,3.008 -1.7383,3.438 -0.2148,0.039 -0.4296,0.039 -0.6835,0.039 -1.5391,0 -2.418,-0.762 -3.3477,-1.504 -1.4531,-1.172 -5.75,-6.211 -6.5938,-7.031 -0.8398,0.82 -5.1445,5.859 -6.5976,7.031 -0.9297,0.742 -1.8086,1.504 -3.3477,1.504 -0.25,0 -0.4843,0 -0.6797,-0.039 -2.7421,-0.43 -1.7421,-3.438 -1.7421,-3.438 0,0 -2.4805,-0.41 -2.4805,3.359 0,2.668 2.1328,4.239 4,4.727 2.8398,0.664 5.6523,0.859 6.1797,5.566 0.0312,0.938 -0.125,1.133 -0.125,1.133 0,0 -1.0196,-1.562 -3.5313,-2.754 -2.9258,-1.523 -10.8203,-1.425 -10.6211,-5.949 -0.0625,-1.812 1.9219,-1.629 1.9219,-1.629 0,0 -0.1055,-0.82 -1.4336,-1.035 -0.293,-0.039 -0.6406,-0.059 -1.0586,-0.019 -1.832,0.253 -2.4414,2.187 -2.3086,4.628 0.1055,1.536 -0.9062,3.555 -2.8828,3.254 -0.3515,-0.05 -0.7226,-0.187 -1.1328,-0.39 -1.5078,-0.879 -0.9766,-2.317 -0.9766,-2.317 0,0 -1.707,0.957 -1.4492,2.95 0.2305,1.71 1.3555,2.492 2.9571,3.144 0.2031,0.051 0.3906,0.078 0.582,0.117 2.0508,0.313 3.7812,-0.293 3.7812,-0.293 0,0 -0.5273,1.555 -0.3437,3.106 0.1719,1.332 0.8711,2.672 2.8711,3.043 2.9804,0.562 3.625,-1.438 3.1797,-2.535 -0.168,-0.098 -0.6993,0.683 -1.5469,0.566 -0.125,-0.02 -0.25,-0.059 -0.3906,-0.137 -0.4883,-0.254 -0.793,-0.578 -0.9375,-0.937 -0.5039,-1.184 0.4765,-2.676 0.6484,-2.918 0.6016,-0.805 2.4375,-1.36 4.7266,-0.93 2.6601,0.578 4.5507,2.305 5.4726,3.848 0.4883,0.801 0.6992,1.547 0.6328,2.051 l 1.4493,16.097 c 0,0 0.457,4.137 -2.3633,4.621 -0.3203,0.067 -0.6602,0.075 -0.9961,0.02 -2.3828,-0.375 -4.8633,-3.551 -4.0821,-7.524 0.6016,-3.046 -0.9609,-5.379 -2.4609,-5.722 -1.9101,-0.449 -3.0742,-0.067 -3.7422,1.32 3.3321,0.227 3.1211,2.898 2.0703,3.848 -0.4492,0.41 -1.0976,0.519 -1.8398,0.406 -3.1094,-0.492 -8.0352,-4.773 -8.8281,-7.328 -0.7071,-2.301 1.0117,-1.711 1.7382,-3.653 0.5899,-1.558 -0.7265,-2.792 -0.7265,-2.792 -0.0391,-0.524 -0.1133,-0.973 -0.2031,-1.344 -0.3516,-1.348 -1.0586,-1.797 -1.711,-1.895 -0.5078,-0.078 -0.9883,0.059 -1.2344,0.137 0.8282,0.363 1.0782,1.133 1.1446,1.758 0.0508,0.429 0.0117,0.793 0.0117,0.793 0,0 -0.9297,-0.102 -1.7383,1.148 -0.9414,1.461 0.2188,1.922 -0.8125,3.492 -1.0469,1.582 -3.9492,3.262 -6.2187,3.551 -0.1524,0.02 -0.2891,0.016 -0.4219,-0.004 -0.4492,-0.07 -0.8672,-0.293 -1.5352,-0.402 -0.2031,-0.027 -0.4218,-0.047 -0.6601,-0.055 -1.8047,-0.031 -1.3164,1.051 -2.7735,0.934 -0.7734,-0.16 -1.2109,-0.883 -0.957,-1.938 C 31.793,249.102 31.668,249 31.668,249 c -0.8086,0.547 -1.1446,1.297 -1.1953,2.172 -0.0235,2.328 1.457,3.961 2.8593,4.098 1.6563,0.16 2.4297,-0.875 2.5625,-1.071 0.9063,3.86 -2.1132,2.543 -3.5742,4.41 -0.9765,1.274 -0.5859,1.918 -0.4609,2.379 0.1992,0.703 -1.0117,0.782 -1.9297,0.637 -0.2578,-0.039 -0.5,-0.098 -0.668,-0.164 -0.1797,0.18 0.2891,1.973 2.1875,2.254 0.6485,0.109 1.4805,0.031 2.5313,-0.363 0.9804,0.296 1.9218,-0.184 2.2695,-0.852 0.418,-0.805 0.0742,-1.723 0.1914,-2.711 0.293,-2.562 1.8594,-2.488 2.0977,-2.465 -1.3868,3.664 0.3632,4.75 0.5429,5.317 0.1797,0.582 -0.039,1.351 -0.9531,1.675 -0.1875,0.075 -0.4492,0.235 -0.1445,0.309 0,0 3.5039,0.152 4.0469,-2.141 0,0 1.5078,-0.804 1.5468,-2.695 0.043,-2.363 -1.2383,-2.586 -1.7265,-3.055 0.3593,-2.472 1.8203,-2.875 3.1875,-2.671 1.3437,0.214 2.582,1.007 2.582,1.007 2.3086,0.918 7.1094,3.875 5.8125,6.297 -0.5898,1.11 -1.5625,1.578 -2.6328,1.422 -0.5,-0.086 -1.0313,-0.305 -1.5391,-0.672 -1.3906,-1.32 -0.7031,-3.058 -0.7031,-3.058 -2.1094,-0.559 -3.0977,3.101 -1.7773,4.656 0.9179,1.09 2.0507,1.523 3.2578,1.734 1.3906,0.246 2.8789,0.192 4.2929,0.473 1.6875,0.344 2.9766,1.398 4.2266,3.59 0.9219,1.527 0.9531,3.633 0.1523,5.312 -0.8203,1.84 -2.5,4.145 -4.8789,4.571 -0.4531,-3.969 -2.6406,-7.106 -5.3203,-9.008 -0.6601,-0.461 -1.5312,-0.719 -2.1094,-0.809 -0.4687,-0.07 -0.7734,-0.035 -0.6601,0.094 3.4922,4.082 2.5898,8.363 2.4883,8.777 -0.2461,-0.476 -2.9805,-5.48 -7.8477,-7.621 -0.4726,-0.203 -0.9648,-0.34 -1.4609,-0.414 -2.625,-0.402 -5.2422,0.813 -4.1992,0.945 1.7382,0.239 8.7109,4.286 6.6093,12.883 -0.2734,-0.488 -3.3398,-5.965 -7.1211,-8.558 -1.6093,-1.106 -3.289,-1.661 -4.7812,-1.891 -2.9805,-0.465 -5.2383,0.367 -4.8203,0.758 0,0 8.2226,3.883 8.332,7.597 -0.2695,-0.214 -2.5,-1.933 -5.0898,-2.328 -0.3516,-0.054 -0.7071,-0.082 -1.0586,-0.082 -7.0117,0 -7.0117,5.032 -7.0117,5.032 0.4882,-0.04 7.039,-0.473 12.3906,10.886 0,0 -3.4922,-1.238 -7.5078,-1.672 -2.3828,-0.269 -3.3828,1.235 -3.1016,1.211 0.418,-0.14 0.8984,-0.179 1.4883,-0.086 1.3203,0.204 3.2109,1.043 5.5937,2.871 -0.6406,0.282 -9.2343,4.09 -5.914,9.989 0,0 2.3828,-2.071 5.2929,-2.332 2.1485,-0.188 5.8868,0.222 6.7969,2.371 0,0 -4.6289,0.273 -9.1719,3.125 -2.6757,1.676 -3.7304,5.648 -2.7461,4.492 1,-1.176 2.0274,-1.523 3.5665,-1.926 1.2031,-0.304 2.0234,-0.008 2.0234,-0.008 0,0 -6.6719,6.313 -2.4531,11.215 0,0 2.25,-6.289 7.7851,-6.316 0,0 -2.8047,2.605 -3.3633,5.723 -0.3867,2.148 -0.2304,4.988 0.1602,4.167 0.2734,-0.554 0.8672,-1.562 1.2578,-2.292 0.6953,-1.243 2.1719,-2.907 3.3516,-3.922 0,0 -0.8399,3.285 0.3008,6.273 0.1679,0.465 1.7187,2.981 1.8164,2.352 0,0 0.0351,-1.981 0.1328,-2.61 0.3437,-2.113 1.1523,-4.769 5.1523,-8.843 5.0664,-5.168 10.5703,-5.129 10.6211,-8.364 -0.2109,-3.847 -4.9531,-3.355 -8.0625,-3.082 -1.082,0 -0.9297,-1.644 -0.0391,-2.832 2.586,-3.449 13.5665,-4.293 17.0196,1.324 1.207,1.969 1.539,4.332 0.7187,6.524 -1.039,2.922 -3.3984,3.008 -7.8789,3.984 -3.1797,0.684 -2.3203,2.121 -1.8515,2.121 0,0 0.9726,-0.558 1.914,-0.562 2.3477,-0.012 0.918,3.015 0.668,2.976 -0.6016,-0.089 -3.1406,-1.113 -5.332,-1.297 -2.7696,-0.246 -6.1094,0.86 -6.1094,2.793 0,2.325 2.9101,2.969 2.7812,2.364 -0.0312,-0.149 -1.75,-3.285 3.3789,-3.125 1.6211,0.054 4.8907,0.242 4.8829,0.379 -0.1055,0.871 -1.625,2.097 -2.7813,2.097 -0.8633,0 -1.6484,-0.226 -3.2227,-0.066 -0.5585,1.387 0.9375,2.785 1.9727,3.293 1.0273,0.523 1.7695,0.277 2.2188,0.445 0.6015,0.207 0.9609,2.098 4.3867,2.149 1.8047,0.023 4.4218,-1.223 5.6211,-1.223 1.2031,0 3.3398,0.781 3.5586,0.394 0.2109,-0.394 -0.8594,-1.628 -0.6368,-2.703 -0.1093,-2.504 4.2266,-12.437 8.8086,-13.371 4.5782,0.934 8.9297,10.867 8.8243,13.371 0.207,1.075 -0.8516,2.309 -0.6407,2.703 0.2071,0.387 2.3555,-0.394 3.5586,-0.394 1.2031,0 3.8203,1.246 5.6211,1.223 3.4258,-0.051 3.7891,-1.942 4.3906,-2.149 0.4493,-0.168 1.1797,0.078 2.211,-0.445 1.0236,-0.508 2.5276,-1.906 1.9766,-3.293 -1.5665,-0.16 -2.3672,0.066 -3.2266,0.066 -1.1641,0 -2.6719,-1.226 -2.7735,-2.097 -0.0195,-0.137 3.2618,-0.325 4.8831,-0.379 5.125,-0.16 3.406,2.976 3.367,3.125 -0.133,0.605 2.789,-0.039 2.789,-2.364 0,-1.933 -3.34,-3.039 -6.117,-2.793 -2.1838,0.184 -4.7228,1.208 -5.3244,1.297 -0.25,0.039 -1.6875,-2.988 0.6758,-2.976 0.9375,0.004 1.9101,0.562 1.9101,0.562 0.4649,0 1.3282,-1.437 -1.8515,-2.121 -4.4844,-0.976 -6.8399,-1.062 -7.8907,-3.984 -0.8125,-2.192 -0.4804,-4.555 0.7266,-6.524 3.4414,-5.617 14.4341,-4.773 17.0191,-1.324 0.891,1.188 1.043,2.832 -0.046,2.832 -3.102,-0.273 -7.8403,-0.765 -8.0512,3.082 0.0469,3.235 5.5512,3.196 10.6212,8.364 3.996,4.074 4.808,6.73 5.148,8.843 0.098,0.629 0.133,2.61 0.133,2.61 0.098,0.629 1.645,-1.887 1.817,-2.352 1.14,-2.988 0.3,-6.273 0.3,-6.273 1.18,1.015 2.664,2.679 3.352,3.922 0.391,0.73 0.992,1.738 1.25,2.292 0.391,0.821 0.551,-2.019 0.172,-4.167 -0.563,-3.118 -3.36,-5.723 -3.36,-5.723 5.528,0.027 7.77,6.316 7.77,6.316 4.219,-4.902 -2.453,-11.215 -2.453,-11.215 0,0 0.82,-0.296 2.031,0.008 1.539,0.403 2.566,0.75 3.559,1.926 0.992,1.156 -0.059,-2.816 -2.739,-4.492 -4.543,-2.852 -9.172,-3.125 -9.172,-3.125 0.903,-2.149 4.653,-2.559 6.79,-2.371 2.918,0.261 5.3,2.332 5.3,2.332 3.313,-5.899 -5.281,-9.707 -5.91,-9.989 2.383,-1.828 4.274,-2.667 5.59,-2.871 0.59,-0.093 1.07,-0.054 1.488,0.086 0.285,0.024 -0.718,-1.48 -3.109,-1.211 -4.008,0.434 -7.5,1.672 -7.5,1.672 5.351,-11.359 11.891,-10.926 12.391,-10.886 0,0 0,-5.032 -7.008,-5.032 -0.36,0 -0.711,0.028 -1.063,0.082 -2.586,0.395 -4.816,2.114 -5.086,2.328 0.106,-3.714 8.321,-7.597 8.321,-7.597 0.429,-0.391 -1.84,-1.223 -4.813,-0.758 -1.504,0.23 -3.172,0.785 -4.777,1.891 -3.793,2.593 -6.864,8.07 -7.133,8.558 -2.094,-8.597 4.883,-12.644 6.617,-12.883 1.031,-0.132 -1.586,-1.347 -4.207,-0.945 -0.488,0.074 -0.98,0.211 -1.449,0.414 -4.879,2.141 -7.598,7.145 -7.852,7.621 -0.097,-0.414 -1.007,-4.695 2.489,-8.777 0.113,-0.129 -0.192,-0.164 -0.661,-0.094 -0.589,0.09 -1.449,0.348 -2.109,0.809 -2.6796,1.902 -4.8671,5.039 -5.3281,9.008 -2.3711,-0.426 -4.0507,-2.731 -4.8711,-4.571 -0.8007,-1.679 -0.7695,-3.785 0.1407,-5.312 1.2617,-2.192 2.5508,-3.246 4.2422,-3.59 1.4101,-0.281 2.8984,-0.227 4.2813,-0.473 1.219,-0.211 2.348,-0.644 3.266,-1.734 1.324,-1.555 0.324,-5.215 -1.79,-4.656 0,0 0.7,1.738 -0.691,3.058 -0.508,0.367 -1.039,0.586 -1.539,0.672 -1.0703,0.156 -2.0508,-0.312 -2.6406,-1.422 -1.2891,-2.422 3.5116,-5.379 5.8126,-6.297 0,0 1.25,-0.793 2.59,-1.007 1.359,-0.204 2.828,0.199 3.179,2.671 -0.488,0.469 -1.773,0.692 -1.726,3.055 0.039,1.891 1.555,2.695 1.555,2.695 0.543,2.293 4.054,2.141 4.054,2.141 0.297,-0.074 0.039,-0.234 -0.164,-0.309 -0.902,-0.324 -1.121,-1.093 -0.941,-1.675 0.172,-0.567 1.933,-1.653 0.543,-5.317 0.238,-0.023 1.812,-0.097 2.097,2.465 0.11,0.988 -0.226,1.906 0.192,2.711 0.351,0.668 1.281,1.148 2.269,0.852 1.043,0.394 1.871,0.472 2.532,0.363 1.898,-0.281 2.359,-2.074 2.359,-2.074 0,0 0.027,-0.231 -0.184,-0.18 -0.168,0.066 -0.398,0.125 -0.656,0.164 -0.918,0.145 -2.129,0.066 -1.93,-0.637 0.133,-0.461 0.52,-1.105 -0.468,-2.379 -1.45,-1.867 -4.473,-0.55 -3.559,-4.41 0.117,0.196 0.887,1.231 2.559,1.071 1.398,-0.137 2.879,-1.77 2.859,-4.098 -0.055,-0.875 -0.391,-1.625 -1.199,-2.172 0,0 -0.133,0.102 -0.094,0.238 0.266,1.055 -0.18,1.778 -0.945,1.938 -1.461,0.117 -0.985,-0.965 -2.77,-0.934 -0.246,0.008 -0.465,0.028 -0.664,0.055 -0.672,0.109 -1.097,0.332 -1.539,0.402 -0.133,0.02 -0.269,0.024 -0.422,0.004 -2.269,-0.289 -5.168,-1.969 -6.219,-3.551 -1.039,-1.57 0.133,-2.031 -0.82,-3.492 -0.808,-1.25 -1.738,-1.148 -1.738,-1.148 0,0 -0.039,-0.364 0.012,-0.793 0.015,-0.176 0.054,-0.352 0.105,-0.528 z m -5.996,-2.253 c 1.4258,0.417 2.977,0.984 4.59,1.648 -0.192,0.273 -0.363,0.644 -0.492,1.133 -0.098,0.371 -0.168,0.82 -0.203,1.344 0,0 -1.317,1.234 -0.727,2.792 0.727,1.942 2.453,1.352 1.738,3.653 -0.789,2.555 -5.7185,6.836 -8.8279,7.328 -0.75,0.113 -1.3906,0.004 -1.8398,-0.406 -1.0508,-0.95 -1.2579,-3.621 2.0703,-3.848 -0.668,-1.387 -1.8321,-1.769 -3.7422,-1.32 -1.5078,0.343 -3.0703,2.676 -2.4688,5.722 0.7891,3.973 -1.6875,7.149 -4.0781,7.524 -0.332,0.055 -0.6719,0.047 -0.9883,-0.02 -2.8242,-0.484 -2.3633,-4.621 -2.3633,-4.621 l 1.4493,-16.097 c -0.0782,-0.504 0.1406,-1.25 0.6211,-2.051 0.9296,-1.543 2.8125,-3.27 5.4804,-3.848 2.2891,-0.43 4.1328,0.125 4.7266,0.93 0.164,0.242 1.1523,1.734 0.6562,2.918 -0.164,0.359 -0.4531,0.683 -0.9414,0.937 -0.1445,0.078 -0.2695,0.117 -0.3945,0.137 -0.8477,0.117 -1.3789,-0.664 -1.5469,-0.566 -0.4375,1.097 0.2031,3.097 3.168,2.535 2.0078,-0.371 2.7109,-1.711 2.8711,-3.043 0.2031,-1.551 -0.3281,-3.106 -0.3281,-3.106 0,0 0.6289,0.215 1.5703,0.325 z m -8.3008,-5.743 c -0.0274,0.235 -0.0625,0.711 0.0195,1.278 -2.1836,0.625 -4.5703,0.976 -5.914,1.679 -2.5079,1.192 -3.5235,2.754 -3.5235,2.754 0,0 -0.164,-0.195 -0.1328,-1.133 0.5274,-4.707 3.3399,-4.902 6.168,-5.566 1.25,-0.332 2.6133,-1.133 3.3828,-2.422 z M 190.934,142.617 c -0.442,-0.918 -0.422,-2.637 0.218,-3.496 2.348,-3.125 11.598,-4.101 15.868,-0.078 -5.532,0.859 -10.743,2.285 -16.086,3.574 z m 25.746,8.653 c 1.383,-1.856 2.972,-3.321 4.59,-3.633 4.582,0.918 8.929,10.859 8.824,13.359 0.219,1.074 -0.852,2.305 -0.641,2.715 0.219,0.371 2.36,-0.41 3.559,-0.41 1.199,0 3.82,1.25 5.621,1.23 3.43,-0.058 3.789,-1.953 4.39,-2.148 0.45,-0.176 1.188,0.078 2.215,-0.449 1.032,-0.508 2.532,-1.914 1.973,-3.282 -1.57,-0.175 -2.363,0.059 -3.223,0.059 -1.156,0 -2.675,-1.231 -2.777,-2.09 -0.012,-0.137 3.262,-0.332 4.879,-0.391 5.133,-0.156 3.414,2.969 3.383,3.125 -0.133,0.606 2.777,-0.039 2.777,-2.363 0,-1.933 -3.34,-3.047 -6.105,-2.793 -2.196,0.196 -4.735,1.211 -5.332,1.289 -0.25,0.059 -1.68,-2.988 0.667,-2.968 0.942,0 1.915,0.566 1.915,0.566 0.468,0 1.328,-1.445 -1.852,-2.129 -4.48,-0.977 -6.84,-1.055 -7.883,-3.984 -0.816,-2.188 -0.492,-4.551 0.719,-6.524 3.453,-5.605 14.434,-4.765 17.023,-1.328 0.887,1.192 1.039,2.852 -0.039,2.852 -3.109,-0.274 -7.851,-0.782 -8.062,3.066 0.051,3.242 5.551,3.203 10.621,8.359 4,4.082 4.808,6.739 5.148,8.848 0.102,0.645 0.129,2.617 0.129,2.617 0.102,0.625 1.653,-1.894 1.821,-2.343 1.144,-2.989 0.304,-6.29 0.304,-6.29 1.176,1.016 2.656,2.676 3.348,3.926 0.391,0.723 0.988,1.739 1.262,2.285 0.39,0.821 0.546,-2.011 0.156,-4.16 -0.559,-3.105 -3.36,-5.722 -3.36,-5.722 5.532,0.019 7.782,6.308 7.782,6.308 4.218,-4.902 -2.449,-11.211 -2.449,-11.211 0,0 0.82,-0.293 2.019,0.02 1.539,0.39 2.57,0.742 3.57,1.914 0.977,1.152 -0.074,-2.813 -2.75,-4.492 -4.539,-2.852 -9.168,-3.125 -9.168,-3.125 0.907,-2.149 4.649,-2.559 6.797,-2.364 2.91,0.254 5.293,2.325 5.293,2.325 3.321,-5.899 -5.273,-9.707 -5.914,-9.981 2.383,-1.836 4.274,-2.676 5.59,-2.871 0.594,-0.098 1.07,-0.059 1.488,0.078 0.282,0.02 -0.715,-1.465 -3.097,-1.211 -4.02,0.449 -7.512,1.68 -7.512,1.68 5.351,-11.367 11.898,-10.938 12.394,-10.879 0,0 0,-5.039 -7.011,-5.039 -0.352,0 -0.707,0.019 -1.063,0.078 -2.59,0.391 -4.816,2.109 -5.09,2.324 0.114,-3.711 8.329,-7.597 8.329,-7.597 0.421,-0.391 -1.836,-1.211 -4.821,-0.762 -1.488,0.234 -3.168,0.801 -4.777,1.894 -3.781,2.598 -6.848,8.067 -7.121,8.575 -2.098,-8.614 4.875,-12.657 6.613,-12.891 1.039,-0.137 -1.582,-1.348 -4.199,-0.937 -0.504,0.058 -0.992,0.195 -1.461,0.41 -4.871,2.129 -7.602,7.129 -7.852,7.617 -0.097,-0.41 -1,-4.707 2.493,-8.789 0.109,-0.117 -0.192,-0.156 -0.661,-0.078 -0.582,0.078 -1.453,0.351 -2.109,0.8 -2.684,1.915 -4.875,5.04 -5.324,9.004 -2.375,-0.429 -4.059,-2.734 -4.875,-4.57 -0.805,-1.68 -0.774,-3.789 0.148,-5.312 1.25,-2.188 2.539,-3.243 4.231,-3.5942 1.422,-0.2734 2.91,-0.2148 4.285,-0.4687 1.211,-0.1953 2.344,-0.6446 3.262,-1.7383 1.32,-1.543 0.332,-5.2149 -1.778,-4.6485 0,0 0.692,1.7383 -0.703,3.0665 -0.508,0.3515 -1.039,0.5859 -1.535,0.664 -1.07,0.1563 -2.043,-0.3125 -2.633,-1.4258 -1.301,-2.4218 3.5,-5.3711 5.809,-6.289 0,0 1.242,-0.8008 2.578,-1.0157 1.375,-0.1953 2.832,0.2149 3.195,2.6758 -0.492,0.4688 -1.773,0.6836 -1.734,3.0469 0.043,1.8945 1.551,2.7148 1.551,2.7148 0.543,2.2852 4.05,2.129 4.05,2.129 0.301,-0.0782 0.039,-0.2344 -0.148,-0.3125 -0.91,-0.3125 -1.133,-1.0938 -0.949,-1.6602 0.179,-0.5859 1.925,-1.6602 0.539,-5.332 0.242,-0.0196 1.808,-0.0977 2.101,2.4609 0.117,0.9961 -0.23,1.9141 0.192,2.7148 0.343,0.6641 1.289,1.1524 2.269,0.8594 1.047,0.3906 1.875,0.4688 2.528,0.3711 1.902,-0.293 2.371,-2.0898 2.371,-2.0898 0,0 0.027,-0.2344 -0.184,-0.1758 -0.172,0.0781 -0.41,0.1172 -0.668,0.1758 -0.918,0.1367 -2.129,0.0586 -1.93,-0.6446 0.129,-0.4687 0.52,-1.1132 -0.457,-2.3828 -1.464,-1.8554 -4.484,-0.5468 -3.574,-4.3945 0.129,0.1758 0.903,1.2109 2.563,1.0547 1.394,-0.1367 2.875,-1.7774 2.867,-4.1016 -0.059,-0.8789 -0.402,-1.6211 -1.207,-2.1679 0,0 -0.121,0.0976 -0.082,0.2539 0.254,1.0351 -0.192,1.7578 -0.957,1.914 -1.461,0.1367 -0.973,-0.957 -2.774,-0.9179 -0.242,0 -0.461,0.0195 -0.66,0.0585 -0.668,0.0977 -1.09,0.3321 -1.539,0.3907 -0.133,0.0195 -0.273,0.0195 -0.418,0 -2.269,-0.293 -5.172,-1.9727 -6.223,-3.5352 -1.031,-1.582 0.129,-2.0312 -0.808,-3.4961 -0.813,-1.25 -1.738,-1.1523 -1.738,-1.1523 0,0 -0.039,-0.3516 0.007,-0.8008 0.071,-0.625 0.321,-1.3867 1.122,-1.5625 0,0 0.246,-0.1172 0.027,-0.1953 -0.25,-0.0781 -0.727,-0.2149 -1.238,-0.1172 -0.653,0.0781 -1.348,0.5273 -1.711,1.875 -0.086,0.3711 -0.161,0.8203 -0.2,1.3477 0,0 -1.32,1.2304 -0.726,2.7929 0.726,1.9336 2.445,1.3477 1.734,3.6524 -0.789,2.5586 -5.715,6.8359 -8.828,7.3242 -0.738,0.1172 -1.391,0 -1.84,-0.4102 -1.051,-0.9375 -1.258,-3.6133 2.071,-3.8281 -0.672,-1.4062 -1.832,-1.7773 -3.739,-1.3281 -1.504,0.332 -3.062,2.6758 -2.461,5.7226 0.782,3.9649 -1.699,7.1485 -4.082,7.5196 -0.34,0.0586 -0.679,0.039 -0.996,-0.0196 -2.824,-0.4882 -2.363,-4.6093 -2.363,-4.6093 l 1.449,-16.1133 c -0.066,-0.5078 0.141,-1.25 0.629,-2.0508 0.926,-1.543 2.813,-3.2617 5.469,-3.8477 2.293,-0.4296 4.133,0.1368 4.73,0.9375 0.172,0.2344 1.157,1.7383 0.653,2.9102 -0.149,0.3516 -0.45,0.6836 -0.938,0.957 -0.14,0.0586 -0.273,0.0977 -0.39,0.1172 -0.852,0.1172 -1.383,-0.664 -1.555,-0.5664 -0.438,1.0938 0.203,3.1055 3.183,2.5391 1.997,-0.3711 2.704,-1.6992 2.872,-3.0469 0.187,-1.543 -0.34,-3.1055 -0.34,-3.1055 0,0 1.726,0.6055 3.777,0.293 0.191,-0.0195 0.383,-0.0586 0.582,-0.0977 1.598,-0.664 2.731,-1.4453 2.957,-3.164 0.262,-1.9922 -1.449,-2.9492 -1.449,-2.9492 0,0 0.531,1.4453 -0.981,2.3242 -0.41,0.2148 -0.777,0.332 -1.129,0.3906 -1.98,0.293 -2.988,-1.7383 -2.878,-3.2617 0.128,-2.4414 -0.481,-4.375 -2.313,-4.6289 -0.418,-0.0391 -0.769,-0.0196 -1.059,0.039 -1.328,0.1954 -1.429,1.0157 -1.429,1.0157 0,0 1.976,-0.1758 1.918,1.6406 0.203,4.5117 -7.692,4.4141 -10.617,5.9375 -2.512,1.1914 -3.532,2.7539 -3.532,2.7539 0,0 -0.156,-0.1953 -0.129,-1.1328 0.528,-4.707 3.34,-4.9024 6.176,-5.5469 1.883,-0.5078 4.004,-2.0703 4.004,-4.7461 0,-3.7695 -2.476,-3.3594 -2.476,-3.3594 0,0 1,3.0079 -1.747,3.4375 -0.199,0.0391 -0.429,0.0586 -0.675,0.0586 -1.539,0 -2.422,-0.7812 -3.352,-1.5234 -1.449,-1.1719 -5.742,-6.2109 -6.594,-7.0313 -0.839,0.8204 -5.144,5.8594 -6.593,7.0313 -0.934,0.7422 -1.801,1.5234 -3.352,1.5234 -0.254,0 -0.473,-0.0195 -0.684,-0.0586 -2.726,-0.4296 -1.738,-3.4375 -1.738,-3.4375 0,0 -2.48,-0.4101 -2.48,3.3594 0,2.6758 2.129,4.2383 4.008,4.7461 2.832,0.6445 5.64,0.8399 6.171,5.5469 0.032,0.9375 -0.129,1.1328 -0.129,1.1328 0,0 -1.019,-1.5625 -3.531,-2.7539 -2.922,-1.5234 -10.82,-1.4258 -10.621,-5.9375 -0.058,-1.8164 1.926,-1.6406 1.926,-1.6406 0,0 -0.106,-0.8203 -1.434,-1.0157 -0.293,-0.0586 -0.636,-0.0781 -1.058,-0.039 -1.828,0.2539 -2.442,2.1875 -2.309,4.6289 0.11,1.5234 -0.902,3.5547 -2.883,3.2617 -0.347,-0.0586 -0.718,-0.1758 -1.121,-0.3906 -1.519,-0.8789 -0.984,-2.3242 -0.984,-2.3242 0,0 -1.715,0.957 -1.453,2.9492 0.23,1.7187 1.367,2.5 2.961,3.164 0.199,0.0391 0.39,0.0782 0.582,0.0977 2.054,0.3125 3.777,-0.293 3.777,-0.293 0,0 -0.531,1.5625 -0.332,3.1055 0.16,1.3477 0.859,2.6758 2.871,3.0469 2.969,0.5664 3.609,-1.4453 3.168,-2.5391 -0.172,-0.0976 -0.695,0.6836 -1.547,0.5664 -0.121,-0.0195 -0.25,-0.0586 -0.39,-0.1172 -0.493,-0.2734 -0.782,-0.6054 -0.942,-0.957 -0.5,-1.1719 0.492,-2.6758 0.653,-2.9102 0.597,-0.8007 2.437,-1.3671 4.726,-0.9375 2.672,0.586 4.551,2.3047 5.481,3.8477 0.484,0.8008 0.703,1.543 0.625,2.0508 l 1.445,16.1133 c 0,0 0.465,4.1211 -2.36,4.6093 -0.316,0.0586 -0.66,0.0782 -0.992,0.0196 -2.386,-0.3711 -4.867,-3.5547 -4.078,-7.5196 0.602,-3.0468 -0.961,-5.3906 -2.469,-5.7226 -1.91,-0.4492 -3.07,-0.0781 -3.742,1.3281 3.332,0.2148 3.121,2.8906 2.071,3.8281 -0.45,0.4102 -1.086,0.5274 -1.84,0.4102 -3.11,-0.4883 -8.035,-4.7656 -8.828,-7.3242 -0.711,-2.3047 1.007,-1.7188 1.738,-3.6524 0.594,-1.5625 -0.731,-2.7929 -0.731,-2.7929 -0.031,-0.5274 -0.097,-0.9766 -0.195,-1.3477 -0.351,-1.3477 -1.066,-1.7969 -1.703,-1.875 -0.52,-0.0977 -0.996,0.0391 -1.25,0.1172 0.828,0.3711 1.082,1.1328 1.16,1.7578 0.051,0.4492 0.012,0.8008 0.012,0.8008 0,0 -0.93,-0.0977 -1.738,1.1523 -0.954,1.4649 0.218,1.9141 -0.825,3.4961 -1.047,1.5625 -3.949,3.2422 -6.218,3.5352 -0.153,0.0195 -0.289,0.0195 -0.418,0 -0.442,-0.0586 -0.871,-0.293 -1.539,-0.3907 -0.207,-0.039 -0.426,-0.0585 -0.665,-0.0585 -1.789,-0.0391 -1.308,1.0546 -2.769,0.9179 -0.773,-0.1562 -1.211,-0.8789 -0.953,-1.914 0.047,-0.1563 -0.086,-0.2539 -0.086,-0.2539 -0.813,0.5468 -1.152,1.289 -1.203,2.1679 -0.02,2.3242 1.461,3.9649 2.863,4.1016 1.668,0.1562 2.441,-0.8789 2.559,-1.0547 0.914,3.8477 -2.11,2.5391 -3.563,4.3945 -0.988,1.2696 -0.598,1.9141 -0.469,2.3828 0.204,0.7032 -1.007,0.7813 -1.925,0.6446 -0.266,-0.0586 -0.496,-0.0977 -0.664,-0.1758 -0.176,0.1758 0.281,1.9726 2.179,2.2656 0.66,0.0977 1.492,0.0195 2.531,-0.3711 0.993,0.293 1.918,-0.1953 2.27,-0.8594 0.422,-0.8007 0.078,-1.7187 0.191,-2.7148 0.289,-2.5586 1.872,-2.4805 2.098,-2.4609 -1.391,3.6718 0.371,4.7461 0.543,5.332 0.176,0.5664 -0.043,1.3477 -0.941,1.6602 -0.2,0.0781 -0.457,0.2343 -0.161,0.3125 0,0 3.508,0.1562 4.051,-2.129 0,0 1.52,-0.8203 1.559,-2.7148 0.039,-2.3633 -1.238,-2.5781 -1.731,-3.0469 0.356,-2.4609 1.825,-2.8711 3.18,-2.6758 1.344,0.2149 2.594,1.0157 2.594,1.0157 2.301,0.9179 7.097,3.8672 5.805,6.289 -0.586,1.1133 -1.567,1.5821 -2.637,1.4258 -0.496,-0.0781 -1.031,-0.3125 -1.543,-0.664 -1.387,-1.3282 -0.688,-3.0665 -0.688,-3.0665 -2.109,-0.5664 -3.109,3.1055 -1.793,4.6485 0.922,1.0937 2.051,1.543 3.274,1.7383 1.383,0.2539 2.871,0.1953 4.281,0.4687 1.688,0.3512 2.981,1.4062 4.238,3.5942 0.914,1.523 0.942,3.632 0.141,5.312 -0.82,1.836 -2.5,4.141 -4.871,4.57 -0.461,-3.964 -2.649,-7.089 -5.328,-9.004 -0.66,-0.449 -1.52,-0.722 -2.11,-0.8 -0.472,-0.078 -0.769,-0.039 -0.66,0.078 3.496,4.082 2.59,8.379 2.492,8.789 -0.254,-0.488 -2.972,-5.488 -7.851,-7.617 -0.469,-0.215 -0.961,-0.352 -1.449,-0.41 -2.625,-0.411 -5.243,0.8 -4.211,0.937 1.738,0.234 8.707,4.277 6.617,12.891 -0.27,-0.508 -3.34,-5.977 -7.129,-8.575 -1.613,-1.093 -3.281,-1.66 -4.781,-1.894 -2.969,-0.449 -5.239,0.371 -4.809,0.762 0,0 8.211,3.886 8.32,7.597 -0.269,-0.215 -2.5,-1.933 -5.089,-2.324 -0.352,-0.059 -0.704,-0.078 -1.059,-0.078 -7.012,0 -7.012,5.039 -7.012,5.039 0.496,-0.059 7.039,-0.488 12.387,10.879 0,0 -3.484,-1.231 -7.5,-1.68 -2.387,-0.254 -3.387,1.231 -3.105,1.211 0.421,-0.137 0.898,-0.176 1.492,-0.078 1.316,0.195 3.207,1.035 5.59,2.871 -0.637,0.274 -9.223,4.082 -5.915,9.981 0,0 2.379,-2.071 5.297,-2.325 2.145,-0.195 5.895,0.215 6.793,2.364 0,0 -4.629,0.273 -9.172,3.125 -0.14,0.097 -0.277,0.195 -0.41,0.293 -2.066,0 -4.199,-0.098 -6.429,-0.332 -1.469,-5.762 -6.239,-9.961 -11.887,-9.961 -5.633,0 -10.383,4.16 -11.871,9.882 -3.668,0.645 -7.199,0.723 -10.653,0.45 L 49.9023,59.707 C 57.6719,52.4414 66.1719,46.2695 75.0469,41.1328 L 150.313,121.289 V 78.8477 l -47.27,-50.3321 c 17.187,-5.8203 34.52,-8.4375 49.867,-8.4375 58.699,0 146.371,38.4571 144.371,146.0739 v 69.219 L 259.672,195.313 H 219.82 l 77.461,82.492 v 45.343 L 216.07,236.66 c 0.371,-0.312 0.59,-0.652 0.59,-1.035 z m -8.758,-25.938 h 26.723 v 10.723 H 207.91 Z m 13.355,-20.957 c 12.012,0 13.063,11.328 13.063,11.328 h -26.211 c 0,0 1.133,-11.328 13.148,-11.328 z M 61.918,291.352 h 26.7265 v 10.742 H 61.9102 Z m 13.3593,-20.95 c 12.0118,0 13.0625,11.34 13.0625,11.34 H 62.1289 c 0,0 1.1328,-11.34 13.1484,-11.34 z M 147.359,146.875 c 0,-3.184 2.582,-5.762 5.75,-5.762 3.18,0 5.754,2.578 5.754,5.762 0,3.164 -2.574,5.742 -5.754,5.742 -3.168,0 -5.75,-2.578 -5.75,-5.742 z m -54.2106,86.563 v -88.125 c 0,0 0.9727,-1.172 6.8516,0.429 6.793,1.856 15.199,10.488 26.973,13.067 8.84,1.914 20.757,-0.86 23.539,-2.793 v 88.293 c 0,0 -5.34,5.238 -14.121,5.238 -8.571,0 -23.024,-7.699 -28.578,-10.484 -4.844,-2.422 -9.9302,-4.247 -13.645,-4.61 -1.1172,-0.098 -1.0196,-1.015 -1.0196,-1.015 z M 170.41,159.023 c 15.313,0 23.281,-9.492 28.473,-11.562 12.09,-4.824 14.121,-2.363 14.121,-2.363 v 88.613 c 0,0.859 -1.285,0.859 -1.285,0.859 0,0 -11.785,1.809 -15.824,4.278 -3.864,2.351 -18.204,10.918 -28.692,10.918 -10.523,0 -12.414,-4.496 -12.414,-4.496 v -89.469 c 0,0 4.922,3.222 15.621,3.222 v 0"
         style="fill:#cf1e25;fill-opacity:1;fill-rule:nonzero;stroke:none"
         id="path67" />
    </g>
  </g>
</svg>
