<?xml version="1.0" encoding="UTF-8" standalone="no"?>
<!-- Created with Inkscape (http://www.inkscape.org/) -->

<svg
   version="1.1"
   id="svg18"
   width="133.78159"
   height="118.54453"
   viewBox="0 0 133.78159 118.54453"
   xmlns="http://www.w3.org/2000/svg"
   xmlns:svg="http://www.w3.org/2000/svg">
  <defs
     id="defs22" />
  <g
     id="g26"
     transform="matrix(1.3333333,0,0,-1.3333333,2.5946386e-4,159.68666)">
    <g
       id="g28"
       transform="scale(0.1)"
       style="display:inline">
      <path
         d="M 72.6602,523.004 H 72.3398 C 68.6289,512.191 58.457,505.09 42.1523,505.09 c -15.9843,0 -25.6679,7.258 -25.6679,22.277 v 37.774 c 0,10.82 -0.8125,12.277 -7.26565,12.277 H 3.24609 v 8.387 c 8.23441,0 22.59771,0.965 32.92971,1.945 v -55.863 c 0,-9.532 5.168,-14.207 14.3711,-14.207 13.7226,0 19.6914,8.718 19.6914,25.34 v 22.121 c 0,10.82 -0.8047,12.277 -7.2617,12.277 h -5.9727 v 8.387 c 8.2344,0 22.6016,0.965 32.9336,1.945 v -61.996 c 0,-7.43 0.8047,-10.176 9.043,-10.176 h 4.1955 v -7.906 H 72.6602 v 15.332"
         style="fill:#cf1e25;fill-opacity:1;fill-rule:nonzero;stroke:none"
         id="path30" />
      <path
         d="m 111.773,585.805 c 8.231,0 22.598,0.965 30.508,1.945 v -17.922 h 0.321 c 5.496,13.074 14.695,18.563 27.769,18.563 15.82,0 28.09,-7.11 28.09,-24.539 v -38.098 c 0,-7.43 0.809,-10.176 9.043,-10.176 h 4.195 v -7.906 h -44.234 v 7.906 h 2.262 c 8.234,0 9.039,2.746 9.039,10.176 v 33.41 c 0,11.465 -5.489,16.633 -14.203,16.633 -11.79,0 -19.86,-8.391 -19.86,-23.567 v -26.476 c 0,-7.43 0.809,-10.176 9.043,-10.176 h 2.262 v -7.906 h -45.207 v 7.906 h 5.168 c 8.23,0 9.043,2.746 9.043,10.176 v 39.387 c 0,10.82 -0.813,12.277 -7.27,12.277 h -5.969 v 8.387"
         style="fill:#cf1e25;fill-opacity:1;fill-rule:nonzero;stroke:none"
         id="path32" />
      <path
         d="m 243.113,625.52 c 7.59,0 11.789,-5.165 11.789,-12.11 0,-6.941 -4.199,-12.109 -11.789,-12.109 -7.586,0 -11.781,5.168 -11.781,12.109 0,6.945 4.195,12.11 11.781,12.11 z m -22.758,-39.715 c 8.235,0 22.598,0.965 32.93,1.945 v -61.996 c 0,-7.43 0.813,-10.176 9.043,-10.176 h 4.195 v -7.906 h -47.136 v 7.906 h 5.164 c 8.23,0 9.043,2.746 9.043,10.176 v 39.387 c 0,10.82 -0.813,12.277 -7.266,12.277 h -5.973 v 8.387"
         style="fill:#cf1e25;fill-opacity:1;fill-rule:nonzero;stroke:none"
         id="path34" />
      <path
         d="m 321.113,585.805 h 34.223 v -7.91 h -2.098 c -3.39,0 -4.843,-1.29 -6.457,-5.489 l -25.023,-65.703 h -19.047 l -25.023,64.891 c -2.102,5.332 -3.071,6.301 -6.625,6.301 h -1.93 v 7.91 h 40.355 v -7.91 h -5.328 c -4.844,0 -6.457,-1.133 -6.457,-2.903 0,-2.097 0.969,-4.043 1.453,-5.652 l 15.496,-45.527 h 0.325 l 16.793,47.949 c 0.48,1.133 0.804,2.742 0.804,4.035 0,1.129 -0.969,2.098 -4.683,2.098 h -6.778 v 7.91"
         style="fill:#cf1e25;fill-opacity:1;fill-rule:nonzero;stroke:none"
         id="path36" />
      <path
         d="m 416.07,554.809 c 0,13.242 -3.39,24.695 -17.277,24.695 -13.883,0 -17.918,-11.129 -17.918,-24.695 z m -35.195,-9.368 c 0,-10.976 0.16,-30.996 20.02,-30.996 11.785,0 16.628,6.301 16.793,18.41 h 16.46 c -0.16,-13.886 -8.23,-27.765 -35.195,-27.765 -27.117,0 -38.742,17.754 -38.742,41.652 0,23.887 11.625,41.649 38.742,41.649 25.992,0 36.813,-12.11 36.813,-39.227 v -3.723 h -54.891"
         style="fill:#cf1e25;fill-opacity:1;fill-rule:nonzero;stroke:none"
         id="path38" />
      <path
         d="m 447.59,585.805 c 9.203,0 23.566,0.965 31.476,1.945 v -17.922 h 0.325 c 5.492,13.074 14.691,18.563 27.765,18.563 4.684,0 9.207,-0.641 12.918,-1.942 v -23.242 h -15.5 c -0.16,8.066 -1.937,12.59 -8.23,12.59 -7.426,0 -14.856,-10.012 -14.856,-23.567 v -26.476 c 0,-7.43 0.813,-10.176 9.043,-10.176 h 8.555 v -7.906 H 447.59 v 7.906 h 5.164 c 8.23,0 9.043,2.746 9.043,10.176 v 39.387 c 0,10.82 -0.813,12.277 -7.266,12.277 h -6.941 v 8.387"
         style="fill:#cf1e25;fill-opacity:1;fill-rule:nonzero;stroke:none"
         id="path40" />
      <path
         d="m 531.504,532.855 h 13.559 c 0,-11.464 3.074,-18.886 14.21,-18.886 10.332,0 17.11,4.355 17.11,11.785 0,5.969 -2.258,9.523 -17.11,14.043 -18.726,5.644 -27.769,12.433 -27.769,25.019 0,14.688 13.238,23.575 32.289,23.575 12.266,0 23.086,-2.262 27.766,-4.364 v -22.121 h -13.563 c 0,12.434 -3.062,17.598 -14.691,17.598 -7.422,0 -12.106,-3.066 -12.106,-9.52 0,-6.132 4.196,-10.488 11.621,-12.91 l 13.239,-4.363 c 13.886,-4.523 20.019,-9.203 20.019,-21.469 0,-18.894 -17.918,-26.152 -34.867,-26.152 -13.238,0 -25.023,3.223 -29.707,5.16 v 22.605"
         style="fill:#cf1e25;fill-opacity:1;fill-rule:nonzero;stroke:none"
         id="path42" />
      <path
         d="m 631.625,625.52 c 7.59,0 11.789,-5.165 11.789,-12.11 0,-6.941 -4.199,-12.109 -11.789,-12.109 -7.586,0 -11.785,5.168 -11.785,12.109 0,6.945 4.199,12.11 11.785,12.11 z m -22.762,-39.715 c 8.242,0 22.598,0.965 32.93,1.945 v -61.996 c 0,-7.43 0.82,-10.176 9.043,-10.176 h 4.199 v -7.906 h -47.14 v 7.906 h 5.168 c 8.23,0 9.042,2.746 9.042,10.176 v 39.387 c 0,10.82 -0.812,12.277 -7.265,12.277 h -5.977 v 8.387"
         style="fill:#cf1e25;fill-opacity:1;fill-rule:nonzero;stroke:none"
         id="path44" />
      <path
         d="m 662.641,585.805 c 15.011,1.777 18.566,6.465 19.855,22.761 h 14.043 v -22.761 h 25.84 v -9.367 h -25.84 v -51.336 c 0,-6.934 2.586,-10.012 8.399,-10.012 5.82,0 8.398,3.078 8.398,10.012 v 8.234 h 13.555 v -3.547 c 0,-17.277 -9.036,-25.031 -24.7,-25.031 -16.296,0 -25.339,5.332 -25.339,25.351 v 46.329 h -14.211 v 9.367"
         style="fill:#cf1e25;fill-opacity:1;fill-rule:nonzero;stroke:none"
         id="path46" />
      <path
         d="m 746.617,567.727 c -3.222,7.746 -5.156,10.168 -9.043,10.168 h -2.422 v 7.91 h 40.039 v -7.91 h -5.968 c -2.743,0 -4.364,-0.645 -4.364,-2.903 0,-2.422 1.133,-4.687 2.098,-7.265 l 13.242,-35.84 14.688,37.609 c 0.968,2.266 1.777,4.199 1.777,5.652 0,2.27 -1.133,2.747 -3.875,2.747 h -6.777 v 7.91 h 34.226 v -7.91 h -3.554 c -3.387,0 -4.844,-2.579 -7.11,-7.911 l -31.64,-75.714 c -0.965,-2.266 -2.579,-5.973 -2.579,-8.555 0,-3.387 1.778,-4.84 8.067,-4.84 h 5.332 v -7.914 h -43.262 v 7.914 h 7.258 c 6.141,0 8.242,3.387 10.332,9.043 l 7.754,19.684 -24.219,58.125"
         style="fill:#cf1e25;fill-opacity:1;fill-rule:nonzero;stroke:none"
         id="path48" />
      <path
         d="m 888.707,514.445 c 13.231,0 18.074,10.332 18.074,32.297 0,21.953 -4.843,32.285 -18.074,32.285 -13.242,0 -18.086,-10.332 -18.086,-32.285 0,-21.965 4.844,-32.297 18.086,-32.297 z m 0,73.946 c 27.117,0 38.738,-17.762 38.738,-41.649 0,-23.898 -11.621,-41.652 -38.738,-41.652 -27.129,0 -38.75,17.754 -38.75,41.652 0,23.887 11.621,41.649 38.75,41.649"
         style="fill:#cf1e25;fill-opacity:1;fill-rule:nonzero;stroke:none"
         id="path50" />
      <path
         d="m 937.34,585.805 h 14.199 c 0,21.957 0.977,39.715 30.352,39.715 7.91,0 15.019,-0.969 21.469,-2.258 v -21.317 h -13.559 c 0,10.66 -2.102,14.211 -8.067,14.211 -6.621,0 -10.5,-4.683 -10.5,-14.371 v -15.98 h 21.153 v -9.367 h -21.153 v -50.684 c 0,-7.43 0.813,-10.176 9.043,-10.176 h 8.555 v -7.906 H 937.34 v 7.906 h 5.164 c 8.234,0 9.035,2.746 9.035,10.176 v 50.684 H 937.34 v 9.367"
         style="fill:#cf1e25;fill-opacity:1;fill-rule:nonzero;stroke:none"
         id="path52" />
      <path
         d="m 42.3164,418.02 c -9.043,0 -13.8906,-5.321 -13.8906,-19.364 0,-14.531 5.4883,-20.664 14.0508,-20.664 8.7148,0 12.7539,6.778 12.7539,20.821 0,14.695 -5.168,19.207 -12.9141,19.207 z m -0.1641,-70.547 c -14.5312,0 -19.375,-7.098 -19.375,-15.653 0,-7.91 5.3282,-14.375 18.8868,-14.375 15.3398,0 20.3437,7.754 20.3437,15.176 0,8.231 -5.8125,14.852 -19.8555,14.852 z m 43.2618,67.804 H 69.7578 v -0.324 c 4.0352,-3.066 7.1016,-9.355 7.1016,-16.297 0,-12.922 -7.1016,-25.027 -29.7071,-28.738 l -3.871,-0.648 c -5.3282,-0.809 -12.5938,-1.61 -12.5938,-6.942 0,-4.523 2.9063,-6.133 20.6641,-7.422 15.1757,-1.133 30.3515,-3.39 30.3515,-22.441 0,-15.02 -14.8515,-23.899 -41.9726,-23.899 -25.5078,0 -36.64847,10.332 -36.64847,23.411 0,13.074 13.40237,19.05 24.69927,20.183 v 0.324 c -10.8125,2.102 -14.5274,4.844 -14.5274,10.332 0,5.164 4.6797,9.2 15.8242,10.164 v 0.325 c -12.1093,3.875 -21.31638,11.14 -21.31638,25.828 0,15.664 13.89058,27.773 35.03518,27.773 6.7773,0 14.207,-2.097 18.7265,-3.398 l 23.8907,2.101 v -10.332"
         style="fill:#cf1e25;fill-opacity:1;fill-rule:nonzero;stroke:none"
         id="path54" />
      <path
         d="m 92.875,424.32 c 9.203,0 23.57,0.965 31.48,1.942 v -17.918 h 0.325 c 5.492,13.078 14.691,18.562 27.765,18.562 4.684,0 9.203,-0.644 12.914,-1.941 v -23.242 h -15.496 c -0.16,8.066 -1.937,12.586 -8.23,12.586 -7.43,0 -14.856,-10.008 -14.856,-23.563 V 364.27 c 0,-7.43 0.813,-10.176 9.043,-10.176 h 8.555 v -7.91 h -51.5 v 7.91 h 5.168 c 8.23,0 9.043,2.746 9.043,10.176 v 39.386 c 0,10.821 -0.813,12.274 -7.2657,12.274 H 92.875 v 8.39"
         style="fill:#cf1e25;fill-opacity:1;fill-rule:nonzero;stroke:none"
         id="path56" />
      <path
         d="m 211.672,352.961 c 13.234,0 18.078,10.336 18.078,32.297 0,21.953 -4.844,32.285 -18.078,32.285 -13.238,0 -18.082,-10.332 -18.082,-32.285 0,-21.961 4.844,-32.297 18.082,-32.297 z m 0,73.945 c 27.121,0 38.742,-17.761 38.742,-41.648 0,-23.899 -11.621,-41.653 -38.742,-41.653 -27.121,0 -38.746,17.754 -38.746,41.653 0,23.887 11.625,41.648 38.746,41.648"
         style="fill:#cf1e25;fill-opacity:1;fill-rule:nonzero;stroke:none"
         id="path58" />
      <path
         d="m 261.266,424.32 c 8.238,0 22.601,0.965 30.511,1.942 v -17.918 h 0.325 c 5.492,13.078 14.691,18.562 27.765,18.562 15.821,0 28.094,-7.109 28.094,-24.539 V 364.27 c 0,-7.43 0.805,-10.176 9.043,-10.176 h 4.191 v -7.91 h -44.23 v 7.91 h 2.258 c 8.234,0 9.039,2.746 9.039,10.176 v 33.41 c 0,11.465 -5.489,16.629 -14.203,16.629 -11.789,0 -19.86,-8.387 -19.86,-23.563 V 364.27 c 0,-7.43 0.813,-10.176 9.043,-10.176 h 2.262 v -7.91 h -45.207 v 7.91 h 5.168 c 8.23,0 9.043,2.746 9.043,10.176 v 39.386 c 0,10.821 -0.813,12.274 -7.266,12.274 h -5.976 v 8.39"
         style="fill:#cf1e25;fill-opacity:1;fill-rule:nonzero;stroke:none"
         id="path60" />
      <path
         d="m 392.555,464.035 c 7.586,0 11.785,-5.164 11.785,-12.109 0,-6.942 -4.199,-12.11 -11.785,-12.11 -7.59,0 -11.785,5.168 -11.785,12.11 0,6.945 4.195,12.109 11.785,12.109 z M 369.789,424.32 c 8.238,0 22.606,0.965 32.938,1.942 V 364.27 c 0,-7.43 0.808,-10.176 9.043,-10.176 h 4.191 v -7.91 h -47.137 v 7.91 h 5.164 c 8.235,0 9.043,2.746 9.043,10.176 v 39.386 c 0,10.821 -0.808,12.274 -7.265,12.274 h -5.977 v 8.39"
         style="fill:#cf1e25;fill-opacity:1;fill-rule:nonzero;stroke:none"
         id="path62" />
      <path
         d="m 424.547,424.32 c 8.23,0 22.598,0.965 30.508,1.942 v -17.918 h 0.32 c 5.492,13.078 14.691,18.562 27.77,18.562 15.82,0 28.089,-7.109 28.089,-24.539 V 364.27 c 0,-7.43 0.809,-10.176 9.043,-10.176 h 4.196 v -7.91 h -44.235 v 7.91 h 2.262 c 8.23,0 9.039,2.746 9.039,10.176 v 33.41 c 0,11.465 -5.488,16.629 -14.203,16.629 -11.789,0 -19.859,-8.387 -19.859,-23.563 V 364.27 c 0,-7.43 0.808,-10.176 9.043,-10.176 h 2.257 v -7.91 h -45.203 v 7.91 h 5.164 c 8.235,0 9.043,2.746 9.043,10.176 v 39.386 c 0,10.821 -0.808,12.274 -7.261,12.274 h -5.973 v 8.39"
         style="fill:#cf1e25;fill-opacity:1;fill-rule:nonzero;stroke:none"
         id="path64" />
      <path
         d="m 572.141,418.02 c -9.043,0 -13.887,-5.321 -13.887,-19.364 0,-14.531 5.484,-20.664 14.047,-20.664 8.715,0 12.754,6.778 12.754,20.821 0,14.695 -5.168,19.207 -12.914,19.207 z m -0.164,-70.547 c -14.532,0 -19.375,-7.098 -19.375,-15.653 0,-7.91 5.328,-14.375 18.886,-14.375 15.336,0 20.344,7.754 20.344,15.176 0,8.231 -5.812,14.852 -19.855,14.852 z m 43.261,67.804 h -15.652 v -0.324 c 4.031,-3.066 7.098,-9.355 7.098,-16.297 0,-12.922 -7.098,-25.027 -29.707,-28.738 l -3.872,-0.648 c -5.328,-0.809 -12.593,-1.61 -12.593,-6.942 0,-4.523 2.906,-6.133 20.664,-7.422 15.176,-1.133 30.351,-3.39 30.351,-22.441 0,-15.02 -14.851,-23.899 -41.972,-23.899 -25.508,0 -36.649,10.332 -36.649,23.411 0,13.074 13.403,19.05 24.699,20.183 v 0.324 c -10.812,2.102 -14.531,4.844 -14.531,10.332 0,5.164 4.684,9.2 15.828,10.164 v 0.325 c -12.109,3.875 -21.312,11.14 -21.312,25.828 0,15.664 13.887,27.773 35.031,27.773 6.777,0 14.203,-2.097 18.727,-3.398 l 23.89,2.101 v -10.332"
         style="fill:#cf1e25;fill-opacity:1;fill-rule:nonzero;stroke:none"
         id="path66" />
      <path
         d="m 681.793,393.324 c 0,13.242 -3.398,24.696 -17.285,24.696 -13.879,0 -17.91,-11.133 -17.91,-24.696 z m -35.195,-9.363 c 0,-10.981 0.156,-31 20.019,-31 11.778,0 16.621,6.301 16.785,18.41 h 16.465 c -0.164,-13.887 -8.23,-27.766 -35.195,-27.766 -27.117,0 -38.738,17.754 -38.738,41.653 0,23.887 11.621,41.648 38.738,41.648 25.988,0 36.808,-12.109 36.808,-39.226 v -3.719 h -54.882"
         style="fill:#cf1e25;fill-opacity:1;fill-rule:nonzero;stroke:none"
         id="path68" />
      <path
         d="m 714.273,424.32 c 8.231,0 22.598,0.965 30.508,1.942 v -17.918 h 0.321 c 5.488,13.078 14.699,18.562 27.773,18.562 15.82,0 28.086,-7.109 28.086,-24.539 V 364.27 c 0,-7.43 0.812,-10.176 9.043,-10.176 h 4.199 v -7.91 h -44.238 v 7.91 h 2.258 c 8.242,0 9.043,2.746 9.043,10.176 v 33.41 c 0,11.465 -5.489,16.629 -14.211,16.629 -11.778,0 -19.852,-8.387 -19.852,-23.563 V 364.27 c 0,-7.43 0.809,-10.176 9.043,-10.176 h 2.254 v -7.91 h -45.203 v 7.91 h 5.176 c 8.222,0 9.043,2.746 9.043,10.176 v 39.386 c 0,10.821 -0.821,12.274 -7.266,12.274 h -5.977 v 8.39"
         style="fill:#cf1e25;fill-opacity:1;fill-rule:nonzero;stroke:none"
         id="path70" />
      <path
         d="m 691.969,1057.61 -286.793,-353.969 -22.789,0.019 286.758,353.93 22.824,0.02 v 0"
         style="fill:#cf1e25;fill-opacity:1;fill-rule:nonzero;stroke:none"
         id="path72" />
      <path
         d="m 138.535,1126.53 c -2.09,-0.32 -5.027,-1.15 -6.738,2.58 -1.547,3.36 4.281,8.82 6.211,10.59 2.5,2.28 -0.762,4.73 -2.66,2.07 -0.539,-0.75 -5.098,-7.21 -8.692,-7.21 -5.558,0 -5.242,6.53 -5.242,6.53 0,0 -6.203,3.96 -6.203,16.53 0,11.18 7.379,16.53 7.379,16.53 0,0 0.055,6.37 5.039,6.21 4.969,-0.16 8.187,-7.01 8.5,-7.48 2.519,-3.78 5.68,-0.55 3.476,2.13 -5.207,6.35 -6.308,11.36 -0.605,14.04 2.07,4.73 8.32,8.04 15.137,8.57 l 0.218,0.02 0.231,0.01 c 6.82,-0.56 13.07,-3.87 15.141,-8.6 5.699,-2.68 4.597,-7.69 -0.61,-14.04 -2.199,-2.68 0.961,-5.91 3.473,-2.13 0.316,0.47 3.539,7.32 8.508,7.48 4.98,0.16 5.031,-6.21 5.031,-6.21 0,0 7.387,-5.35 7.387,-16.53 0,-12.57 -6.207,-16.53 -6.207,-16.53 0,0 0.32,-6.53 -5.243,-6.53 -3.589,0 -8.152,6.46 -8.687,7.21 -1.91,2.66 -5.16,0.21 -2.66,-2.07 1.926,-1.77 7.758,-7.23 6.211,-10.59 -1.719,-3.73 -4.657,-2.9 -6.742,-2.58 0,0 -1.911,-3.32 -4.813,-3.32 14.453,-10.8 37.121,-4.69 40.16,3.22 0,0 -3.836,-0.77 -3.797,3.26 0.032,2.43 2.508,3.76 5.86,4.24 -0.7,1.54 -1.051,3.39 -0.934,5.4 0.324,5.66 4.234,10.41 8.723,10.61 4.5,0.2 7.871,-4.23 7.539,-9.89 -0.168,-2.85 -1.242,-5.47 -2.836,-7.39 3.289,-1.13 5.598,-2.81 5.297,-4.79 -0.801,-5.19 -5.621,-3.91 -5.621,-3.91 -0.567,-11.87 17.535,-14.14 22.152,-11.08 -1.82,6.85 0.91,8.92 3,10.76 1.488,1.31 5.918,4.04 6.527,4.44 1.383,0.9 2.094,2.82 1.231,3.53 -0.821,0.68 -2.625,-0.48 -3.477,-1.44 -1.23,-1.38 -3.375,-4.63 -6.742,-3.74 -4.066,1.06 -2.312,5.72 -3,8.23 -4.34,15.83 -0.629,26.88 15.199,33.5 0,0 6.024,6.34 11.414,3.48 5.164,-2.73 1.957,-11.19 1.957,-11.19 l 1.614,-0.75 c 5.773,10.5 14.125,18.1 26.125,18.41 8.504,0.21 12.601,-4.81 12.929,-11.66 0.743,-15.29 -14.879,-9.59 -13.656,-3.89 0,0 -3.793,-0.39 -5.863,-3.71 -0.012,0.96 0.109,10.03 -7.981,5.24 -2.308,-1.37 -6.394,-8.22 -6.687,-9.1 -1.012,-3 0.449,-3.48 -1.129,-6.42 -1.223,-2.3 -2.945,-2.83 -3.684,-4.44 -0.75,-1.6 0.321,-4.75 -0.695,-6.79 -1.242,-2.48 -2.949,-2.68 -4.074,-4.93 -0.887,-1.77 -12.196,-30.6 -12.196,-30.6 0,0 4.497,-2.89 3.637,-7.17 -1.148,-5.73 -4.789,-4.5 -6.726,-8.26 -61.434,15.79 -124.993,15.88 -190.6957,0.26 -1.9687,3.45 -5.4687,2.41 -6.5859,8 -0.8594,4.28 3.6367,7.17 3.6367,7.17 0,0 -11.3086,28.83 -12.1992,30.6 -1.1211,2.25 -2.8281,2.45 -4.0703,4.93 -1.0196,2.04 0.0507,5.19 -0.6993,6.79 -0.7421,1.61 -2.4609,2.14 -3.6914,4.44 -1.5703,2.94 -0.1054,3.42 -1.1171,6.42 -0.3047,0.88 -4.379,7.73 -6.6954,9.1 -8.0937,4.79 -7.9765,-4.28 -7.9765,-5.24 -2.0821,3.32 -5.8594,3.71 -5.8594,3.71 1.2188,-5.7 -14.402344,-11.4 -13.6640625,3.89 0.3320315,6.85 4.4335925,11.87 12.9374625,11.66 11.9961,-0.31 20.3438,-7.91 26.125,-18.41 l 1.6016,0.75 c 0,0 -3.2109,8.46 1.9609,11.19 5.3985,2.86 11.418,-3.48 11.418,-3.48 15.832,-6.62 19.543,-17.67 15.2031,-33.5 -0.6914,-2.51 1.0664,-7.17 -3.0039,-8.23 -3.3711,-0.89 -5.5195,2.36 -6.7383,3.74 -0.8593,0.96 -2.6718,2.12 -3.4765,1.44 -0.875,-0.71 -0.1524,-2.63 1.2265,-3.53 0.6094,-0.4 5.043,-3.13 6.5313,-4.44 2.0898,-1.84 4.8203,-3.91 2.9883,-10.76 4.6289,-3.06 22.7304,-0.79 22.1484,11.08 0,0 -4.8086,-1.28 -5.6094,3.91 -0.3086,1.98 2.0118,3.66 5.3008,4.79 -1.6015,1.92 -2.6679,4.54 -2.8398,7.39 -0.3281,5.66 3.0429,10.09 7.5273,9.89 4.5039,-0.2 8.4058,-4.95 8.7308,-10.61 0.125,-2.01 -0.231,-3.86 -0.926,-5.4 3.348,-0.48 5.828,-1.81 5.859,-4.24 0.039,-4.03 -3.8,-3.26 -3.8,-3.26 3.039,-7.91 25.707,-14.02 40.156,-3.22 -2.895,0 -4.809,3.32 -4.809,3.32 z m 5.211,29.56 c 0,-5.86 4.75,-10.61 10.609,-10.61 5.864,0 10.61,4.75 10.61,10.61 0,5.86 -4.746,10.62 -10.61,10.62 -5.859,0 -10.609,-4.76 -10.609,-10.62 z m 58.582,-46.04 c 4.57,0.13 13.508,-1.74 13.508,-1.74 0,0 -3.801,4.26 -5.539,7.14 0,0 -2.031,-1.89 -3.262,-2.79 -0.957,-0.7 -4.707,-2.61 -4.707,-2.61 z m -47.973,9.31 c -1.777,-1.99 -5.238,-5.4 -9.007,-6.68 0,0 6.199,0.15 8.882,0.2 h 0.266 c 2.684,-0.05 8.871,-0.2 8.871,-0.2 -3.762,1.28 -7.219,4.69 -9.012,6.68 z m -47.96,-9.31 c 0,0 -3.75,1.91 -4.711,2.61 -1.223,0.9 -3.2582,2.79 -3.2582,2.79 -1.7422,-2.88 -5.5391,-7.14 -5.5391,-7.14 0,0 8.9373,1.87 13.5083,1.74 z m 140.523,-28.68 c 2.949,-0.79 7.09,-3.69 5.949,-7.94 -1.137,-4.26 -6.168,-4.7 -9.121,-3.91 -2.949,0.8 -7.09,3.69 -5.949,7.94 1.141,4.26 6.172,4.7 9.121,3.91 z m -38.582,1.15 -8.945,-7.51 -7.52,8.95 8.953,7.51 z m -142.3282,-13 c -2.9531,-0.79 -7.9805,-0.35 -9.1172,3.91 -1.1445,4.25 2.9883,7.15 5.9375,7.94 2.9492,0.79 7.9766,0.35 9.1211,-3.91 1.1367,-4.25 -3.0039,-7.14 -5.9414,-7.94 z m 79.5392,15.83 c 0,3.37 4.18,6.11 9.332,6.11 5.144,0 9.332,-2.74 9.332,-6.11 0,-3.38 -4.188,-6.12 -9.332,-6.12 -5.152,0 -9.332,2.74 -9.332,6.12 z m -44.133,-2.83 7.512,8.95 8.949,-7.51 -7.508,-8.95 z M 24.8477,812.297 c 1.0195,4.062 5.3476,3.156 5.3476,3.156 0,0 -1.0312,3.75 2.793,5.469 4.2383,1.902 6.3398,-2.777 6.3398,-2.777 l 1.7891,-12.059 -12.8516,0.43 c 0,0 -4.5508,1.269 -3.4179,5.781 z m 18.1875,19.949 c 1.0234,4.063 5.3554,3.152 5.3554,3.152 0,0 -1.0312,3.75 2.7969,5.469 4.2266,1.906 6.3359,-2.777 6.3359,-2.777 l 1.7813,-12.055 -12.8438,0.43 c 0,0 -4.5507,1.269 -3.4257,5.781 z m 18.1992,19.942 c 1.0234,4.066 5.3515,3.156 5.3515,3.156 0,0 -1.0312,3.75 2.793,5.465 4.2383,1.91 6.3399,-2.774 6.3399,-2.774 l 1.7851,-12.055 -12.8476,0.43 c 0,0 -4.5508,1.27 -3.4219,5.778 z m 93.2426,184.732 c 1.011,4.06 5.351,3.15 5.351,3.15 0,0 -1.027,3.75 2.789,5.47 4.238,1.91 6.344,-2.78 6.344,-2.78 l 1.777,-12.05 -12.843,0.43 c 0,0 -4.551,1.27 -3.418,5.78 z m 17.769,-68.033 c 1.02,4.066 5.352,3.152 5.352,3.152 0,0 -1.02,3.75 2.797,5.469 4.234,1.906 6.343,-2.778 6.343,-2.778 l 1.778,-12.05 -12.836,0.425 c 0,0 -4.563,1.274 -3.434,5.782 z m 21.363,22.605 c 1.02,4.067 5.352,3.156 5.352,3.156 0,0 -1.035,3.75 2.785,5.472 4.238,1.9 6.352,-2.784 6.352,-2.784 l 1.781,-12.051 -12.852,0.43 c 0,0 -4.55,1.269 -3.418,5.777 z m 21.356,22.608 c 1.019,4.07 5.351,3.15 5.351,3.15 0,0 -1.031,3.76 2.789,5.47 4.243,1.91 6.352,-2.77 6.352,-2.77 l 1.777,-12.06 -12.843,0.43 c 0,0 -4.551,1.27 -3.426,5.78 z m 21.363,22.61 c 1.02,4.06 5.348,3.16 5.348,3.16 0,0 -1.028,3.75 2.793,5.47 4.238,1.9 6.336,-2.78 6.336,-2.78 l 1.793,-12.05 -12.852,0.42 c 0,0 -4.551,1.27 -3.418,5.78 z M 12.7578,884.516 c 1.0156,4.062 5.3477,3.156 5.3477,3.156 0,0 -1.0313,3.75 2.7929,5.461 4.2383,1.91 6.336,-2.774 6.336,-2.774 l 1.7929,-12.054 -12.8515,0.429 c 0,0 -4.5508,1.27 -3.418,5.782 z M 62.3477,763.488 c 1.0195,4.063 5.3476,3.157 5.3476,3.157 0,0 -1.0312,3.75 2.793,5.468 4.2383,1.903 6.3398,-2.777 6.3398,-2.777 l 1.7891,-12.051 -12.8516,0.43 c 0,0 -4.5508,1.269 -3.4179,5.773 z m 21.1093,22.965 c 1.0196,4.063 5.3516,3.149 5.3516,3.149 0,0 -1.0313,3.757 2.7891,5.468 4.2382,1.91 6.3515,-2.773 6.3515,-2.773 l 1.7774,-12.055 -12.8477,0.43 c 0,0 -4.5508,1.269 -3.4219,5.781 z m 21.117,22.961 c 1.012,4.063 5.344,3.152 5.344,3.152 0,0 -1.023,3.75 2.801,5.469 4.23,1.906 6.34,-2.777 6.34,-2.777 l 1.777,-12.051 -12.84,0.43 c 0,0 -4.551,1.269 -3.422,5.777 z m 21.114,22.957 c 1.023,4.067 5.347,3.156 5.347,3.156 0,0 -1.031,3.754 2.793,5.469 4.238,1.906 6.336,-2.773 6.336,-2.773 l 1.793,-12.055 -12.852,0.426 c 0,0 -4.55,1.269 -3.417,5.777 z m 92.988,97.621 c 1.019,4.063 5.351,3.156 5.351,3.156 0,0 -1.031,3.75 2.789,5.469 4.243,1.91 6.352,-2.777 6.352,-2.777 l 1.777,-12.051 -12.851,0.43 c 0,0 -4.543,1.269 -3.418,5.773 z m 19.043,20.77 c 1.015,4.066 5.347,3.16 5.347,3.16 0,0 -1.031,3.75 2.789,5.461 4.243,1.91 6.352,-2.774 6.352,-2.774 l 1.781,-12.054 -12.851,0.429 c 0,0 -4.551,1.27 -3.418,5.778 z m 19.039,20.769 c 1.019,4.063 5.347,3.157 5.347,3.157 0,0 -1.027,3.75 2.793,5.468 4.239,1.903 6.336,-2.777 6.336,-2.777 l 1.793,-12.055 -12.851,0.43 c 0,0 -4.547,1.266 -3.418,5.777 z m 19.039,20.766 c 1.019,4.07 5.351,3.156 5.351,3.156 0,0 -1.031,3.754 2.79,5.467 4.242,1.91 6.339,-2.772 6.339,-2.772 l 1.789,-12.054 -12.847,0.429 c 0,0 -4.551,1.27 -3.422,5.774 z M 128.02,743.109 c 1.019,4.067 5.347,3.153 5.347,3.153 0,0 -1.027,3.758 2.789,5.468 4.239,1.911 6.34,-2.769 6.34,-2.769 l 1.789,-12.059 -12.847,0.43 c 0,0 -4.547,1.27 -3.418,5.777 z m 147.886,163.676 c 1.024,4.063 5.348,3.156 5.348,3.156 0,0 -1.024,3.75 2.793,5.469 4.238,1.903 6.34,-2.781 6.34,-2.781 l 1.793,-12.051 -12.856,0.43 c 0,0 -4.551,1.269 -3.418,5.777 z M 132.848,890.352 c 0,0.632 1.019,0.531 2.937,0.851 1.926,0.32 3.633,0.957 3.633,0.32 0,-0.964 -1.344,-0.214 -1.344,-1.765 v -14.992 c 0,-0.75 1.024,-0.215 1.024,-0.801 0,-0.754 -1.825,-0.43 -3.153,-0.43 -1.39,0 -3.148,-0.324 -3.148,0.266 0,1.012 1.23,0 1.23,0.965 v 14.246 c 0,1.5 -1.179,0.109 -1.179,1.34 z m -16.282,-6.497 c 0,0.43 0.528,0.485 1.493,0.969 0.961,0.473 1.546,1.012 2.402,0.262 0.855,-0.746 5.496,-6.082 5.496,-6.082 v 7.578 c 0,0.852 -1.488,-0.269 -1.488,0.586 0,0.637 0.629,0.637 1.699,1.062 1.066,0.43 2.621,1.602 2.621,0.86 0,-0.906 -1.125,-0.641 -1.125,-1.817 v -14.625 c 0,-1.222 -0.105,-1.222 -0.637,-1.222 -0.316,0 -7.711,9.308 -7.711,9.308 v -9.925 c 0,-0.907 1.782,0.347 1.782,-0.508 0,-0.477 -1.059,-0.746 -2.129,-1.176 -1.074,-0.426 -2.563,-1.117 -2.563,-0.586 0,0.906 1.332,0.586 1.332,1.5 v 12.859 c 0,0.957 -1.172,0.215 -1.172,0.957 z m -5.781,-9.144 c 0,6.191 -3.949,3.891 -3.949,3.891 v -12.727 c 0,0 3.949,0.082 3.949,8.836 z m -9.226,2.559 c 0,0.453 1.918,1.168 3.199,1.761 2.297,1.071 9.719,4.86 9.719,-4.265 0,-8.387 -5.879,-9.774 -7.747,-10.625 -1.863,-0.856 -4.39,-2.09 -4.589,-1.68 -0.325,0.668 1.019,0.769 1.019,2.266 v 10.41 c 0,2.613 -1.601,1.254 -1.601,2.133 z m 25.847,37.82 c -0.039,0.398 1.508,0.66 2.301,0.875 1.344,0.363 2.191,0.617 2.75,0.055 0.563,-0.563 3.301,-4.993 3.301,-4.993 0,0 3.527,4.993 3.808,5.328 0.282,0.333 0.391,0.813 1.789,0.84 1.633,0.032 2.352,0.196 2.352,-0.14 0,-0.617 -0.996,-0.309 -1.062,-1.598 -0.04,-1.012 0,-12.945 0,-13.613 0,-1.52 1.043,-1.008 1.043,-1.52 0,-0.5 -0.668,-0.304 -3.047,-0.277 -1.973,0.019 -3.282,-0.25 -3.282,0.113 0,0.676 1.039,0.113 1.039,1.485 v 9.105 c 0,0 -3.433,-4.984 -3.597,-4.984 -0.196,0 -4.367,6.359 -4.367,6.359 v -10.902 c 0,-1.739 1.734,-0.719 1.734,-1.399 0,-0.34 -1.324,-0.484 -2.289,-0.73 -1.125,-0.281 -2.109,-0.703 -2.223,-0.391 -0.25,0.684 1.211,0.305 1.211,2.266 0,1.742 0.02,11.746 0,12.472 -0.058,1.934 -1.402,1.094 -1.461,1.649 z m -4.929,-1.899 c 0.582,0.27 2.097,1.106 2.289,0.852 0.257,-0.371 -0.621,-0.449 -1.231,-3.094 -0.219,-0.957 -3.101,-16.062 -4.156,-16.601 -0.352,-0.168 -5.215,11.906 -5.664,12.863 -0.801,1.711 -1.649,0.562 -1.817,1.176 -0.101,0.383 1.243,0.883 2.348,1.386 0.594,0.27 2.742,1.567 2.973,1.309 0.445,-0.508 -1.184,-0.531 -0.403,-2.371 0.524,-1.246 3.25,-7.262 3.25,-7.262 0,0 1.598,6.778 2.082,9.071 0.481,2.296 -1.281,1.148 -1.332,1.656 -0.031,0.289 0.848,0.668 1.602,0.988 z m -18.688,-15.859 v -8.301 c 0,0 4.27,0.891 4.27,6.067 0,4.433 -4.27,2.234 -4.27,2.234 z m -0.062,7.281 v -5.5 c 0,0 3.097,1.16 3.097,3.828 0,3.204 -3.097,1.672 -3.097,1.672 z m 0.332,1.426 c 1.808,0.699 6.554,1.656 6.554,-2.457 0,-2.934 -1.918,-3.629 -1.918,-3.629 0,0 3.473,-0.637 3.473,-3.523 0,-3.305 -1.602,-5.602 -3.422,-6.563 -0.918,-0.492 -6.617,-3.254 -7.148,-3.574 -0.528,-0.324 -1.7972,-1.016 -1.9496,-0.699 -0.3203,0.722 0.9256,0.59 0.9256,2.726 v 13.313 c 0,2.832 -1.3279,1.578 -1.3279,2.328 0,0.453 2.9489,1.371 4.8129,2.078 z m 29.617,37.477 v -6.723 c 0,0 3.16,0.207 3.16,3.84 0,4.32 -3.16,2.883 -3.16,2.883 z m 8.351,-15.008 c 0.961,-0.117 1.391,0.269 1.391,0.269 0,0 -0.32,-2.402 -2.832,-2.402 -3.406,0 -3.359,5.871 -4.32,7.578 -0.957,1.703 -2.571,0.801 -2.571,0.801 v -5.981 c 0,-1.918 1.203,-1.093 1.203,-1.789 0,-0.293 -0.937,-0.453 -0.937,-0.453 0,0 -2.606,-0.742 -3.566,-0.957 -0.957,-0.215 -1.387,-0.426 -1.387,0 0,0.758 0.957,0.266 0.957,2.375 v 12.356 c 0,2.406 -1.387,1.601 -1.406,2.265 -0.024,0.403 0.957,0.586 1.921,0.832 1.606,0.399 2.208,0.903 4.504,1.442 2.204,0.511 6.086,-0.539 6.086,-3.633 0,-3.414 -1.925,-4.109 -2.996,-4.91 3.953,-1.922 2.196,-7.578 3.953,-7.793 z m -25.929,8.781 c 1.597,0.535 4.429,1.734 7.472,3.441 0.41,0.235 1.641,1.008 2.235,-0.105 0.609,-1.148 1.074,-2.668 0.703,-2.828 -0.563,-0.234 -0.91,0.215 -1.602,0.586 -0.609,0.328 -1.39,0.691 -2.136,0.484 -0.754,-0.215 -1.774,-0.66 -1.774,-0.66 v -5.269 c 0,0 1.871,0 2.078,1.015 0.184,0.813 0.516,1.867 1.102,2.027 0.34,0.094 0.242,-0.988 0.281,-2.496 0.012,-0.523 0.051,-0.808 0.059,-1.093 0.039,-1.856 -0.067,-2.465 -0.34,-2.52 -0.508,-0.101 -0.938,1.258 -1.071,1.574 -0.21,0.559 -2.109,0.055 -2.109,-0.265 v -7.551 c 0,0 1.449,0.769 2.078,1.144 0.887,0.508 2.352,2.204 2.922,3.204 0.563,0.988 0.781,1.796 1.305,1.703 0.316,-0.051 -0.371,-3.305 -0.371,-3.305 0,0 -0.051,-1.285 -1.125,-1.816 -1.071,-0.532 -7.032,-3.329 -7.547,-3.575 -1.024,-0.48 -2.262,-1.359 -2.274,-0.879 -0.027,0.743 0.993,0.348 0.993,2.559 l -0.028,12.621 c 0,0 -0.039,1.063 -0.851,1.203 -0.618,0.106 -1.211,0.399 0,0.801 z M 102.141,931.5 c 0.847,0.293 3.273,1.332 3.418,1.039 0.339,-0.758 -1.262,-0.586 -0.731,-2.109 0.449,-1.27 3.258,-7.95 3.258,-7.95 l 2.449,9.606 c 0.543,2.082 -1.137,1.359 -1.277,1.867 -0.094,0.348 1.23,0.746 1.976,1.067 0.614,0.293 2.594,1.14 2.704,0.882 0.261,-0.664 -0.75,-0.664 -1.293,-2.535 -0.629,-2.215 -4.368,-17.254 -5.411,-17.824 -0.589,-0.324 -5.734,12.645 -6.136,13.66 -0.399,1.016 -1.7933,0.633 -1.9222,1.227 -0.0586,0.242 2.0972,0.773 2.9652,1.07 z m 67.617,-41.656 c -0.031,0.406 0.57,0.238 1.488,-0.035 0.91,-0.27 1.992,-0.543 2.742,-1.762 0.746,-1.223 6.367,-10.84 6.367,-10.84 l -0.027,8.672 c 0,1.152 -1.019,1.184 -1.019,1.66 0,0.438 0.781,0 1.589,-0.269 0.821,-0.274 1.997,-0.411 1.997,-0.782 0,-0.371 -1.047,0.172 -1.047,-0.851 v -16.36 c 0,0 0,-0.714 -0.481,-0.07 -0.383,0.523 -8.801,14.098 -8.801,14.098 0,0 0.032,-8.508 0,-9.383 -0.027,-1.024 1.082,-0.918 1.082,-1.43 0,-0.508 -1.183,-0.234 -1.929,-0.101 -0.742,0.136 -1.86,0.035 -1.86,0.679 0,0.645 1.02,-0.336 1.02,1.188 v 13.926 c 0,1.046 -1.094,1.117 -1.121,1.66 z m 7.961,25.074 c 0,0.602 2.676,-0.48 4.777,-1.086 2.09,-0.609 6.063,-1.254 6.063,-2.543 0,-1.574 0.402,-3.082 -0.102,-3.082 -0.309,0 -0.953,1.996 -1.594,2.641 -0.984,0.98 -2.976,1.422 -3.527,1.523 -0.539,0.102 -0.402,0.07 -0.402,-0.301 v -5.086 c 0,0 1.351,-0.675 2.105,-0.336 0.738,0.336 0.84,1.524 1.289,1.422 0.43,-0.101 0.27,-1.015 0.192,-2.777 -0.059,-1.766 0.136,-3.355 -0.305,-3.184 -0.438,0.164 -0.469,1.661 -1.387,2.539 -0.914,0.879 -1.933,1.016 -1.933,1.016 v -8.301 c 0,0 1.019,-1.121 3.121,-0.441 2.105,0.68 3.589,2.101 3.929,1.762 0.332,-0.336 0.172,-0.809 -0.847,-2.407 -1.012,-1.589 -1.559,-2.605 -2.578,-2.168 -1.012,0.442 -3.313,1.325 -4.735,1.969 -1.43,0.645 -4.379,1.352 -4.379,1.965 0,0.609 1.461,-0.512 1.461,1.254 v 14.191 c 0,0.715 -1.148,0.946 -1.148,1.43 z m -3.434,2.43 c 0.754,0 0.594,-2.77 0.711,-3.664 0.215,-1.719 0.711,-3.223 0.18,-3.246 -0.813,-0.04 -1.778,2.679 -3.09,4.035 -1.242,1.269 -5.758,3.582 -5.758,-5.977 0,-8.183 3.559,-8.008 5.496,-7.398 1.903,0.593 2.692,2.09 2.91,1.945 0.223,-0.152 -1.566,-4.039 -5.523,-4.484 -3.961,-0.45 -7.844,3.437 -7.844,9.519 0,6.09 2.981,9.824 6.762,9.824 3.019,0 3.918,-2.089 5.215,-2.089 0.875,0 0.074,1.535 0.941,1.535 z m 10.211,21.687 c 0.152,0.774 1.52,-0.203 3.762,-1.117 2.23,-0.914 3.859,-1.387 3.719,-1.762 -0.129,-0.371 -1.719,0.239 -1.516,-0.812 0.199,-1.047 2.707,-9.281 2.707,-9.281 0,0 2.91,6.898 2.98,7.183 0.2,0.844 -0.781,0.981 -0.679,1.387 0.105,0.43 0.992,-0.137 1.699,-0.543 0.699,-0.406 1.859,-0.781 1.66,-1.254 -0.211,-0.473 -1.051,0.609 -1.39,-0.199 -0.352,-0.817 -6.172,-13.895 -6.172,-13.895 l -5.832,18.805 c -0.329,1.086 -1.043,0.98 -0.938,1.488 z m -13.32,5.051 c 0,0.437 0.812,0.066 0.812,0.066 l 5.192,-1.863 c 0,0 0.906,-0.305 0.879,-0.707 -0.039,-0.41 -1.758,0.508 -1.758,-1.055 v -14.601 c 0,0 0.363,-0.985 2.09,-0.274 1.738,0.715 4.304,2.407 4.304,2.407 0,0 1.219,0.613 0.922,-0.239 -0.312,-0.843 -1.531,-3.554 -1.531,-3.554 0,0 -0.27,-1.051 -1.66,-0.817 -1.387,0.242 -4.813,1.289 -5.758,1.559 -0.953,0.273 -3.598,1.086 -3.598,1.086 0,0 -0.543,0.097 -0.543,0.511 0,0.407 1.668,-0.035 1.668,1.286 v 14.261 c 0,1.289 -1.019,1.325 -1.019,1.934 z m 20.078,-51.598 c 0,1.016 1.391,-0.371 1.391,1.231 v 14.094 c 0,1.757 -0.809,1.703 -0.809,2.402 0,0.691 1.555,-0.324 1.93,-0.485 0.371,-0.16 4.433,-2.242 4.863,-2.457 0.418,-0.214 4.75,-1.976 4.75,-6.722 0,-3.258 -2.731,-2.727 -2.731,-2.727 0,0 2.731,-1.601 2.875,-3.996 0.165,-2.402 0.485,-4.433 0.485,-4.754 0,-0.32 0.488,-1.707 1.976,-0.429 0,0 0.172,-2.875 -3.089,-1.809 -2.137,0.691 -2.731,2.664 -2.891,4 -0.156,1.332 -0.906,7.777 -3.789,7.672 v -6.457 c 0,-1.707 1.012,-1.231 1.012,-2.242 0,-0.641 -1.489,0.386 -2.817,0.921 -1.992,0.872 -3.156,1.172 -3.156,1.758 z m 4.973,14.356 v -6.563 c 0.418,-0.16 3.679,-2.238 3.679,1.817 0,4.058 -3.679,4.746 -3.679,4.746 z m -7.161,-24.574 c 0.325,1.015 -0.636,1.308 -0.449,1.734 0.137,0.316 1.473,-0.402 2.274,-0.774 0.793,-0.375 2.015,-0.699 2.336,-1.785 0.324,-1.093 4.511,-15.386 4.914,-16.711 0.457,-1.492 1.336,-1.066 1.07,-1.761 -0.106,-0.262 -1.336,0.324 -3.762,1.285 -2.019,0.793 -3.031,1.055 -3.031,1.375 0,0.664 2.039,-0.43 1.562,0.957 -0.324,0.93 -1.019,3.379 -1.019,3.379 l -5.621,1.836 -0.801,-2.719 c -0.41,-1.363 0.867,-1.148 0.641,-1.656 -0.133,-0.274 -0.946,0.082 -1.985,0.508 -0.996,0.41 -1.422,0.488 -1.386,0.773 0.046,0.48 0.859,-0.211 1.23,0.773 0.367,0.989 3.75,11.907 4.027,12.786 z m 0.891,-1.875 -1.949,-6.321 4.379,-1.469 z M 302.77,1057.15 V 869.832 C 304.848,757.934 213.305,718.23 152.906,718.23 92.5156,718.23 0.976563,757.934 3.05469,869.832 V 1057.15 H 58.9141 c -0.3047,3.46 0.6328,5.87 0.7265,5.98 76.3164,15.29 113.2144,16 189.4644,-0.04 1.641,-1.98 1.965,-4.1 1.672,-5.94 z M 30.9844,785.633 89.4883,847.93 v 18.207 l -6.6406,0.218 c 0,0 -4.5508,1.27 -3.418,5.778 1.0195,4.066 5.3476,3.152 5.3476,3.152 0,0 -1.0312,3.758 2.793,5.469 0.6953,0.32 1.336,0.449 1.918,0.461 v 12.07 L 16.3867,815.438 c 3.7617,-11.051 8.7188,-20.961 14.5977,-29.805 z m 72.8046,159.203 c 0.785,0.352 1.586,0.73 2.387,1.129 2.832,1.418 7.91,4.078 13.379,6.387 5.383,2.277 11.746,4.492 16.832,4.492 5.14,0 9.261,-1.539 12.09,-3.063 1.421,-0.761 2.519,-1.531 3.293,-2.121 l 0.285,-0.23 c 0.101,0.152 0.218,0.312 0.363,0.476 0.578,0.731 1.449,1.559 2.687,2.34 2.5,1.574 6.321,2.809 12.102,2.809 6.059,0 12.859,-2.422 18.328,-4.899 l 1.274,-0.586 93.988,100.09 h -42.59 l -82.773,-88.144 v 42.434 l 42.933,45.71 H 8.53516 V 869.785 c -0.12891,-6.797 0.10156,-13.316 0.66406,-19.566 l 40.94918,43.609 h 39.3399 l 0.0078,34.77 c -0.7422,-1.02 -1.8477,-0.836 -1.8477,-0.836 0,0 0.9883,3.004 -1.7382,3.433 -0.211,0.035 -0.4336,0.047 -0.6797,0.047 -1.5547,0 -2.4336,-0.773 -3.3516,-1.515 -1.4648,-1.164 -5.75,-6.204 -6.5898,-7.024 -0.8516,0.82 -5.1524,5.86 -6.6133,7.024 -0.918,0.742 -1.7969,1.515 -3.3477,1.515 -0.25,0 -0.4687,-0.012 -0.6797,-0.047 -2.7304,-0.429 -1.7421,-3.433 -1.7421,-3.433 0,0 -2.4727,-0.414 -2.4727,3.359 0,2.66 2.125,4.234 4.0039,4.727 2.8398,0.656 5.6406,0.855 6.168,5.558 0.0429,0.938 -0.1172,1.133 -0.1172,1.133 0,0 -1.0195,-1.559 -3.5391,-2.75 -2.9219,-1.527 -10.8203,-1.426 -10.6211,-5.949 -0.0625,-1.809 1.9297,-1.633 1.9297,-1.633 0,0 -0.0976,-0.82 -1.4297,-1.023 -0.289,-0.043 -0.6406,-0.055 -1.0625,-0.032 -1.832,0.262 -2.4414,2.196 -2.3086,4.633 0.1133,1.531 -0.9101,3.551 -2.8906,3.25 -0.3359,-0.051 -0.7187,-0.176 -1.1172,-0.383 -1.5156,-0.886 -0.9922,-2.316 -0.9922,-2.316 0,0 -1.7109,0.957 -1.4414,2.949 0.2188,1.711 1.3633,2.492 2.961,3.145 0.1875,0.043 0.3906,0.082 0.5781,0.113 2.0508,0.312 3.7734,-0.297 3.7734,-0.297 0,0 -0.5312,1.555 -0.3281,3.113 0.1641,1.329 0.8594,2.668 2.8711,3.039 2.9766,0.567 3.6055,-1.437 3.168,-2.535 -0.1602,-0.097 -0.6953,0.684 -1.543,0.563 -0.1289,-0.016 -0.2578,-0.059 -0.3906,-0.125 -0.5,-0.258 -0.7852,-0.586 -0.9375,-0.949 -0.5117,-1.18 0.4804,-2.668 0.6484,-2.918 0.6016,-0.793 2.4414,-1.352 4.7305,-0.918 2.664,0.57 4.5469,2.3 5.4726,3.836 0.4766,0.804 0.6953,1.554 0.6289,2.054 l 1.4414,16.102 c 0,0 0.4649,4.133 -2.3593,4.617 -0.3242,0.066 -0.6563,0.07 -0.9922,0.02 -2.3828,-0.379 -4.8594,-3.551 -4.082,-7.528 0.6015,-3.047 -0.9571,-5.367 -2.461,-5.722 -1.9101,-0.442 -3.0664,-0.059 -3.75,1.324 3.332,0.23 3.1289,2.902 2.0703,3.847 -0.4492,0.411 -1.0898,0.52 -1.8398,0.407 -3.1055,-0.493 -8.0274,-4.77 -8.8203,-7.328 -0.7071,-2.301 1.0117,-1.711 1.7383,-3.649 0.5898,-1.562 -0.7266,-2.797 -0.7266,-2.797 -0.0391,-0.527 -0.1133,-0.972 -0.2109,-1.347 -0.3516,-1.348 -1.0508,-1.789 -1.6993,-1.883 -0.5117,-0.082 -0.9882,0.054 -1.2382,0.133 0.8203,0.359 1.0781,1.128 1.1445,1.75 0.0547,0.437 0.0156,0.8 0.0156,0.8 0,0 -0.9297,-0.105 -1.7422,1.145 -0.9531,1.461 0.2188,1.922 -0.8086,3.492 -1.0625,1.582 -3.9609,3.266 -6.2226,3.551 -0.1446,0.019 -0.2891,0.015 -0.4297,-0.004 -0.4414,-0.066 -0.8594,-0.289 -1.5391,-0.398 -0.1875,-0.028 -0.4101,-0.051 -0.6601,-0.059 -1.7891,-0.031 -1.3125,1.055 -2.7657,0.934 -0.7734,-0.157 -1.2031,-0.883 -0.9531,-1.934 0.0391,-0.141 -0.082,-0.242 -0.082,-0.242 -0.8086,0.547 -1.1563,1.297 -1.207,2.172 -0.0079,2.328 1.4609,3.964 2.8671,4.097 1.6602,0.16 2.4297,-0.875 2.5625,-1.066 0.8985,3.851 -2.125,2.543 -3.5703,4.406 -0.9804,1.274 -0.6015,1.918 -0.4726,2.379 0.2109,0.699 -1,0.785 -1.918,0.641 -0.2617,-0.043 -0.5,-0.102 -0.668,-0.164 -0.1836,0.175 0.2774,1.968 2.1758,2.253 0.6602,0.106 1.4883,0.028 2.5352,-0.363 0.9843,0.297 1.9258,-0.187 2.2734,-0.855 0.4219,-0.805 0.0742,-1.719 0.1797,-2.711 0.293,-2.559 1.8711,-2.488 2.1016,-2.465 -1.3868,3.664 0.3711,4.75 0.5429,5.316 0.1797,0.582 -0.0312,1.36 -0.9375,1.68 -0.1914,0.07 -0.457,0.231 -0.1523,0.305 0,0 3.5117,0.148 4.0469,-2.141 0,0 1.5156,-0.801 1.5546,-2.695 0.0391,-2.363 -1.2421,-2.582 -1.7343,-3.055 0.3633,-2.473 1.8203,-2.879 3.1914,-2.668 1.3398,0.211 2.582,1.008 2.582,1.008 2.2969,0.914 7.0977,3.871 5.8086,6.293 -0.5898,1.109 -1.5742,1.582 -2.6328,1.422 -0.5078,-0.078 -1.0274,-0.305 -1.5469,-0.664 -1.3828,-1.328 -0.6875,-3.063 -0.6875,-3.063 -2.1094,-0.562 -3.1015,3.098 -1.793,4.653 0.9336,1.089 2.0625,1.527 3.2696,1.738 1.3789,0.238 2.8672,0.187 4.289,0.469 1.6914,0.343 2.9727,1.398 4.2344,3.589 0.9063,1.528 0.9375,3.633 0.1445,5.313 -0.8281,1.84 -2.5078,4.144 -4.875,4.574 -0.4609,-3.972 -2.6445,-7.105 -5.3242,-9.012 -0.6601,-0.457 -1.5273,-0.718 -2.1172,-0.808 -0.4726,-0.07 -0.7578,-0.039 -0.6523,0.094 3.4922,4.082 2.5898,8.363 2.4922,8.781 -0.25,-0.481 -2.9805,-5.485 -7.8633,-7.625 -0.4687,-0.203 -0.957,-0.336 -1.4492,-0.41 -2.6172,-0.41 -5.2383,0.808 -4.1992,0.945 1.7343,0.234 8.7109,4.285 6.6132,12.883 -0.2695,-0.492 -3.3437,-5.969 -7.1289,-8.563 -1.6054,-1.105 -3.2851,-1.66 -4.7812,-1.89 -2.9688,-0.465 -5.2461,0.367 -4.8125,0.758 0,0 8.2187,3.882 8.3164,7.601 -0.2695,-0.215 -2.5,-1.934 -5.0859,-2.332 -0.3438,-0.055 -0.6993,-0.082 -1.0625,-0.082 -7.0079,0 -7.0079,5.035 -7.0079,5.035 0.5,-0.043 7.0508,-0.472 12.3907,10.887 0,0 -3.4922,-1.238 -7.5,-1.676 -2.3828,-0.266 -3.3946,1.234 -3.1094,1.211 0.418,-0.141 0.8984,-0.18 1.4961,-0.09 1.3242,0.207 3.1992,1.047 5.582,2.868 -0.6289,0.29 -9.2187,4.1 -5.8984,10 0,0 2.3672,-2.07 5.289,-2.33 2.1368,-0.19 5.8868,0.22 6.793,2.36 0,0 -4.625,0.28 -9.1719,3.13 -2.6796,1.68 -3.7187,5.65 -2.7421,4.49 1,-1.17 2.0195,-1.52 3.5625,-1.92 1.207,-0.31 2.0273,-0.01 2.0273,-0.01 0,0 -6.668,6.31 -2.4453,11.21 0,0 2.2461,-6.29 7.7695,-6.31 0,0 -2.8047,2.6 -3.3515,5.72 -0.3907,2.15 -0.2305,4.99 0.1601,4.17 0.2695,-0.56 0.8594,-1.57 1.2617,-2.3 0.6875,-1.24 2.1563,-2.9 3.3399,-3.92 0,0 -0.8399,3.29 0.2968,6.28 0.1797,0.46 1.7188,2.98 1.8321,2.35 0,0 0.0195,-1.98 0.125,-2.61 0.332,-2.12 1.1523,-4.77 5.1523,-8.85 5.0742,-5.17 10.5625,-5.13 10.6094,-8.36 -0.2109,-3.84 -4.9414,-3.35 -8.0508,-3.08 -1.0898,0 -0.9375,-1.64 -0.039,-2.83 2.582,-3.46 13.5703,-4.3 17.0117,1.33 1.2109,1.96 1.5468,4.32 0.7265,6.51 -1.039,2.92 -3.3984,3.01 -7.8906,3.99 -3.168,0.68 -2.3086,2.12 -1.8437,2.12 0,0 0.9648,-0.55 1.9179,-0.56 2.3477,-0.01 0.9063,3.01 0.6602,2.97 -0.5899,-0.09 -3.1406,-1.11 -5.3242,-1.29 -2.7774,-0.25 -6.1172,0.86 -6.1172,2.79 0,2.32 2.9219,2.97 2.789,2.36 -0.0312,-0.14 -1.75,-3.29 3.375,-3.12 1.625,0.05 4.8946,0.24 4.8868,0.38 -0.0977,0.87 -1.6211,2.1 -2.7774,2.1 -0.8594,0 -1.664,-0.23 -3.2265,-0.07 -0.5547,1.39 0.9453,2.78 1.9765,3.29 1.0274,0.53 1.7578,0.28 2.207,0.45 0.6094,0.2 0.961,2.09 4.3985,2.15 1.8008,0.02 4.414,-1.22 5.625,-1.22 1.1953,0 3.3398,0.77 3.5547,0.4 0.2148,-0.4 -0.8594,-1.64 -0.6446,-2.72 -0.1054,-2.5 4.2383,-12.43 8.8086,-13.37 4.5782,0.94 8.9297,10.87 8.8282,13.37 0.207,1.08 -0.8594,2.32 -0.6485,2.72 0.2188,0.37 2.3555,-0.4 3.5586,-0.4 1.211,0 3.8164,1.24 5.6211,1.22 3.4414,-0.06 3.7852,-1.95 4.3984,-2.15 0.4493,-0.17 1.1797,0.08 2.211,-0.45 1.0317,-0.51 2.5317,-1.9 1.9687,-3.29 -1.5586,-0.16 -2.3593,0.07 -3.2187,0.07 -1.1602,0 -2.6797,-1.23 -2.7774,-2.1 -0.0156,-0.14 3.2579,-0.33 4.8791,-0.38 5.129,-0.17 3.406,2.98 3.379,3.12 -0.133,0.61 2.785,-0.04 2.785,-2.36 0,-1.93 -3.34,-3.04 -6.117,-2.79 -2.1761,0.18 -4.7307,1.2 -5.3167,1.29 -0.2539,0.04 -1.6914,-2.98 0.6563,-2.97 0.9492,0.01 1.9218,0.56 1.9218,0.56 0.4571,0 1.3164,-1.44 -1.8515,-2.12 -4.4883,-0.98 -6.8516,-1.07 -7.8906,-3.99 -0.8204,-2.19 -0.4805,-4.55 0.7343,-6.51 3.4375,-5.63 14.4254,-4.79 17.0044,-1.33 0.906,1.19 1.05,2.83 -0.04,2.83 -3.109,-0.27 -7.8394,-0.76 -8.0464,3.08 0.0508,3.23 5.5394,3.19 10.6054,8.36 4.004,4.08 4.824,6.73 5.152,8.85 0.114,0.63 0.133,2.61 0.133,2.61 0.106,0.63 1.649,-1.89 1.824,-2.35 1.145,-2.99 0.305,-6.28 0.305,-6.28 1.18,1.02 2.652,2.68 3.34,3.92 0.398,0.73 0.988,1.74 1.258,2.3 0.39,0.82 0.554,-2.02 0.164,-4.17 -0.555,-3.12 -3.352,-5.72 -3.352,-5.72 5.52,0.02 7.77,6.31 7.77,6.31 4.219,-4.9 -2.453,-11.21 -2.453,-11.21 0,0 0.82,-0.3 2.031,0.01 1.543,0.4 2.559,0.75 3.559,1.92 0.984,1.16 -0.055,-2.81 -2.739,-4.49 -4.551,-2.85 -9.168,-3.13 -9.168,-3.13 0.899,-2.14 4.649,-2.55 6.785,-2.36 2.926,0.26 5.293,2.33 5.293,2.33 3.321,-5.9 -5.265,-9.71 -5.898,-10 2.379,-1.821 4.258,-2.661 5.578,-2.868 0.602,-0.09 1.082,-0.051 1.504,0.09 0.277,0.023 -0.734,-1.477 -3.109,-1.211 -4.012,0.438 -7.5,1.676 -7.5,1.676 5.336,-11.359 11.886,-10.93 12.386,-10.887 0,0 0,-5.035 -7.011,-5.035 -0.36,0 -0.719,0.027 -1.055,0.082 -2.594,0.398 -4.824,2.117 -5.094,2.332 0.102,-3.719 8.321,-7.601 8.321,-7.601 0.417,-0.391 -1.84,-1.223 -4.809,-0.758 -1.5,0.23 -3.18,0.785 -4.781,1.89 -3.789,2.594 -6.86,8.071 -7.129,8.563 -2.102,-8.598 4.879,-12.649 6.605,-12.883 1.047,-0.137 -1.578,-1.355 -4.199,-0.945 -0.488,0.074 -0.977,0.207 -1.449,0.41 -4.879,2.14 -7.61,7.144 -7.856,7.625 -0.101,-0.418 -1.004,-4.699 2.489,-8.781 0.109,-0.133 -0.18,-0.164 -0.653,-0.094 -0.586,0.09 -1.461,0.351 -2.121,0.808 -2.6795,1.907 -4.8592,5.04 -5.3162,9.012 -2.3711,-0.43 -4.0547,-2.734 -4.8829,-4.574 -0.7851,-1.68 -0.7578,-3.785 0.1524,-5.313 1.2578,-2.191 2.539,-3.246 4.2265,-3.589 1.4219,-0.282 2.9102,-0.231 4.2932,-0.469 1.211,-0.211 2.34,-0.649 3.265,-1.738 1.325,-1.555 0.325,-5.215 -1.785,-4.653 0,0 0.688,1.735 -0.687,3.063 -0.524,0.359 -1.043,0.586 -1.5549,0.664 -1.0586,0.16 -2.0352,-0.313 -2.6289,-1.422 -1.293,-2.422 3.5118,-5.379 5.8088,-6.293 0,0 1.238,-0.797 2.582,-1.008 1.371,-0.211 2.828,0.195 3.187,2.668 -0.488,0.473 -1.765,0.692 -1.726,3.055 0.039,1.894 1.547,2.695 1.547,2.695 0.543,2.289 4.05,2.141 4.05,2.141 0.301,-0.074 0.039,-0.235 -0.148,-0.305 -0.91,-0.32 -1.117,-1.098 -0.938,-1.68 0.165,-0.566 1.926,-1.652 0.536,-5.316 0.23,-0.023 1.812,-0.094 2.101,2.465 0.113,0.992 -0.238,1.906 0.18,2.711 0.351,0.668 1.289,1.152 2.281,0.855 1.039,0.391 1.867,0.469 2.527,0.363 1.903,-0.285 2.364,-2.078 2.364,-2.078 0,0 0.031,-0.23 -0.18,-0.175 -0.172,0.062 -0.41,0.121 -0.668,0.164 -0.926,0.144 -2.137,0.058 -1.933,-0.641 0.14,-0.461 0.523,-1.105 -0.461,-2.379 -1.45,-1.863 -4.473,-0.555 -3.571,-4.406 0.133,0.191 0.903,1.226 2.563,1.066 1.41,-0.133 2.879,-1.769 2.871,-4.097 -0.051,-0.875 -0.402,-1.625 -1.211,-2.172 0,0 -0.125,0.101 -0.078,0.242 0.246,1.051 -0.184,1.777 -0.953,1.934 -1.461,0.121 -0.977,-0.965 -2.77,-0.934 -0.25,0.008 -0.473,0.031 -0.66,0.059 -0.684,0.109 -1.102,0.332 -1.543,0.398 -0.137,0.019 -0.277,0.023 -0.43,0.004 -2.257,-0.285 -5.156,-1.969 -6.211,-3.551 -1.039,-1.57 0.133,-2.031 -0.82,-3.492 -0.809,-1.25 -1.738,-1.145 -1.738,-1.145 0,0 -0.039,-0.363 0.012,-0.8 0.019,-0.168 0.046,-0.344 0.101,-0.516 z m -5.9921,-2.258 c 1.4219,0.418 2.9801,0.977 4.5901,1.649 -0.199,0.277 -0.371,0.644 -0.489,1.125 -0.101,0.375 -0.168,0.82 -0.214,1.347 0,0 -1.317,1.235 -0.727,2.797 0.727,1.938 2.449,1.348 1.738,3.649 -0.785,2.558 -5.7067,6.835 -8.8161,7.328 -0.75,0.113 -1.3945,0.004 -1.8437,-0.407 -1.0586,-0.945 -1.2579,-3.617 2.0703,-3.847 -0.6797,-1.383 -1.8399,-1.766 -3.75,-1.324 -1.5,0.355 -3.0547,2.675 -2.461,5.722 0.7813,3.977 -1.6992,7.149 -4.0742,7.528 -0.3437,0.05 -0.6719,0.046 -0.9922,-0.02 -2.832,-0.484 -2.3593,-4.617 -2.3593,-4.617 l 1.4414,-16.102 c -0.0743,-0.5 0.1445,-1.25 0.6289,-2.054 0.9179,-1.536 2.8086,-3.266 5.4687,-3.836 2.2891,-0.434 4.1328,0.125 4.7305,0.918 0.168,0.25 1.1601,1.738 0.6523,2.918 -0.1523,0.363 -0.4414,0.691 -0.9453,0.949 -0.125,0.066 -0.2578,0.109 -0.3906,0.125 -0.8477,0.121 -1.375,-0.66 -1.5352,-0.563 -0.4492,1.098 0.1875,3.102 3.168,2.535 2.0117,-0.371 2.6992,-1.71 2.8711,-3.039 0.1992,-1.558 -0.332,-3.113 -0.332,-3.113 0,0 0.6211,0.223 1.5703,0.332 z m -8.3008,-5.75 c -0.0273,0.235 -0.0586,0.715 0.0117,1.281 -2.168,0.621 -4.5625,0.977 -5.8984,1.68 -2.5196,1.191 -3.5391,2.75 -3.5391,2.75 0,0 -0.164,-0.195 -0.125,-1.133 0.5313,-4.703 3.332,-4.902 6.1719,-5.558 1.25,-0.328 2.6094,-1.133 3.3789,-2.422 z M 190.938,846.25 c -0.442,-0.91 -0.418,-2.633 0.218,-3.484 2.34,-3.129 11.602,-4.11 15.871,-0.082 -5.527,0.859 -10.754,2.285 -16.089,3.566 z m 25.746,8.668 c 1.375,-1.863 2.964,-3.324 4.589,-3.656 4.571,0.933 8.938,10.867 8.825,13.371 0.211,1.074 -0.86,2.308 -0.649,2.711 0.219,0.379 2.367,-0.403 3.559,-0.403 1.211,0 3.816,1.247 5.629,1.223 3.429,-0.051 3.789,-1.941 4.39,-2.148 0.45,-0.168 1.184,0.078 2.211,-0.446 1.028,-0.504 2.532,-1.902 1.969,-3.293 -1.559,-0.16 -2.359,0.067 -3.219,0.067 -1.16,0 -2.679,-1.227 -2.773,-2.094 -0.02,-0.141 3.254,-0.328 4.883,-0.383 5.129,-0.16 3.41,2.977 3.371,3.125 -0.133,0.606 2.789,-0.039 2.789,-2.363 0,-1.93 -3.344,-3.039 -6.121,-2.793 -2.176,0.191 -4.723,1.207 -5.321,1.297 -0.25,0.039 -1.691,-2.988 0.672,-2.973 0.938,0 1.91,0.559 1.91,0.559 0.469,0 1.329,-1.438 -1.851,-2.121 -4.481,-0.977 -6.852,-1.063 -7.891,-3.985 -0.808,-2.191 -0.476,-4.554 0.735,-6.523 3.437,-5.613 14.425,-4.774 17.015,-1.324 0.895,1.187 1.039,2.832 -0.051,2.832 -3.097,-0.266 -7.839,-0.766 -8.05,3.082 0.05,3.234 5.55,3.195 10.621,8.367 3.988,4.07 4.808,6.726 5.152,8.84 0.098,0.636 0.133,2.609 0.133,2.609 0.098,0.633 1.644,-1.887 1.812,-2.344 1.145,-2.996 0.305,-6.281 0.305,-6.281 1.176,1.016 2.66,2.68 3.34,3.922 0.398,0.73 1,1.734 1.262,2.293 0.386,0.82 0.55,-2.02 0.168,-4.168 -0.563,-3.117 -3.36,-5.723 -3.36,-5.723 5.528,0.028 7.77,6.317 7.77,6.317 4.219,-4.903 -2.449,-11.215 -2.449,-11.215 0,0 0.82,-0.297 2.031,0.012 1.535,0.398 2.555,0.746 3.558,1.921 0.993,1.157 -0.058,-2.816 -2.742,-4.492 -4.539,-2.851 -9.168,-3.125 -9.168,-3.125 0.899,-2.148 4.649,-2.558 6.785,-2.371 2.922,0.262 5.305,2.332 5.305,2.332 3.313,-5.894 -5.277,-9.707 -5.914,-9.988 2.383,-1.828 4.274,-2.668 5.582,-2.871 0.602,-0.094 1.078,-0.055 1.5,0.086 0.281,0.023 -0.726,-1.473 -3.105,-1.211 -4.016,0.441 -7.5,1.672 -7.5,1.672 5.343,-11.36 11.882,-10.926 12.386,-10.883 0,0 0,-5.035 -7.011,-5.035 -0.356,0 -0.707,0.027 -1.059,0.082 -2.59,0.394 -4.82,2.113 -5.09,2.328 0.11,-3.715 8.321,-7.598 8.321,-7.598 0.429,-0.39 -1.84,-1.218 -4.809,-0.758 -1.5,0.231 -3.184,0.79 -4.781,1.891 -3.789,2.594 -6.86,8.07 -7.129,8.566 -2.098,-8.601 4.879,-12.652 6.605,-12.89 1.043,-0.133 -1.574,-1.348 -4.195,-0.938 -0.488,0.071 -0.984,0.203 -1.453,0.411 -4.875,2.136 -7.598,7.14 -7.86,7.621 -0.089,-0.414 -0.996,-4.7 2.489,-8.782 0.125,-0.129 -0.176,-0.164 -0.649,-0.089 -0.59,0.085 -1.449,0.343 -2.109,0.804 -2.68,1.91 -4.867,5.039 -5.328,9.008 -2.371,-0.426 -4.051,-2.73 -4.871,-4.57 -0.801,-1.68 -0.774,-3.785 0.14,-5.313 1.258,-2.191 2.547,-3.246 4.239,-3.59 1.41,-0.281 2.902,-0.226 4.281,-0.472 1.222,-0.211 2.347,-0.645 3.265,-1.735 1.325,-1.554 0.325,-5.215 -1.785,-4.656 0,0 0.7,1.738 -0.687,3.063 -0.516,0.363 -1.047,0.586 -1.555,0.668 -1.058,0.156 -2.039,-0.313 -2.633,-1.422 -1.289,-2.422 3.512,-5.379 5.813,-6.297 0,0 1.238,-0.793 2.594,-1.004 1.355,-0.207 2.828,0.195 3.175,2.668 -0.484,0.473 -1.769,0.691 -1.726,3.055 0.039,1.89 1.547,2.695 1.547,2.695 0.55,2.293 4.054,2.14 4.054,2.14 0.309,-0.074 0.039,-0.234 -0.152,-0.308 -0.902,-0.32 -1.117,-1.094 -0.941,-1.672 0.168,-0.57 1.933,-1.656 0.543,-5.32 0.226,-0.028 1.808,-0.098 2.097,2.465 0.113,0.988 -0.23,1.906 0.18,2.71 0.351,0.665 1.289,1.149 2.281,0.856 1.039,0.391 1.871,0.469 2.527,0.367 1.903,-0.289 2.36,-2.082 2.36,-2.082 0,0 0.031,-0.23 -0.18,-0.18 -0.168,0.067 -0.394,0.125 -0.66,0.172 -0.918,0.137 -2.129,0.059 -1.93,-0.644 0.133,-0.461 0.524,-1.106 -0.465,-2.379 -1.453,-1.86 -4.472,-0.551 -3.562,-4.41 0.117,0.195 0.891,1.23 2.559,1.07 1.402,-0.137 2.871,-1.77 2.863,-4.098 -0.051,-0.879 -0.391,-1.629 -1.203,-2.172 0,0 -0.129,0.102 -0.086,0.243 0.25,1.05 -0.184,1.773 -0.953,1.933 -1.461,0.125 -0.981,-0.968 -2.77,-0.929 -0.242,0.003 -0.457,0.023 -0.664,0.058 -0.68,0.106 -1.098,0.332 -1.535,0.395 -0.145,0.019 -0.281,0.023 -0.422,0.004 -2.269,-0.282 -5.172,-1.969 -6.223,-3.551 -1.039,-1.57 0.133,-2.031 -0.82,-3.488 -0.809,-1.25 -1.734,-1.149 -1.734,-1.149 0,0 -0.039,-0.363 0.008,-0.801 0.07,-0.621 0.328,-1.39 1.128,-1.562 0,0 0.243,-0.121 0.028,-0.188 -0.246,-0.082 -0.727,-0.218 -1.25,-0.129 -0.649,0.09 -1.348,0.532 -1.699,1.879 -0.098,0.375 -0.165,0.821 -0.2,1.348 0,0 -1.316,1.234 -0.726,2.793 0.726,1.941 2.449,1.352 1.738,3.652 -0.801,2.559 -5.719,6.836 -8.828,7.328 -0.754,0.114 -1.395,0.004 -1.844,-0.406 -1.047,-0.945 -1.258,-3.617 2.07,-3.847 -0.675,-1.387 -1.828,-1.766 -3.738,-1.321 -1.508,0.352 -3.07,2.676 -2.472,5.723 0.785,3.973 -1.7,7.148 -4.075,7.527 -0.332,0.051 -0.675,0.043 -0.992,-0.023 -2.82,-0.485 -2.359,-4.614 -2.359,-4.614 l 1.445,-16.105 c -0.078,-0.5 0.145,-1.25 0.621,-2.055 0.922,-1.539 2.813,-3.265 5.473,-3.832 2.301,-0.437 4.133,0.117 4.738,0.918 0.16,0.246 1.152,1.739 0.652,2.914 -0.16,0.368 -0.453,0.692 -0.941,0.953 -0.141,0.063 -0.269,0.102 -0.398,0.122 -0.84,0.121 -1.383,-0.665 -1.539,-0.563 -0.442,1.098 0.199,3.098 3.168,2.535 2.011,-0.371 2.71,-1.711 2.871,-3.043 0.199,-1.551 -0.332,-3.109 -0.332,-3.109 0,0 1.718,0.609 3.769,0.293 0.199,-0.031 0.391,-0.063 0.582,-0.113 1.602,-0.653 2.738,-1.434 2.969,-3.141 0.262,-1.992 -1.449,-2.949 -1.449,-2.949 0,0 0.519,1.433 -0.993,2.312 -0.394,0.207 -0.765,0.336 -1.121,0.391 -1.976,0.297 -2.988,-1.719 -2.879,-3.254 0.133,-2.441 -0.476,-4.375 -2.308,-4.633 -0.43,-0.031 -0.781,-0.012 -1.063,0.035 -1.328,0.199 -1.429,1.02 -1.429,1.02 0,0 1.984,-0.176 1.925,1.637 0.196,4.519 -7.707,4.417 -10.625,5.945 -2.511,1.191 -3.535,2.75 -3.535,2.75 0,0 -0.152,-0.195 -0.125,-1.133 0.535,-4.703 3.34,-4.902 6.172,-5.559 1.883,-0.492 4.012,-2.062 4.012,-4.726 0,-3.774 -2.481,-3.36 -2.481,-3.36 0,0 0.993,3.004 -1.738,3.434 -0.211,0.031 -0.43,0.051 -0.683,0.051 -1.547,0 -2.426,-0.777 -3.352,-1.52 -1.449,-1.164 -5.746,-6.203 -6.586,-7.023 -0.855,0.82 -5.152,5.859 -6.609,7.023 -0.926,0.743 -1.805,1.52 -3.34,1.52 -0.25,0 -0.485,-0.02 -0.68,-0.051 -2.746,-0.43 -1.746,-3.434 -1.746,-3.434 0,0 -2.476,-0.414 -2.476,3.36 0,2.664 2.121,4.234 3.996,4.726 2.843,0.657 5.656,0.856 6.183,5.559 0.028,0.938 -0.129,1.133 -0.129,1.133 0,0 -1.019,-1.559 -3.539,-2.75 -2.926,-1.528 -10.808,-1.426 -10.609,-5.945 -0.074,-1.813 1.918,-1.637 1.918,-1.637 0,0 -0.102,-0.821 -1.43,-1.02 -0.289,-0.047 -0.64,-0.066 -1.058,-0.035 -1.832,0.258 -2.446,2.192 -2.313,4.633 0.109,1.535 -0.906,3.551 -2.891,3.254 -0.339,-0.055 -0.722,-0.184 -1.117,-0.391 -1.511,-0.879 -0.98,-2.312 -0.98,-2.312 0,0 -1.719,0.957 -1.449,2.949 0.226,1.707 1.359,2.488 2.957,3.141 0.199,0.05 0.39,0.082 0.582,0.113 2.05,0.316 3.769,-0.293 3.769,-0.293 0,0 -0.519,1.558 -0.332,3.109 0.168,1.332 0.871,2.672 2.871,3.043 2.977,0.563 3.621,-1.437 3.168,-2.535 -0.156,-0.102 -0.687,0.684 -1.539,0.563 -0.117,-0.02 -0.25,-0.059 -0.391,-0.122 -0.488,-0.261 -0.789,-0.585 -0.937,-0.953 -0.504,-1.175 0.48,-2.668 0.648,-2.914 0.602,-0.801 2.438,-1.355 4.735,-0.918 2.656,0.567 4.547,2.293 5.469,3.832 0.476,0.805 0.699,1.555 0.628,2.055 l 1.45,16.105 c 0,0 0.461,4.129 -2.364,4.614 -0.328,0.066 -0.66,0.074 -0.996,0.023 -2.383,-0.379 -4.863,-3.554 -4.082,-7.527 0.602,-3.047 -0.961,-5.371 -2.461,-5.723 -1.91,-0.445 -3.066,-0.066 -3.738,1.321 3.328,0.23 3.117,2.902 2.07,3.847 -0.449,0.41 -1.097,0.52 -1.851,0.406 -3.11,-0.492 -8.028,-4.769 -8.821,-7.328 -0.707,-2.3 1.012,-1.711 1.743,-3.652 0.59,-1.559 -0.731,-2.793 -0.731,-2.793 -0.039,-0.527 -0.109,-0.973 -0.199,-1.348 -0.359,-1.347 -1.059,-1.789 -1.707,-1.879 -0.516,-0.089 -0.992,0.047 -1.242,0.129 0.832,0.36 1.078,1.129 1.148,1.75 0.047,0.438 0.008,0.801 0.008,0.801 0,0 -0.926,-0.101 -1.738,1.149 -0.942,1.457 0.218,1.918 -0.809,3.488 -1.051,1.582 -3.949,3.269 -6.223,3.551 -0.144,0.019 -0.289,0.015 -0.429,-0.004 -0.438,-0.063 -0.86,-0.289 -1.535,-0.395 -0.192,-0.035 -0.411,-0.055 -0.661,-0.058 -1.792,-0.039 -1.304,1.054 -2.773,0.929 -0.758,-0.16 -1.203,-0.883 -0.949,-1.933 0.039,-0.141 -0.082,-0.243 -0.082,-0.243 -0.805,0.543 -1.149,1.293 -1.207,2.172 -0.008,2.328 1.465,3.961 2.867,4.098 1.66,0.16 2.434,-0.875 2.562,-1.07 0.911,3.859 -2.113,2.55 -3.574,4.41 -0.976,1.273 -0.586,1.918 -0.457,2.379 0.199,0.703 -1.012,0.781 -1.929,0.644 -0.258,-0.047 -0.504,-0.105 -0.668,-0.172 -0.18,0.18 0.289,1.973 2.187,2.262 0.648,0.102 1.481,0.024 2.527,-0.367 0.985,0.293 1.926,-0.191 2.274,-0.856 0.418,-0.804 0.07,-1.722 0.18,-2.71 0.3,-2.563 1.871,-2.493 2.109,-2.465 -1.387,3.664 0.359,4.75 0.543,5.32 0.18,0.578 -0.039,1.352 -0.953,1.672 -0.192,0.074 -0.449,0.234 -0.149,0.308 0,0 3.508,0.153 4.047,-2.14 0,0 1.512,-0.805 1.551,-2.695 0.043,-2.364 -1.242,-2.582 -1.731,-3.055 0.364,-2.473 1.825,-2.875 3.196,-2.668 1.336,0.211 2.578,1.004 2.578,1.004 2.309,0.918 7.098,3.875 5.809,6.297 -0.59,1.109 -1.563,1.578 -2.629,1.422 -0.508,-0.082 -1.032,-0.305 -1.539,-0.668 -1.391,-1.325 -0.704,-3.063 -0.704,-3.063 -2.109,-0.559 -3.097,3.102 -1.777,4.656 0.918,1.09 2.051,1.524 3.262,1.735 1.375,0.246 2.863,0.191 4.285,0.472 1.691,0.344 2.98,1.399 4.23,3.59 0.922,1.528 0.954,3.633 0.153,5.313 -0.824,1.84 -2.512,4.144 -4.879,4.57 -0.449,-3.969 -2.645,-7.098 -5.324,-9.008 -0.661,-0.461 -1.528,-0.719 -2.11,-0.804 -0.468,-0.075 -0.769,-0.04 -0.66,0.089 3.492,4.082 2.59,8.368 2.492,8.782 -0.25,-0.481 -2.984,-5.485 -7.851,-7.621 -0.469,-0.208 -0.961,-0.34 -1.461,-0.411 -2.617,-0.41 -5.238,0.805 -4.199,0.938 1.73,0.238 8.711,4.289 6.613,12.89 -0.274,-0.496 -3.34,-5.972 -7.121,-8.566 -1.61,-1.101 -3.289,-1.66 -4.785,-1.891 -2.977,-0.46 -5.239,0.368 -4.821,0.758 0,0 8.227,3.883 8.325,7.598 -0.27,-0.215 -2.493,-1.934 -5.083,-2.328 -0.347,-0.055 -0.707,-0.082 -1.058,-0.082 -7.012,0 -7.012,5.035 -7.012,5.035 0.488,-0.043 7.043,-0.477 12.395,10.883 0,0 -3.492,-1.231 -7.512,-1.672 -2.383,-0.262 -3.379,1.234 -3.102,1.211 0.422,-0.141 0.891,-0.18 1.493,-0.086 1.316,0.203 3.199,1.043 5.589,2.871 -0.64,0.281 -9.234,4.094 -5.914,9.988 0,0 2.375,-2.07 5.293,-2.332 2.149,-0.187 5.891,0.223 6.797,2.371 0,0 -4.629,0.274 -9.168,3.125 -0.148,0.094 -0.277,0.188 -0.422,0.289 -2.058,0.004 -4.199,-0.097 -6.414,-0.332 -1.476,-5.757 -6.242,-9.965 -11.894,-9.965 -5.625,0 -10.375,4.168 -11.875,9.887 -3.664,0.649 -7.196,0.731 -10.656,0.453 L 49.9063,763.344 c 7.7695,-7.27 16.2617,-13.434 25.1406,-18.571 l 75.2691,80.153 v -42.434 l -47.269,-50.34 c 17.191,-5.804 34.519,-8.437 49.859,-8.437 58.711,0 146.379,38.453 144.379,146.07 v 69.219 l -37.617,-40.055 h -39.84 l 77.457,82.489 v 45.352 L 216.07,940.301 c 0.375,-0.313 0.594,-0.653 0.594,-1.039 z m -8.758,-25.957 h 26.722 v 10.738 h -26.734 z m 13.347,-20.953 c 12.024,0 13.075,11.34 13.075,11.34 h -26.207 c 0,0 1.117,-11.34 13.132,-11.34 z M 61.9297,994.988 h 26.7187 v 10.742 H 61.9102 Z m 13.3476,-20.953 c 12.0235,0 13.0665,11.344 13.0665,11.344 H 62.1406 c 0,0 1.1172,-11.344 13.1367,-11.344 z M 147.367,850.504 c 0,-3.176 2.571,-5.75 5.746,-5.75 3.176,0 5.754,2.574 5.754,5.75 0,3.172 -2.578,5.75 -5.754,5.75 -3.175,0 -5.746,-2.578 -5.746,-5.75 z m -54.2186,86.574 v -88.125 c 0,0 0.9688,-1.176 6.8556,0.43 6.781,1.847 15.191,10.488 26.973,13.058 8.839,1.926 20.753,-0.855 23.531,-2.785 v 88.285 c 0,0 -5.344,5.247 -14.121,5.247 -8.559,0 -23.008,-7.708 -28.571,-10.489 -4.836,-2.418 -9.941,-4.25 -13.6519,-4.601 -1.1172,-0.11 -1.0157,-1.02 -1.0157,-1.02 z m 77.2656,-74.422 c 15.305,0 23.281,-9.492 28.473,-11.558 12.09,-4.821 14.121,-2.36 14.121,-2.36 v 88.61 c 0,0.859 -1.278,0.859 -1.278,0.859 0,0 -11.804,1.805 -15.839,4.277 -3.856,2.352 -18.203,10.918 -28.684,10.918 -10.523,0 -12.406,-4.496 -12.406,-4.496 v -89.465 c 0,0 4.918,3.215 15.613,3.215 v 0"
         style="fill:#cf1e25;fill-opacity:1;fill-rule:nonzero;stroke:none"
         id="path74" />
    </g>
  </g>
</svg>
