<?xml version="1.0" encoding="utf-8"?>
<!-- Generator: Adobe Illustrator 27.2.0, SVG Export Plug-In . SVG Version: 6.00 Build 0)  -->
<svg version="1.1" id="Layer_1" xmlns="http://www.w3.org/2000/svg" xmlns:xlink="http://www.w3.org/1999/xlink" x="0px" y="0px"
	 viewBox="0 0 283.46 249.09" style="enable-background:new 0 0 283.46 249.09;" xml:space="preserve">
<g>
	<g>
		<path d="M77.49,158.92c0,1.73,0,3.7-2.23,5.07c-1.26,0.76-2.77,0.81-3.27,0.81c-0.95,0-3.1-0.19-4.24-1.52
			c-1.18-1.42-1.26-2.75-1.26-4.15v-10.38h2.92v10.17c0,0.92,0.12,1.97,0.69,2.56c0.52,0.55,1.42,0.83,2.23,0.83
			c0.9,0,1.92-0.36,2.35-0.97c0.47-0.66,0.55-1.66,0.55-2.42v-10.17h2.28V158.92z"/>
		<path d="M95.55,164.56h-2.61l-6.19-10.1c-0.17-0.26-0.73-1.47-0.88-1.75v11.85h-2.28v-15.81h3.15l5.55,9.31
			c0.05,0.12,0.43,0.81,0.97,1.85v-11.16h2.28V164.56z"/>
		<path d="M102.56,164.56v-15.81h2.84v15.81H102.56z"/>
		<path d="M115.65,164.56l-4.88-15.81h3.01l3.63,12.11l3.7-12.11h2.37l-4.93,15.81H115.65z"/>
		<path d="M128.8,164.56v-15.81h10.17v2.35h-7.32v4.29h5.88v2.3h-5.88v4.43h7.42v2.44H128.8z"/>
		<path d="M154.28,164.56l-2.47-6.49h-4.01v6.49h-2.84v-15.81h6.85c1.97,0,3.15,0.38,4.12,1.23c0.81,0.73,1.42,1.8,1.42,3.41
			c0,2.96-2.04,3.84-2.84,4.2l2.77,6.97H154.28z M147.81,155.8h3.56c1.4,0,3.03-0.47,3.03-2.44c0-1.18-0.78-2.32-2.8-2.32h-3.79
			V155.8z"/>
		<path d="M164.28,160.16c0.14,0.57,0.43,1.59,1.85,2.04c0.78,0.26,1.45,0.31,1.97,0.31c2.63,0,3.15-1.37,3.15-2.09
			c0-1.49-1.23-1.87-1.94-2.06l-3.53-0.9c-2.3-0.59-3.41-2.2-3.41-4.22c0-2.99,2.42-4.72,5.59-4.72c1.56,0,3.1,0.4,4.34,1.37
			c0.95,0.76,1.18,1.52,1.33,2.04l-2.7,0.69c-0.19-0.54-0.66-1.8-2.92-1.8c-2.18,0-2.73,1.16-2.73,1.97c0,1.23,1.4,1.68,2.2,1.9
			l2.68,0.66c1.35,0.36,4.1,1.11,4.1,4.5c0,3.13-2.68,4.95-6.28,4.95c-1.9,0-3.56-0.45-4.86-1.49c-1.07-0.85-1.35-1.82-1.59-2.56
			L164.28,160.16z"/>
		<path d="M180.25,164.56v-15.81h2.84v15.81H180.25z"/>
		<path d="M192.6,164.56V151.2h-4.2v-2.44h11.45v2.44h-4.2v13.37H192.6z"/>
		<path d="M208.84,164.56v-6.66l-5.38-9.15h3.44l3.74,6.52l3.58-6.52h2.75l-5.12,9.15v6.66H208.84z"/>
	</g>
	<g>
		<path d="M80.31,190.66c-4.98,0-6.66-4.62-6.66-8.2c0-4.27,2.42-8.08,6.78-8.08c4.46,0,6.66,3.89,6.66,8.13
			C87.09,187.34,84.46,190.66,80.31,190.66z M83.23,178.4c-0.81-1.64-2.2-1.73-2.84-1.73c-2.99,0-3.65,3.06-3.65,5.88
			c0,1.87,0.31,5.81,3.6,5.81c1.42,0,2.49-0.88,2.96-1.82c0.38-0.76,0.71-1.8,0.71-4.05C84.01,181.84,83.96,179.9,83.23,178.4z"/>
		<path d="M91.85,190.42v-15.81h9.98v2.44h-7.06v4.34h5.57v2.37h-5.57v6.66H91.85z"/>
		<path d="M114.96,186.01c0.14,0.57,0.43,1.59,1.85,2.04c0.78,0.26,1.45,0.31,1.97,0.31c2.63,0,3.15-1.37,3.15-2.09
			c0-1.49-1.23-1.87-1.94-2.06l-3.53-0.9c-2.3-0.59-3.41-2.2-3.41-4.22c0-2.99,2.42-4.72,5.59-4.72c1.56,0,3.1,0.4,4.34,1.37
			c0.95,0.76,1.19,1.52,1.33,2.04l-2.7,0.69c-0.19-0.54-0.66-1.8-2.92-1.8c-2.18,0-2.73,1.16-2.73,1.97c0,1.23,1.4,1.68,2.2,1.9
			l2.68,0.66c1.35,0.36,4.1,1.11,4.1,4.5c0,3.13-2.68,4.95-6.28,4.95c-1.9,0-3.56-0.45-4.86-1.49c-1.07-0.85-1.35-1.82-1.59-2.56
			L114.96,186.01z"/>
		<path d="M141.05,184.78c0,1.73,0,3.7-2.23,5.07c-1.26,0.76-2.77,0.81-3.27,0.81c-0.95,0-3.1-0.19-4.24-1.52
			c-1.18-1.42-1.26-2.75-1.26-4.15v-10.38h2.92v10.17c0,0.92,0.12,1.97,0.69,2.56c0.52,0.55,1.42,0.83,2.23,0.83
			c0.9,0,1.92-0.36,2.35-0.97c0.47-0.66,0.55-1.66,0.55-2.42v-10.17h2.28V184.78z"/>
		<path d="M147.81,186.01c0.14,0.57,0.43,1.59,1.85,2.04c0.78,0.26,1.45,0.31,1.97,0.31c2.63,0,3.15-1.37,3.15-2.09
			c0-1.49-1.23-1.87-1.94-2.06l-3.53-0.9c-2.3-0.59-3.41-2.2-3.41-4.22c0-2.99,2.42-4.72,5.59-4.72c1.56,0,3.1,0.4,4.34,1.37
			c0.95,0.76,1.18,1.52,1.33,2.04l-2.7,0.69c-0.19-0.54-0.66-1.8-2.92-1.8c-2.18,0-2.73,1.16-2.73,1.97c0,1.23,1.4,1.68,2.2,1.9
			l2.68,0.66c1.35,0.36,4.1,1.11,4.1,4.5c0,3.13-2.68,4.95-6.28,4.95c-1.9,0-3.56-0.45-4.86-1.49c-1.07-0.85-1.35-1.82-1.59-2.56
			L147.81,186.01z"/>
		<path d="M163.95,186.01c0.14,0.57,0.43,1.59,1.85,2.04c0.78,0.26,1.45,0.31,1.97,0.31c2.63,0,3.15-1.37,3.15-2.09
			c0-1.49-1.23-1.87-1.94-2.06l-3.53-0.9c-2.3-0.59-3.41-2.2-3.41-4.22c0-2.99,2.42-4.72,5.59-4.72c1.56,0,3.1,0.4,4.34,1.37
			c0.95,0.76,1.18,1.52,1.33,2.04l-2.7,0.69c-0.19-0.54-0.66-1.8-2.92-1.8c-2.18,0-2.73,1.16-2.73,1.97c0,1.23,1.4,1.68,2.2,1.9
			l2.68,0.66c1.35,0.36,4.1,1.11,4.1,4.5c0,3.13-2.68,4.95-6.28,4.95c-1.9,0-3.56-0.45-4.86-1.49c-1.07-0.85-1.35-1.82-1.59-2.56
			L163.95,186.01z"/>
		<path d="M179.09,190.42v-15.81h10.17v2.35h-7.32v4.29h5.88v2.3h-5.88v4.43h7.42v2.44H179.09z"/>
		<path d="M203.62,190.42l-3.48-6.23l-3.72,6.23h-2.65l5.02-8.25l-4.31-7.56h3.32l2.92,5.26l3.08-5.26h2.68l-4.41,7.2l4.88,8.6
			H203.62z"/>
	</g>
	<path d="M86.69,101.18c0,16.72,7.36,26.19,23.46,26.19c11.62,0,20.64-6.72,24.98-17.21c0.07-0.12,0.11-0.19,0.11-0.19
		c0,0.07,0.04,0.1,0.07,0.17c5.43,10.65,16.87,17.28,32.8,17.28c16.8,0,30.05-8.69,30.05-21.41c0-9.18-5.81-14.86-17.61-20.18
		c-1.76-0.79-5.32-2.45-6.97-3.23c-6.09-2.93-9.65-5.58-9.65-11.09c0-5.87,5.18-9.72,12.01-9.72c10.78,0,15.04,8.07,18.04,16.74
		h2.64l-1.37-19.06h-1.97c0,0-0.11,0.11-0.25,0.3c-1.44,1.74-3.06,1.73-6.02,0.72c-3.28-1.11-7.05-2.09-11.31-2.09
		c-13,0-22.69,8.16-22.69,18.54c0,8.75,5.25,14.37,15.32,18.96c1.41,0.65,4.9,2.29,6.73,3.16c5.88,2.8,10.74,5.72,10.74,12.02
		c0,8.32-8.52,12.83-17.72,12.83c-14.69,0-23-9.54-23-25.88V60.03h-25.57v2.61c0.28,0,0.56,0.03,0.85,0.04
		c9.9,0.88,11.17,2.59,11.17,12.79l-0.03,22.16c0,15.71-6.38,24.95-17.12,24.95c-9.79,0-13.28-7.52-13.28-20.6l-0.07-41.95H75.45
		v2.61c0.14,0.01,0.39,0.03,0.63,0.04c9.19,0.88,10.6,2.09,10.6,12.57V101.18z"/>
</g>
</svg>
