<?xml version="1.0" encoding="UTF-8"?>
<svg version="1.1" xmlns="http://www.w3.org/2000/svg" width="1241" height="220">
<path d="M0 0 C2.93847653 -0.107834 5.87301151 -0.18721916 8.8125 -0.25 C9.64587891 -0.28351563 10.47925781 -0.31703125 11.33789062 -0.3515625 C17.51777545 -0.45083776 17.51777545 -0.45083776 20.01010418 1.87927151 C20.3367698 2.57911191 20.66343542 3.27895231 21 4 C21.33852493 4.71994644 21.67704987 5.43989288 22.02583313 6.18165588 C22.33224228 6.97321579 22.63865143 7.7647757 22.9543457 8.58032227 C23.48773056 9.9442083 23.48773056 9.9442083 24.03189087 11.33564758 C24.40937469 12.31929794 24.78685852 13.3029483 25.17578125 14.31640625 C25.5769516 15.34650314 25.97812195 16.37660004 26.39144897 17.43791199 C27.25368106 19.65372844 28.11312222 21.87063252 28.97006226 24.08850098 C30.78593754 28.7876753 32.61550384 33.48147753 34.44447327 38.17556763 C35.36175666 40.53002363 36.27837246 42.88473983 37.19432068 45.23971558 C40.64082128 54.09745127 44.1403365 62.93218298 47.6875 71.75 C54.31644937 88.25271676 60.8791297 104.78164403 67.4375 121.3125 C67.84515972 122.33996527 67.84515972 122.33996527 68.26105499 123.38818741 C77.19894491 145.91562857 86.11781369 168.45052925 95 191 C97.09657324 188.90342676 97.7155914 187.57392233 98.79220581 184.85453796 C99.13942184 183.98496964 99.48663788 183.11540131 99.84437561 182.21948242 C100.22041428 181.26235352 100.59645294 180.30522461 100.98388672 179.3190918 C101.38430679 178.31199661 101.78472687 177.30490143 102.19728088 176.26728821 C103.52955712 172.91315052 104.85452459 169.55617244 106.1796875 166.19921875 C107.1116389 163.84996012 108.04411177 161.50090831 108.9770813 159.15205383 C111.19406337 153.56760525 113.40670862 147.9814591 115.61698735 142.3943556 C120.23465073 130.72220927 124.86250438 119.05410207 129.4921875 107.38671875 C129.96139996 106.20368353 130.43061241 105.02064831 130.91404343 103.80176353 C136.54363317 89.6123515 142.22259007 75.44960595 148.10723877 61.36398315 C151.30615274 53.70557432 154.41529616 46.01523171 157.4765625 38.30078125 C157.90742157 37.215728 158.33828064 36.13067474 158.78219604 35.01274109 C160.5128475 30.6499621 162.24086035 26.28616297 163.96337891 21.92016602 C165.25490442 18.6493859 166.55273823 15.38116852 167.8515625 12.11328125 C168.43582504 10.62469353 168.43582504 10.62469353 169.03189087 9.10603333 C169.39342255 8.19874985 169.75495422 7.29146637 170.12744141 6.35668945 C170.44210358 5.56035599 170.75676575 4.76402252 171.08096313 3.94355774 C172 2 172 2 174 0 C175.87939453 -0.22705078 175.87939453 -0.22705078 178.1328125 -0.1953125 C179.34130859 -0.18564453 179.34130859 -0.18564453 180.57421875 -0.17578125 C181.83685547 -0.15064453 181.83685547 -0.15064453 183.125 -0.125 C184.39923828 -0.11146484 184.39923828 -0.11146484 185.69921875 -0.09765625 C187.79959884 -0.07405647 189.89983444 -0.03818483 192 0 C193.60597336 3.21194672 193.14042664 6.70924536 193.13371277 10.23742676 C193.13597833 11.09935402 193.13824388 11.96128129 193.14057809 12.84932756 C193.14693781 15.75438282 193.14608747 18.65939166 193.14526367 21.56445312 C193.1482539 23.64029501 193.15165611 25.71613634 193.15544128 27.79197693 C193.16429849 33.44264199 193.16662009 39.09329191 193.16725707 44.74396324 C193.16820461 49.45357375 193.17188105 54.16318071 193.17542917 58.87278986 C193.18357995 69.97850886 193.1860128 81.08421976 193.18530273 92.18994141 C193.18470149 103.66545111 193.19526121 115.14091387 193.2110464 126.61641169 C193.22409798 136.45334677 193.22948765 146.29026646 193.22884732 156.12721014 C193.22859167 162.00926709 193.23147982 167.89128233 193.24202538 173.77333069 C193.2516666 179.30213578 193.25181304 184.83085894 193.24450874 190.35966682 C193.24345799 192.39387697 193.24585461 194.4280921 193.2518692 196.46229362 C193.25952303 199.22915162 193.25498861 201.99572197 193.24723816 204.76257324 C193.25238172 205.57637341 193.25752529 206.39017358 193.26282471 207.22863436 C193.22827138 212.77172862 193.22827138 212.77172862 191 215 C187.8125 215.265625 187.8125 215.265625 184 215.25 C182.741875 215.25515625 181.48375 215.2603125 180.1875 215.265625 C177 215 177 215 175 213 C174.73828697 210.0677166 174.73828697 210.0677166 174.7215271 206.22970581 C174.7128385 205.17358603 174.7128385 205.17358603 174.70397437 204.09613049 C174.68690283 201.72533683 174.68409179 199.35473698 174.68115234 196.98388672 C174.67185908 195.28902709 174.66169132 193.59417205 174.65071106 191.89932251 C174.62332902 187.28802755 174.60823744 182.67676327 174.59528303 178.06540823 C174.57968826 173.25004129 174.55288648 168.43473736 174.5272522 163.61941528 C174.48039951 154.49635234 174.44368688 145.37327762 174.41057932 136.25015557 C174.37240369 125.86574554 174.32298166 115.48139869 174.27259517 105.09704185 C174.16917883 83.73140783 174.07995007 62.36573386 174 41 C168.85762011 53.7889768 163.7160465 66.57827743 158.57518959 79.36786652 C155.61198792 86.73946428 152.64762478 94.11059376 149.68246078 101.4814024 C136.4926 134.26019648 136.4926 134.26019648 123.42028427 167.08597374 C122.48113326 169.45682898 121.54084633 171.82723018 120.60012817 174.19746399 C120.00798416 175.68966221 119.41585131 177.18186486 118.82373047 178.67407227 C118.54175623 179.38461415 118.25978199 180.09515604 117.96926308 180.8272295 C116.33769358 184.94134984 114.71486394 189.05878816 113.09833717 193.17884064 C112.35295485 195.07456686 111.60343788 196.96859103 110.85195923 198.86190796 C109.9624474 201.10351703 109.07984685 203.34788759 108.2059021 205.59561157 C107.82277863 206.55542938 107.43965515 207.51524719 107.04492188 208.50415039 C106.71939331 209.33169327 106.39386475 210.15923615 106.05847168 211.01185608 C105 213 105 213 102 215 C98.78515625 215.3359375 98.78515625 215.3359375 95.0625 215.375 C93.83660156 215.40335938 92.61070312 215.43171875 91.34765625 215.4609375 C87.27109887 214.89963788 86.56922492 214.13564088 84 211 C82.82556263 208.57302184 81.8078973 206.23068067 80.84765625 203.72265625 C80.55573395 202.98575058 80.26381165 202.24884491 79.96304321 201.48960876 C78.98642887 199.01763041 78.02466456 196.54013465 77.0625 194.0625 C76.36341448 192.28540238 75.66327255 190.50872004 74.9621582 188.73242188 C73.44202567 184.87713567 71.92763417 181.01965903 70.41699219 177.16064453 C67.94397198 170.84881048 65.44702489 164.54660167 62.9453125 158.24609375 C62.07526737 156.05452844 61.20523164 153.8629594 60.33520508 151.67138672 C59.89963287 150.57421326 59.46406067 149.47703979 59.01528931 148.34661865 C56.7842008 142.72328492 54.55808261 137.09798549 52.33203125 131.47265625 C49.25607563 123.69993374 46.1794711 115.92747028 43.10072327 108.15585327 C41.42306876 103.92097739 39.7457604 99.68596446 38.06851196 95.45092773 C37.29531909 93.49873881 36.52203013 91.54658794 35.74862671 89.59448242 C31.22124704 78.1663073 26.71224888 66.73104023 22.21923828 55.28930664 C21.70977284 53.99216567 21.20029719 52.6950287 20.69081116 51.39789581 C19.46044093 48.26530307 18.23017248 45.1326704 17 42 C16.99668985 42.87944464 16.99337971 43.75888927 16.98996925 44.66498375 C16.90884206 66.03780304 16.81678367 87.41055068 16.71247292 108.78326988 C16.66229475 119.11884447 16.61585254 129.45441091 16.578125 139.79003906 C16.54524241 148.79579887 16.50543208 157.80149645 16.45720994 166.80718768 C16.43190769 171.57813488 16.41013754 176.34904061 16.39665604 181.12003708 C16.38386934 185.60647729 16.36185204 190.09277553 16.33261681 194.5791378 C16.32351437 196.22954084 16.31784463 197.87996675 16.31578636 199.5303936 C16.31248252 201.77631544 16.29705701 204.02183011 16.2784729 206.26766968 C16.27294214 207.52683889 16.26741138 208.78600811 16.26171303 210.08333397 C16 213 16 213 14 215 C10.99609375 215.23046875 10.99609375 215.23046875 7.4375 215.1875 C5.67212891 215.17783203 5.67212891 215.17783203 3.87109375 215.16796875 C1 215 1 215 0 214 C-0.09787909 211.24361485 -0.12993232 208.51229161 -0.12025452 205.75547791 C-0.12110894 204.88074328 -0.12196337 204.00600865 -0.12284368 203.10476691 C-0.12450117 200.15047207 -0.11897273 197.19623303 -0.11352539 194.24194336 C-0.11324355 192.1334483 -0.11340119 190.02495314 -0.1139679 187.91645813 C-0.114256 182.17289034 -0.10835726 176.42934324 -0.10139394 170.68578029 C-0.09516246 164.69063212 -0.09455677 158.69548354 -0.09336853 152.70033264 C-0.0902546 141.33891904 -0.08204039 129.977515 -0.07201904 118.61610562 C-0.0608598 105.68525354 -0.05534793 92.75440102 -0.05032361 79.82354534 C-0.03985783 53.21569158 -0.0222572 26.60784632 0 0 Z " fill="#000000" transform="translate(775,3)"/>
<path d="M0 0 C1.31506279 -0.0098568 1.31506279 -0.0098568 2.6566925 -0.01991272 C5.57923465 -0.03972926 8.50172473 -0.05133826 11.42431641 -0.0612793 C12.42571278 -0.06535482 13.42710915 -0.06943035 14.45885086 -0.07362938 C19.77806646 -0.09454399 25.09725601 -0.10881179 30.41650391 -0.11816406 C35.86622871 -0.12912809 41.31553373 -0.16339417 46.76511192 -0.20333576 C50.98815564 -0.22974943 55.21110416 -0.2378785 59.43422318 -0.24144554 C61.43929443 -0.24626266 63.44436289 -0.25773382 65.44935226 -0.27648354 C87.32575008 -0.46803335 109.08864083 1.77305661 125.53369141 17.8137207 C135.74130732 29.20783072 138.62889732 43.76310316 138.02978516 58.67700195 C137.01054779 73.50227272 131.84712887 86.03023375 120.86572266 96.3371582 C112.93460926 102.92543759 104.3454518 106.83245137 94.65087891 110.17700195 C95.25648475 115.41135048 96.94990564 119.67123621 99.05322266 124.4387207 C99.40280029 125.24647949 99.75237793 126.05423828 100.11254883 126.88647461 C100.86971561 128.63456103 101.62982232 130.38137638 102.39254761 132.12704468 C104.44035397 136.81481496 106.46627402 141.51204055 108.49462891 146.20825195 C108.91606674 147.18251633 109.33750458 148.1567807 109.77171326 149.16056824 C114.46432002 160.02542154 119.0319516 170.94199493 123.58837891 181.86450195 C123.97428192 182.78919281 124.36018494 183.71388367 124.75778198 184.66659546 C125.13427887 185.56874786 125.51077576 186.47090027 125.89868164 187.40039062 C126.44492187 188.70919189 126.44492187 188.70919189 127.00219727 190.04443359 C127.67743062 191.66295462 128.35219396 193.28167187 129.02636719 194.90063477 C129.32905518 195.62694092 129.63174316 196.35324707 129.94360352 197.1015625 C130.22904022 197.78866302 130.51447693 198.47576355 130.80856323 199.1836853 C131.36930037 200.51065416 131.94364384 201.83195658 132.53152466 203.14712524 C134.27115139 207.0465007 135.06020824 209.879044 134.65087891 214.17700195 C132.65942647 216.16845439 129.04557345 215.54106075 126.33837891 215.61450195 C125.66097656 215.66026367 124.98357422 215.70602539 124.28564453 215.75317383 C122.28759766 215.7980957 122.28759766 215.7980957 118.65087891 215.17700195 C114.88737012 210.50920694 112.79855307 205.19122525 110.55322266 199.6730957 C110.16623199 198.73713058 109.77924133 197.80116547 109.38052368 196.83683777 C108.54615182 194.81724777 107.71457954 192.79649931 106.88552856 190.77471924 C105.57580834 187.58387655 104.256292 184.39725433 102.93383789 181.21166992 C98.79828737 171.24481312 94.68576727 161.26881785 90.60209656 151.28059387 C88.89354138 147.1117651 87.1709074 142.94885153 85.44509888 138.78713989 C84.62585075 136.8016491 83.81320907 134.81341913 83.0072937 132.82247925 C81.88493686 130.05094026 80.74124778 127.28915803 79.59228516 124.52856445 C79.265961 123.70688278 78.93963684 122.88520111 78.60342407 122.03862 C78.28723114 121.29102921 77.97103821 120.54343842 77.64526367 119.77319336 C77.24610497 118.79789169 77.24610497 118.79789169 76.83888245 117.80288696 C75.10255779 115.42657735 73.45750592 114.97786929 70.65087891 114.17700195 C67.64111991 113.88980894 67.64111991 113.88980894 64.3918457 113.94995117 C63.15093674 113.95010223 61.91002777 113.9502533 60.6315155 113.95040894 C59.2877079 113.96062053 57.94390196 113.97105249 56.60009766 113.98168945 C55.2171906 113.98542264 53.83428089 113.98826817 52.45137024 113.99026489 C48.8230755 113.99787733 45.19494254 114.01750504 41.56671143 114.03967285 C37.85976347 114.06018296 34.15278921 114.06927762 30.44580078 114.0793457 C23.18075332 114.10075341 15.91583884 114.13486021 8.65087891 114.17700195 C8.65532013 115.41284027 8.65976135 116.64867859 8.66433716 117.92196655 C8.70481406 129.54708732 8.73482997 141.17219386 8.75450325 152.797369 C8.76495734 158.77452904 8.77914611 164.75163237 8.80175781 170.72875977 C8.82342833 176.49292181 8.83543527 182.25702917 8.84063339 188.02122879 C8.84433959 190.22454311 8.85157645 192.42785432 8.86233902 194.63114548 C8.87677697 197.70818387 8.87886009 200.78499394 8.87792969 203.86206055 C8.88512024 204.78059311 8.89231079 205.69912567 8.89971924 206.64549255 C8.89696991 207.48124313 8.89422058 208.31699371 8.89138794 209.17807007 C8.89323153 209.90628653 8.89507511 210.63450298 8.89697456 211.38478661 C8.65087891 213.17700195 8.65087891 213.17700195 6.65087891 215.17700195 C3.46337891 215.44262695 3.46337891 215.44262695 -0.34912109 215.42700195 C-1.60724609 215.4321582 -2.86537109 215.43731445 -4.16162109 215.44262695 C-7.34912109 215.17700195 -7.34912109 215.17700195 -9.34912109 213.17700195 C-9.54473767 210.38355756 -9.61392296 207.68937766 -9.59635925 204.8948822 C-9.59877367 204.02816582 -9.60118808 203.16144943 -9.60367566 202.26846892 C-9.60933784 199.34719826 -9.60063063 196.42614384 -9.59204102 193.50488281 C-9.59311327 191.41756633 -9.59505109 189.33025014 -9.59779358 187.24293518 C-9.60265389 181.56132027 -9.59497171 175.87978351 -9.58484054 170.19817805 C-9.57608043 164.26489645 -9.57781708 158.33161744 -9.57820129 152.39833069 C-9.57726379 142.43383469 -9.56856788 132.46936909 -9.55493164 122.50488281 C-9.53920091 110.96688094 -9.53393363 99.42891237 -9.53466719 87.89090055 C-9.53527652 76.81279151 -9.53018013 65.73469337 -9.52187538 54.6565876 C-9.51833512 49.93210325 -9.51651107 45.20762275 -9.51598167 40.48313713 C-9.51498069 34.92562188 -9.50890422 29.36813484 -9.49881554 23.81062889 C-9.49588274 21.76471377 -9.49466673 19.71879541 -9.49524307 17.67287827 C-9.4957301 14.89260106 -9.49011445 12.11240413 -9.48283386 9.33213806 C-9.48438246 8.5115341 -9.48593107 7.69093015 -9.4875266 6.8454594 C-9.45289735 -1.09365275 -7.16180183 0.02303038 0 0 Z M8.65087891 15.17700195 C8.55578332 17.79388636 8.5253189 20.38429096 8.53735352 23.00146484 C8.53720749 23.8209108 8.53706146 24.64035675 8.53691101 25.4846344 C8.53761038 28.20633548 8.54540389 30.92796901 8.55322266 33.6496582 C8.55508675 35.53152936 8.55651069 37.41340101 8.55751038 39.29527283 C8.56133624 44.25848724 8.5711671 49.22167259 8.58221436 54.18487549 C8.59242701 59.24539802 8.59700768 64.30592522 8.60205078 69.36645508 C8.61278931 79.30331684 8.62986655 89.24015698 8.65087891 99.17700195 C16.62325379 99.22370206 24.59556986 99.25905989 32.56804848 99.2806263 C36.27148963 99.29098617 39.97483602 99.30499945 43.67822266 99.32788086 C47.26386803 99.34989173 50.84942326 99.36162888 54.43513107 99.36675644 C56.4432447 99.3721553 58.45132296 99.38772081 60.4593811 99.40359497 C77.78268428 99.40567146 96.22032309 97.35699792 109.68603516 85.36450195 C118.33155269 76.26009283 120.07605136 65.23787269 119.86181641 53.1027832 C119.23004842 41.34487902 115.42390313 32.43694704 106.83837891 24.36450195 C93.89490714 13.71387376 77.05162706 14.01867919 61.15087891 14.04418945 C59.66398096 14.0435148 58.17708312 14.04254343 56.69018555 14.04129028 C53.59390194 14.03982456 50.49764739 14.04193389 47.40136719 14.04663086 C43.42550384 14.05236759 39.44970742 14.04901735 35.47384644 14.0430584 C32.41306039 14.03945626 29.35229042 14.04058906 26.29150391 14.04318619 C24.82421867 14.04385436 23.35693199 14.04303083 21.88964844 14.04070663 C19.85042344 14.03818158 17.81119333 14.04270906 15.77197266 14.04760742 C14.03065063 14.04880081 14.03065063 14.04880081 12.25415039 14.05001831 C9.72261981 13.88132224 9.72261981 13.88132224 8.65087891 15.17700195 Z " fill="#000000" transform="translate(230.34912109375,2.822998046875)"/>
<path d="M0 0 C0.87205078 -0.020625 1.74410156 -0.04125 2.64257812 -0.0625 C3.48111328 -0.06765625 4.31964844 -0.0728125 5.18359375 -0.078125 C6.33492798 -0.09214355 6.33492798 -0.09214355 7.50952148 -0.10644531 C10.19147702 0.35920519 10.83264819 1.16079001 12.5625 3.25 C13.68876648 5.74436951 13.68876648 5.74436951 14.76049805 8.76733398 C15.16972 9.90810394 15.57894196 11.0488739 16.00056458 12.22421265 C16.65577339 14.09129379 16.65577339 14.09129379 17.32421875 15.99609375 C17.79090506 17.30623605 18.25838513 18.61609585 18.72660828 19.9256897 C19.72362138 22.71911504 20.71540997 25.51431772 21.70306396 28.31106567 C23.2585828 32.71553341 24.82562685 37.11584051 26.39501953 41.51538086 C27.97395464 45.94294524 29.55246512 50.3706542 31.1270752 54.79975891 C35.34312476 66.65718999 39.62172102 78.49099428 43.9375 90.3125 C45.20628718 93.79276551 46.47429261 97.27331559 47.7421875 100.75390625 C48.05257462 101.60570969 48.36296173 102.45751312 48.68275452 103.33512878 C52.49434016 113.80011368 56.27732754 124.27544003 60.0625 134.75 C65.83970925 150.73443258 71.63027475 166.71394662 77.4375 182.6875 C77.77869873 183.6264209 78.11989746 184.5653418 78.47143555 185.53271484 C79.43622151 188.18734373 80.40159422 190.84175842 81.3671875 193.49609375 C81.64766937 194.26791489 81.92815125 195.03973602 82.21713257 195.83494568 C82.48305206 196.56544632 82.74897156 197.29594696 83.02294922 198.04858398 C83.27566589 198.74579559 83.52838257 199.4430072 83.78875732 200.16134644 C84.32242982 201.60195064 84.87338643 203.03622916 85.43829346 204.46487427 C87.02812753 208.50756725 88.01361855 211.02856422 86.5625 215.25 C84.29225032 215.33097324 82.02117925 215.38917704 79.75 215.4375 C78.48542969 215.47230469 77.22085938 215.50710937 75.91796875 215.54296875 C72.5625 215.25 72.5625 215.25 70.99511719 214.08764648 C69.14100657 211.70934202 68.30128984 209.3959542 67.28515625 206.5546875 C66.85267578 205.35972656 66.42019531 204.16476563 65.97460938 202.93359375 C65.52443515 201.66417042 65.07456198 200.39464028 64.625 199.125 C63.76182035 196.72652593 62.89853145 194.32809118 62.03515625 191.9296875 C60.88917969 188.73539063 59.74320313 185.54109375 58.5625 182.25 C54.6025 171.36 50.6425 160.47 46.5625 149.25 C15.5425 149.25 -15.4775 149.25 -47.4375 149.25 C-53.75649325 164.93362421 -53.75649325 164.93362421 -59.6484375 180.7578125 C-60.34234566 182.68883883 -61.03635868 184.61982749 -61.73046875 186.55078125 C-62.78560114 189.49948613 -63.83882078 192.44885799 -64.89013672 195.39892578 C-65.92979681 198.31195794 -66.97621566 201.22249191 -68.0234375 204.1328125 C-68.33799896 205.02219513 -68.65256042 205.91157776 -68.97665405 206.82791138 C-69.41819321 208.05222366 -69.41819321 208.05222366 -69.86865234 209.30126953 C-70.25215347 210.37660446 -70.25215347 210.37660446 -70.6434021 211.47366333 C-71.4375 213.25 -71.4375 213.25 -73.4375 215.25 C-76.6953125 215.4453125 -76.6953125 215.4453125 -80.5625 215.375 C-81.84382813 215.35695312 -83.12515625 215.33890625 -84.4453125 215.3203125 C-85.43273437 215.29710937 -86.42015625 215.27390625 -87.4375 215.25 C-88.44063122 212.15313803 -88.4447796 210.43031032 -87.32373047 207.38598633 C-87.0502327 206.62698532 -86.77673492 205.86798431 -86.49494934 205.08598328 C-86.02951973 203.84652702 -86.02951973 203.84652702 -85.5546875 202.58203125 C-85.23340378 201.70041824 -84.91212006 200.81880524 -84.58110046 199.91047668 C-83.50187003 196.95726116 -82.40719174 194.0100159 -81.3125 191.0625 C-80.54195462 188.96372112 -79.77236253 186.86459203 -79.00366211 184.76513672 C-76.92552946 179.09789267 -74.83400717 173.4356761 -72.73980713 167.77435303 C-70.57314407 161.91084714 -68.41805718 156.04309007 -66.26171875 150.17578125 C-62.72791464 140.56528162 -59.18687146 130.9574775 -55.640625 121.3515625 C-50.83084896 108.32243633 -46.03692059 95.28753829 -41.25 82.25 C-40.52279548 80.26977208 -39.79558198 78.28954745 -39.06835938 76.30932617 C-37.24189582 71.33562814 -35.41570515 66.36182997 -33.58959961 61.38800049 C-30.2941403 52.41208137 -26.99834275 43.43628655 -23.70199585 34.46069336 C-22.52937716 31.26749789 -21.35708621 28.07418223 -20.18481445 24.88085938 C-19.46827773 22.92968162 -18.7517258 20.97850945 -18.03515625 19.02734375 C-17.71411926 18.15254868 -17.39308228 17.2777536 -17.06231689 16.37644958 C-16.46818135 14.75905754 -15.871875 13.14246059 -15.27297974 11.52682495 C-14.70896305 9.98978318 -14.15770222 8.44800893 -13.61837769 6.90213013 C-10.82763011 -0.96438982 -7.59597458 0.04471508 0 0 Z M-1.4375 20.25 C-7.49400199 35.5761267 -13.21930289 51.02411595 -18.93890381 66.47814941 C-19.92543624 69.14263154 -20.91342055 71.80657419 -21.90142059 74.47051239 C-24.34379307 81.05597493 -26.78094636 87.64334142 -29.2130661 94.23259735 C-30.74484501 98.38083441 -32.28334499 102.52651826 -33.82588577 106.67076492 C-34.86310351 109.46000215 -35.89632586 112.25070853 -36.92870331 115.04174042 C-37.42045902 116.36853528 -37.91390819 117.69470383 -38.40912628 119.02021027 C-39.09200147 120.8487237 -39.76833174 122.67967741 -40.44433594 124.51074219 C-41.02341705 126.06930939 -41.02341705 126.06930939 -41.61419678 127.65936279 C-42.58893639 130.27346322 -42.58893639 130.27346322 -42.4375 133.25 C-15.0475 133.25 12.3425 133.25 40.5625 133.25 C41.84083203 131.25025516 41.84083203 131.25025516 40.92398071 128.92730713 C40.56444305 127.95130554 40.2049054 126.97530396 39.83447266 125.96972656 C39.42821655 124.8554982 39.02196045 123.74126984 38.60339355 122.59327698 C38.14903931 121.37140182 37.69468506 120.14952667 37.2265625 118.890625 C36.75475766 117.60550017 36.28362049 116.32013005 35.81311035 115.03453064 C34.54333817 111.57099948 33.26418172 108.11100302 31.98319244 104.65160751 C30.6604333 101.07477511 29.3460511 97.49486756 28.03076172 93.9152832 C25.64280792 87.42039307 23.24728004 80.92832778 20.84824944 74.43752193 C18.73574889 68.72124598 16.62959374 63.00265822 14.52529907 57.28335571 C11.21396535 48.28398489 7.89892702 39.28596363 4.5703125 30.29296875 C4.27660767 29.49704819 3.98290283 28.70112762 3.68029785 27.88108826 C2.2595427 24.00705024 2.2595427 24.00705024 0.5625 20.25 C-0.0975 20.25 -0.7575 20.25 -1.4375 20.25 Z " fill="#000000" transform="translate(88.4375,2.75)"/>
<path d="M0 0 C3.57448739 3.09635794 6.98713023 6.34498608 10.359375 9.65917969 C11.30103516 10.44035156 11.30103516 10.44035156 12.26171875 11.23730469 C13.359375 12.65917969 13.359375 12.65917969 13.28125 14.60839844 C12.12307437 17.18484846 10.71395824 18.59258751 8.609375 20.47167969 C7.59617187 21.40947266 7.59617187 21.40947266 6.5625 22.36621094 C4.359375 23.65917969 4.359375 23.65917969 1.76171875 23.55371094 C-0.91007265 22.55884877 -1.70201639 21.82201704 -3.328125 19.53417969 C-12.62519678 7.93067322 -28.22256941 1.6534528 -42.640625 -0.34082031 C-60.16733905 -1.80607615 -78.15187126 0.07336194 -92.1640625 11.76464844 C-100.37945937 20.39234218 -103.04692649 30.80035633 -102.91796875 42.46386719 C-102.10400332 51.84166607 -97.75362167 59.92449891 -90.8984375 66.27246094 C-77.71208918 76.85984019 -60.24075227 81.2423299 -44.55078125 86.69482422 C3.09513009 103.29934014 3.09513009 103.29934014 14.31640625 125.97167969 C19.27381595 138.74582902 19.89851497 156.43988794 14.6171875 169.16308594 C14.20210937 169.98679688 13.78703125 170.81050781 13.359375 171.65917969 C12.70582031 172.97208984 12.70582031 172.97208984 12.0390625 174.31152344 C4.39356602 188.20293098 -8.0247168 195.50943351 -22.640625 200.65917969 C-32.38063337 203.41410198 -41.65905829 204.16347477 -51.71655273 204.10522461 C-53.94153953 204.09672395 -56.16393669 204.12559526 -58.38867188 204.15722656 C-71.6820379 204.22376707 -85.27550876 202.36388317 -97.078125 195.84667969 C-97.73224365 195.50121094 -98.3863623 195.15574219 -99.06030273 194.79980469 C-108.040019 189.96039684 -115.28166524 184.67828746 -121.640625 176.65917969 C-122.30707031 175.88960937 -122.97351562 175.12003906 -123.66015625 174.32714844 C-124.31371094 173.54984375 -124.96726562 172.77253906 -125.640625 171.97167969 C-126.23875 171.2665625 -126.836875 170.56144531 -127.453125 169.83496094 C-128.640625 167.65917969 -128.640625 167.65917969 -128.53515625 165.06152344 C-127.52056258 162.33674131 -126.7261482 161.49074531 -124.328125 159.90917969 C-123.73386719 159.50183594 -123.13960937 159.09449219 -122.52734375 158.67480469 C-120.52903814 157.59911223 -118.88874225 156.9757513 -116.640625 156.65917969 C-112.52458645 159.21779825 -109.64165154 162.89357214 -106.5 166.51855469 C-105.88640625 167.22496094 -105.2728125 167.93136719 -104.640625 168.65917969 C-104.06828125 169.32433594 -103.4959375 169.98949219 -102.90625 170.67480469 C-93.90029903 180.45049506 -82.64326154 185.66142361 -69.640625 187.65917969 C-68.47466797 187.85253906 -68.47466797 187.85253906 -67.28515625 188.04980469 C-49.05637667 190.57327873 -28.61949176 188.49781367 -12.8984375 178.41308594 C-6.03010555 173.0776516 -1.92196841 166.23960433 -0.640625 157.65917969 C0.29413436 146.27848449 -0.32988692 135.87681029 -7.515625 126.47167969 C-20.14038507 113.50499904 -40.66395384 108.43211404 -57.13302612 102.19889832 C-59.40327481 101.33946344 -61.67283174 100.47821849 -63.94238281 99.61694336 C-66.87982157 98.50255046 -69.82080523 97.39837483 -72.76464844 96.30102539 C-89.43928749 90.04085024 -105.69705137 83.05573135 -114.640625 66.65917969 C-121.93200484 50.55738253 -122.76522077 34.28616328 -116.640625 17.65917969 C-109.72239353 2.60688893 -98.20928387 -6.33587007 -82.90234375 -12.27441406 C-56.22513925 -20.99642224 -22.26241208 -18.1942213 0 0 Z " fill="#000000" transform="translate(1223.640625,16.3408203125)"/>
<path d="M0 0 C16.54147069 -0.02332889 33.08293606 -0.04097912 49.62441921 -0.05181217 C57.30438727 -0.05697515 64.98434513 -0.06401789 72.66430664 -0.07543945 C79.35577989 -0.08538623 86.04724576 -0.09185341 92.7387262 -0.09408849 C96.28395601 -0.09539561 99.82916468 -0.09848153 103.37438774 -0.10573006 C107.32568645 -0.1137438 111.2769642 -0.11399114 115.22827148 -0.11352539 C116.41222 -0.11712067 117.59616852 -0.12071594 118.81599426 -0.12442017 C119.88596649 -0.1230455 120.95593872 -0.12167084 122.05833435 -0.12025452 C122.99395423 -0.12117631 123.92957411 -0.1220981 124.8935461 -0.12304783 C127 0 127 0 128 1 C128.09873816 2.99799572 128.12971799 4.99957158 128.125 7 C128.12757813 8.093125 128.13015625 9.18625 128.1328125 10.3125 C128 13 128 13 127 14 C125.5709839 14.10763675 124.13673874 14.1468064 122.70372009 14.15821838 C121.77678848 14.1680072 120.84985687 14.17779602 119.89483643 14.18788147 C118.86985046 14.19363693 117.8448645 14.1993924 116.78881836 14.20532227 C115.17926018 14.22017166 115.17926018 14.22017166 113.53718567 14.23532104 C109.97142788 14.26704374 106.40565675 14.29173588 102.83984375 14.31640625 C100.37504215 14.33696649 97.91024414 14.3579627 95.44544983 14.37937927 C88.94350085 14.43469605 82.44151954 14.48406282 75.93951416 14.53222656 C68.14600416 14.59055637 60.35256092 14.65746152 52.55910492 14.72252655 C40.70610605 14.82065683 28.85306993 14.90943029 17 15 C17.33 42.39 17.66 69.78 18 98 C24.12433594 98.06058594 30.24867188 98.12117188 36.55859375 98.18359375 C40.42774179 98.22406649 44.29688239 98.26482865 48.16601562 98.30664062 C54.31353296 98.37304626 60.46104875 98.43835291 66.60864258 98.49731445 C71.56236462 98.5448924 76.51601512 98.59723256 81.46965218 98.65294075 C83.36395561 98.67339418 85.25827868 98.6921022 87.1526165 98.70907402 C89.796397 98.73305216 92.44004098 98.7631153 95.08374023 98.79467773 C96.27056648 98.80331093 96.27056648 98.80331093 97.48136902 98.81211853 C102.88594784 98.88594784 102.88594784 98.88594784 104 100 C104 104.29 104 108.58 104 113 C60.935 113.495 60.935 113.495 17 114 C17.33 142.05 17.66 170.1 18 199 C26.14558594 199.06058594 34.29117188 199.12117187 42.68359375 199.18359375 C47.82878164 199.22406503 52.97396391 199.26482646 58.11914062 199.30664062 C66.29465897 199.37305409 74.47017491 199.4385108 82.64575195 199.49731445 C89.23339277 199.54470189 95.82097949 199.59722159 102.40855598 199.65294075 C104.9280673 199.67339898 107.44759343 199.69210617 109.96713066 199.70907402 C113.48261781 199.73304152 116.99800185 199.76310619 120.51342773 199.79467773 C122.092985 199.80331093 122.092985 199.80331093 123.70445251 199.81211853 C125.13271362 199.82680176 125.13271362 199.82680176 126.58982849 199.84178162 C127.42220756 199.84823417 128.25458662 199.85468672 129.11218929 199.8613348 C131 200 131 200 132 201 C132.0989294 203.16480797 132.129711 205.33293785 132.125 207.5 C132.12757813 208.6859375 132.13015625 209.871875 132.1328125 211.09375 C132 214 132 214 131 215 C129.31939999 215.09834335 127.63464667 215.12632003 125.95117188 215.12698364 C124.31051758 215.13121338 124.31051758 215.13121338 122.63671875 215.13552856 C121.42628906 215.13350433 120.21585938 215.1314801 118.96875 215.12939453 C117.70224609 215.13114685 116.43574219 215.13289917 115.13085938 215.13470459 C111.64748181 215.13927845 108.16413373 215.13748956 104.68075562 215.1343255 C101.04302895 215.13180166 97.40530488 215.13413951 93.76757812 215.13571167 C87.65754745 215.13753329 81.54752884 215.13512725 75.4375 215.13037109 C68.36372155 215.12492849 61.28997191 215.12669115 54.21619415 215.1321975 C48.15336103 215.13672884 42.0905366 215.13737908 36.02770233 215.13475883 C32.40200833 215.13319617 28.7763279 215.13300199 25.15063477 215.13629532 C21.11082235 215.13970819 17.07105997 215.13498396 13.03125 215.12939453 C11.82082031 215.13141876 10.61039063 215.13344299 9.36328125 215.13552856 C8.26951172 215.13270874 7.17574219 215.12988892 6.04882812 215.12698364 C5.09238403 215.12660662 4.13593994 215.12622959 3.1505127 215.12584114 C1 215 1 215 0 214 C-0.09787909 211.24361485 -0.12993232 208.51229161 -0.12025452 205.75547791 C-0.12110894 204.88074328 -0.12196337 204.00600865 -0.12284368 203.10476691 C-0.12450117 200.15047207 -0.11897273 197.19623303 -0.11352539 194.24194336 C-0.11324355 192.1334483 -0.11340119 190.02495314 -0.1139679 187.91645813 C-0.114256 182.17289034 -0.10835726 176.42934324 -0.10139394 170.68578029 C-0.09516246 164.69063212 -0.09455677 158.69548354 -0.09336853 152.70033264 C-0.0902546 141.33891904 -0.08204039 129.977515 -0.07201904 118.61610562 C-0.0608598 105.68525354 -0.05534793 92.75440102 -0.05032361 79.82354534 C-0.03985783 53.21569158 -0.0222572 26.60784632 0 0 Z " fill="#000000" transform="translate(597,3)"/>
<path d="M0 0 C1.70209074 0.00138269 1.70209074 0.00138269 3.43856716 0.00279331 C5.38429874 0.00073132 5.38429874 0.00073132 7.36933804 -0.00137234 C8.820266 0.00216728 10.27119373 0.0058021 11.72212124 0.00952244 C13.23949081 0.0098043 14.75686051 0.0096466 16.27423 0.00907993 C20.40628225 0.00879192 24.53830573 0.01468925 28.67035127 0.02165389 C32.98386602 0.02788681 37.29738136 0.02849118 41.61089993 0.0296793 C49.78487827 0.0327928 57.95884331 0.04100644 66.13281578 0.05102879 C75.43616679 0.06218935 84.73951842 0.06770023 94.04287446 0.07272422 C113.18588289 0.08318904 132.32887893 0.10078884 151.4718771 0.12304783 C152.78352552 2.74634467 152.60450556 4.76003408 152.5968771 7.68554783 C152.59945522 8.67683689 152.60203335 9.66812595 152.6046896 10.68945408 C152.4718771 13.12304783 152.4718771 13.12304783 151.4718771 14.12304783 C149.4783628 14.24674108 147.48051239 14.30101173 145.48335171 14.32837009 C143.56147282 14.35828793 143.56147282 14.35828793 141.60076809 14.38881016 C140.19192026 14.4057958 138.78307114 14.42267456 137.37422085 14.43945408 C135.94074805 14.46001698 134.50728141 14.48101327 133.07382107 14.5024271 C129.2943459 14.55771642 125.5148154 14.60709528 121.7352438 14.65527439 C117.88112855 14.70543948 114.02709401 14.76115154 110.17304897 14.8164072 C102.60605996 14.92407262 95.039004 15.02549879 87.4718771 15.12304783 C87.46856695 16.13556771 87.46525681 17.1480876 87.46184635 18.1912899 C87.38093367 42.802391 87.2886433 67.41342924 87.18435001 92.02444267 C87.13417979 103.92603164 87.08773743 115.82761357 87.0500021 127.729249 C87.01711131 138.0999672 86.97729633 148.47063145 86.92908704 158.84129018 C86.90379303 164.3349448 86.88202036 169.8285635 86.86853313 175.32226086 C86.85573907 180.48911757 86.83371353 185.65585128 86.8044939 190.82264042 C86.7953973 192.72257187 86.78972307 194.62252313 86.78766346 196.52247524 C86.78435559 199.10959202 86.7689185 201.69635689 86.75035 204.28340244 C86.75228473 205.04118073 86.75421947 205.79895902 86.75621283 206.57970029 C86.71600681 210.30761095 86.59500879 211.93835029 84.4718771 215.12304783 C81.86132116 215.37195441 79.51092788 215.45034553 76.9093771 215.37304783 C75.86233608 215.36531345 75.86233608 215.36531345 74.79414272 215.35742283 C69.6260489 215.27721963 69.6260489 215.27721963 68.4718771 214.12304783 C68.3741069 211.55586586 68.34192694 209.01560867 68.35162258 206.44798374 C68.35076816 205.6345024 68.34991373 204.82102105 68.34903342 203.98288876 C68.34737612 201.23588542 68.35290403 198.4889421 68.35835171 195.74194431 C68.35863355 193.78123062 68.3584759 191.82051683 68.3579092 189.8598032 C68.35762112 184.51911449 68.36351958 179.17844802 68.37048316 173.8377645 C68.37671491 168.26302467 68.37732035 162.68828438 68.37850857 157.1135416 C68.38162241 146.54898691 68.38983651 135.98444252 68.39985806 125.41989237 C68.41101755 113.39591553 68.41652923 101.37193822 68.42155349 89.34795749 C68.43201908 64.60631391 68.45036522 39.86468444 68.4718771 15.12304783 C44.7118771 14.79304783 20.9518771 14.46304783 -3.5281229 14.12304783 C-3.5281229 0.17171945 -3.5281229 0.17171945 0 0 Z " fill="#000000" transform="translate(400.5281229019165,2.8769521713256836)"/>
<path d="M0 0 C1.48831242 0.00667405 2.97660807 0.01863442 4.46484375 0.03515625 C5.22345703 0.03966797 5.98207031 0.04417969 6.76367188 0.04882812 C8.64326246 0.06064945 10.52281274 0.07858547 12.40234375 0.09765625 C14.00289834 3.29876543 13.54278498 6.77441228 13.53605652 10.29039001 C13.53832208 11.14752816 13.54058763 12.00466631 13.54292184 12.88777834 C13.5492815 15.77668016 13.54843122 18.66553529 13.54760742 21.55444336 C13.55059767 23.61881064 13.55399989 25.68317736 13.55778503 27.74754333 C13.56664252 33.3672848 13.56896387 38.98701106 13.56960082 44.60675883 C13.57054845 49.29142181 13.57422502 53.97608121 13.57777292 58.66074282 C13.585924 69.70897035 13.58835654 80.75718973 13.58764648 91.80541992 C13.5870454 103.21842575 13.59760177 114.63138435 13.61339015 126.04437822 C13.62644636 135.8295247 13.6318312 145.61465572 13.63119107 155.39981085 C13.63093554 161.2500417 13.63381743 167.1002306 13.64436913 172.9504528 C13.65401797 178.45053398 13.65415147 183.95053283 13.64685249 189.45061684 C13.64580266 191.47311904 13.648193 193.49562629 13.65421295 195.51811981 C13.66187969 198.27149107 13.65732359 201.02457422 13.64958191 203.77793884 C13.65472547 204.58493522 13.65986904 205.3919316 13.66516846 206.22338241 C13.64126458 210.05032017 13.57723796 211.83531494 11.40234375 215.09765625 C8.21484375 215.4609375 8.21484375 215.4609375 4.40234375 215.41015625 C2.51515625 215.40435547 2.51515625 215.40435547 0.58984375 215.3984375 C-2.59765625 215.09765625 -2.59765625 215.09765625 -4.59765625 213.09765625 C-4.79327283 210.30421186 -4.86245811 207.61003196 -4.84489441 204.8155365 C-4.84730882 203.94882011 -4.84972324 203.08210373 -4.85221082 202.18912321 C-4.85787299 199.26785256 -4.84916579 196.34679814 -4.84057617 193.42553711 C-4.84164842 191.33822063 -4.84358625 189.25090443 -4.84632874 187.16358948 C-4.85118904 181.48197456 -4.84350687 175.80043781 -4.83337569 170.11883235 C-4.82461559 164.18555074 -4.82635223 158.25227174 -4.82673645 152.31898499 C-4.82579895 142.35448899 -4.81710304 132.39002339 -4.8034668 122.42553711 C-4.78773607 110.88753524 -4.78246879 99.34956667 -4.78320235 87.81155485 C-4.78381167 76.73344581 -4.77871529 65.65534767 -4.77041054 54.5772419 C-4.76687027 49.85275754 -4.76504623 45.12827704 -4.76451683 40.40379143 C-4.76351585 34.84627618 -4.75743938 29.28878914 -4.74735069 23.73128319 C-4.7444179 21.68536807 -4.74320189 19.6394497 -4.74377823 17.59353256 C-4.74426526 14.81325536 -4.73864961 12.03305843 -4.73136902 9.25279236 C-4.73291762 8.4321884 -4.73446622 7.61158444 -4.73606175 6.7661137 C-4.70710627 0.12777161 -4.70710627 0.12777161 0 0 Z " fill="#000000" transform="translate(1034.59765625,2.90234375)"/>
</svg>
