<?xml version="1.0" standalone="no"?>
<!DOCTYPE svg PUBLIC "-//W3C//DTD SVG 20010904//EN"
 "http://www.w3.org/TR/2001/REC-SVG-20010904/DTD/svg10.dtd">
<svg version="1.0" xmlns="http://www.w3.org/2000/svg"
 width="620.000000pt" height="89.000000pt" viewBox="0 0 620.000000 89.000000"
 preserveAspectRatio="xMidYMid meet">

<g transform="translate(0.000000,89.000000) scale(0.100000,-0.100000)"
fill="#000000" stroke="none">
<path d="M470 790 l-62 -101 175 -292 c97 -161 190 -313 206 -339 l31 -48 120
0 c66 0 120 2 120 5 0 2 -111 188 -247 412 -135 225 -254 421 -263 436 l-17
28 -63 -101z"/>
<path d="M2192 773 l3 -108 158 -3 157 -3 0 -47 c0 -47 1 -48 110 -157 l110
-110 0 158 0 157 160 0 160 0 0 110 0 110 -430 0 -431 0 3 -107z"/>
<path d="M3177 873 c-4 -3 -7 -65 -7 -137 l0 -131 132 -132 133 -133 227 0
228 0 0 105 0 105 -183 0 -183 0 -54 55 -54 55 237 0 237 0 0 110 0 110 -353
0 c-195 0 -357 -3 -360 -7z"/>
<path d="M4020 743 l0 -138 212 -212 213 -213 107 107 108 108 0 -188 0 -187
110 0 110 0 0 430 c0 404 -1 430 -18 430 -9 0 -107 -90 -217 -200 l-200 -200
-200 200 c-110 110 -206 200 -213 200 -9 0 -12 -35 -12 -137z"/>
<path d="M5007 873 c-4 -3 -7 -27 -7 -52 0 -46 2 -48 110 -156 l110 -110 0
163 0 162 -103 0 c-57 0 -107 -3 -110 -7z"/>
<path d="M5765 770 l110 -110 162 0 163 0 0 110 0 110 -272 0 -273 0 110 -110z"/>
<path d="M1190 711 l0 -159 276 -271 277 -271 158 0 c88 0 159 2 159 5 0 3
-73 76 -161 163 l-161 157 42 7 c139 24 230 134 230 277 0 71 -33 144 -85 190
-69 60 -74 61 -420 61 l-315 0 0 -159z m600 -90 c0 -20 -9 -36 -26 -50 -23
-18 -41 -21 -138 -21 l-112 0 -49 50 -49 50 187 0 187 0 0 -29z"/>
<path d="M5479 828 c-74 -39 -121 -101 -140 -182 -31 -141 70 -288 220 -316
29 -5 132 -10 227 -10 161 0 174 -1 184 -19 16 -31 12 -59 -12 -75 -19 -14
-67 -16 -326 -16 l-303 0 3 -102 3 -103 309 -3 c355 -3 383 1 458 67 64 57 91
124 90 223 -2 107 -41 175 -126 221 -38 20 -57 22 -261 25 -236 4 -255 8 -255
57 0 42 29 55 126 55 l89 0 -105 105 c-58 58 -108 105 -111 105 -4 0 -35 -15
-70 -32z"/>
<path d="M5000 347 l0 -327 110 0 110 0 0 218 0 217 -110 110 -110 110 0 -328z"/>
<path d="M273 467 c-51 -83 -132 -219 -182 -300 l-90 -148 126 3 126 3 114
185 c63 102 117 190 119 196 4 9 -111 215 -119 214 -1 0 -43 -69 -94 -153z"/>
<path d="M4020 267 l0 -247 105 0 105 0 0 143 0 142 -105 105 -105 105 0 -248z"/>
<path d="M3180 252 l0 -242 355 0 355 0 0 110 0 110 -250 0 -250 0 0 28 c0 22
-22 49 -105 132 l-105 105 0 -243z"/>
<path d="M1190 242 l0 -222 105 0 105 0 0 118 0 117 -105 105 -105 105 0 -223z"/>
<path d="M2510 242 l0 -222 110 0 110 0 0 113 0 112 -110 110 -110 110 0 -223z"/>
</g>
</svg>
